<?xml version="1.0" encoding="utf-8"?>
<!-- Generator: Adobe Illustrator 21.1.0, SVG Export Plug-In . SVG Version: 6.00 Build 0)  -->
<svg version="1.1" id="Layer_1" xmlns="http://www.w3.org/2000/svg" xmlns:xlink="http://www.w3.org/1999/xlink" x="0px" y="0px"
	 viewBox="0 0 175 175" style="enable-background:new 0 0 175 175;" xml:space="preserve">
<style type="text/css">
	.st0{fill:#355E86;}
</style>
<title>Artboard 23</title>
<path class="st0" d="M59.1,55.5l6.9-6.9v13.2c0,0.8,0.7,1.5,1.5,1.5s1.5-0.7,1.5-1.5V48.6l6.9,6.9c0.6,0.5,1.6,0.4,2.1-0.2
	c0.4-0.6,0.4-1.3,0-1.9l-9.4-9.5c-0.1-0.1-0.1-0.1-0.2-0.2h-0.1l-0.2-0.1H68l-0.2-0.1c-0.2,0-0.4,0-0.6,0L67,43.6h-0.1l-0.2,0.1
	h-0.1c-0.1,0.1-0.2,0.1-0.2,0.2L57,53.3c-0.6,0.6-0.5,1.6,0.1,2.1C57.7,56,58.5,56,59.1,55.5L59.1,55.5z"/>
<path class="st0" d="M98.1,55.9c0.4,0,0.8-0.2,1.1-0.4l6.9-6.9v13.2c0,0.8,0.7,1.5,1.5,1.5s1.5-0.7,1.5-1.5V48.6l6.9,6.9
	c0.5,0.6,1.5,0.7,2.1,0.2c0.6-0.5,0.7-1.5,0.2-2.1c-0.1-0.1-0.1-0.2-0.2-0.2l-9.4-9.5c-0.6-0.6-1.5-0.6-2.1,0L97,53.3
	c-0.6,0.6-0.6,1.5,0,2.1C97.3,55.8,97.7,55.9,98.1,55.9L98.1,55.9z"/>
<path class="st0" d="M142.1,107.8c1.4-3.7,2.4-7.4,3-11.3c0.1-0.1,0.3-0.1,0.4-0.2c0.6-0.6,0.6-1.5,0-2.1l0,0
	c3.7-31.9-19.2-60.8-51.1-64.5c-1-0.1-2.1-0.2-3.1-0.3l-2.7-2.7c-0.6-0.6-1.5-0.6-2.1,0l-2.7,2.7c-32.1,2-56.4,29.6-54.4,61.7
	c0.1,1,0.2,2,0.3,3l0,0c-0.6,0.6-0.6,1.5,0,2.1c0.1,0.1,0.2,0.2,0.4,0.2c0.6,3.9,1.6,7.6,3,11.3l-3.3,3.3c-0.6,0.6-0.6,1.5-0.1,2.1
	s1.5,0.6,2.1,0.1c0,0,0.1,0,0.1-0.1l2.4-2.4c12.8,29.5,47.2,43,76.6,30.1c13.5-5.9,24.2-16.6,30.1-30.1l2.4,2.4
	c0.6,0.6,1.6,0.5,2.1-0.1c0.5-0.6,0.5-1.5,0-2L142.1,107.8z M129.1,82l13.1,13.2c-0.5,3.5-1.3,6.9-2.5,10.3l-10.7-10.7V82z
	 M142.6,91.3l-13.5-13.5V65.9l11,11c0.5,0.5,1.2,0.6,1.7,0.3c0.7,3.4,1,6.9,1,10.3C142.7,88.8,142.7,90.1,142.6,91.3L142.6,91.3z
	 M80.4,32.7L77,36.2c-0.6,0.6-0.5,1.6,0.1,2.1c0.6,0.5,1.5,0.5,2,0l6.9-6.9v12.2c0,0.8,0.7,1.5,1.5,1.5s1.5-0.7,1.5-1.5V31.4
	l6.9,6.9c0.6,0.5,1.6,0.5,2.1-0.2c0.5-0.6,0.5-1.4,0-2l-3.4-3.4c22.4,2.9,40.8,19,46.4,40.9l-12.4-12.3c-0.6-0.6-1.5-0.6-2.1,0
	L113,74.8c-0.6,0.6-0.5,1.6,0.1,2.1c0.6,0.5,1.5,0.5,2,0l11-11v11.9l-16.4,16.3c-0.6,0.6-0.5,1.6,0.1,2.1c0.6,0.5,1.5,0.5,2,0
	L126.1,82v12.7l-16.3,16.3c-0.6,0.6-0.5,1.6,0.1,2.1c0.6,0.5,1.5,0.5,2,0L126.1,99v28l-0.5,0.5c-11.6-4.8-24-7.3-36.6-7.5V96
	l14.2,14.2c0.6,0.6,1.6,0.5,2.1-0.1c0.5-0.6,0.5-1.5,0-2L89,91.7V79l14.2,14.2c0.6,0.6,1.6,0.5,2.1-0.1c0.5-0.6,0.5-1.5,0-2L89,74.8
	V63l11,11c0.6,0.6,1.5,0.6,2.1,0.1c0.6-0.6,0.6-1.5,0.1-2.1c0,0,0-0.1-0.1-0.1L88.6,58.3c-0.6-0.6-1.5-0.6-2.1,0L72.9,71.8
	c-0.5,0.7-0.4,1.6,0.2,2.1c0.5,0.4,1.3,0.4,1.8,0l11-11v11.9L69.7,91.1c-0.6,0.6-0.5,1.6,0.1,2.1c0.6,0.5,1.5,0.5,2,0L86,79v12.7
	l-16.3,16.3c-0.6,0.6-0.5,1.6,0.1,2.1c0.6,0.5,1.5,0.5,2,0L86,96v24c-12.5,0.2-25,2.7-36.6,7.4l-0.5-0.5V99l14.2,14.2
	c0.6,0.6,1.6,0.5,2.1-0.1c0.5-0.6,0.5-1.5,0-2L48.9,94.7V82l14.2,14.2c0.6,0.6,1.6,0.5,2.1-0.1c0.5-0.6,0.5-1.5,0-2L48.9,77.8V65.9
	l11,11c0.7,0.5,1.6,0.4,2.1-0.3c0.4-0.6,0.4-1.3,0-1.8L48.5,61.3c-0.6-0.6-1.5-0.6-2.1,0L34,73.6C39.7,51.8,58.1,35.6,80.4,32.7z
	 M32.3,87.5c0-3.5,0.3-6.9,1-10.3c0.6,0.3,1.3,0.2,1.7-0.3l11-11v11.9L32.4,91.3C32.3,90.1,32.3,88.8,32.3,87.5z M32.8,95.2L45.9,82
	v12.7l-10.7,10.7C34.1,102.1,33.3,98.7,32.8,95.2z M45.9,99v24.8c-4-4.6-7.2-9.7-9.5-15.3L45.9,99z M51.9,129.7
	c22.9-8.9,48.3-8.9,71.2,0C102.6,147.1,72.5,147.1,51.9,129.7z M129.1,123.8V99l9.5,9.5C136.3,114.1,133.1,119.3,129.1,123.8
	L129.1,123.8z"/>
</svg>
