<?xml version="1.0" encoding="utf-8"?>
<!-- Generator: Adobe Illustrator 26.0.2, SVG Export Plug-In . SVG Version: 6.00 Build 0)  -->
<svg version="1.1" id="Layer_1" xmlns="http://www.w3.org/2000/svg" xmlns:xlink="http://www.w3.org/1999/xlink" x="0px" y="0px"
	 viewBox="0 0 175 175" style="enable-background:new 0 0 175 175;" xml:space="preserve">
<style type="text/css">
	.st0{fill:#FF6D35;}
	.st1{fill:#336497;}
</style>
<g>
	<g>
		<path class="st0" d="M87.5,145.7c-32.1,0-58.3-26.1-58.3-58.3s26.1-58.2,58.3-58.2s58.2,26.1,58.2,58.2S119.6,145.7,87.5,145.7z
			 M87.5,32.2C57,32.2,32.2,57,32.2,87.5s24.8,55.3,55.3,55.3s55.2-24.8,55.2-55.3S117.9,32.2,87.5,32.2z"/>
	</g>
	<path class="st0" d="M131.8,80.3c-0.6-0.6-1.5-0.6-2.1,0l-3.8,3.8c-1.7-19.7-18.3-35.3-38.5-35.3c-21.3,0-38.6,17.3-38.6,38.6
		S66.1,126,87.4,126c11.3,0,22-4.9,29.4-13.6c0.5-0.6,0.5-1.6-0.2-2.1c-0.1-0.1-0.3-0.2-0.5-0.3c-0.6-0.2-1.2,0-1.7,0.4
		c-6.8,7.9-16.7,12.5-27.1,12.5c-19.7,0-35.6-16-35.6-35.6c0-19.7,16-35.6,35.6-35.6c18.7,0,34,14.4,35.5,32.7l-4.2-4.2
		c-0.6-0.6-1.5-0.6-2.1,0s-0.6,1.5,0,2.1l6.6,6.6c0.2,0.2,0.4,0.3,0.7,0.4c0.1,0,0.2,0,0.4,0c0.4,0,0.8-0.1,1.1-0.4l6.6-6.6
		C132.4,81.8,132.4,80.9,131.8,80.3z"/>
	<g>
		<g>
			<g>
				<path class="st0" d="M90.5,61.6c-1.2,0-2.2-1-2.2-2.2s1-2.2,2.2-2.2s2.2,1,2.2,2.2C92.6,60.6,91.7,61.6,90.5,61.6z"/>
			</g>
			<g>
				<path class="st0" d="M90.5,117.7c-1.2,0-2.2-1-2.2-2.2s1-2.2,2.2-2.2s2.2,1,2.2,2.2S91.7,117.7,90.5,117.7z"/>
			</g>
		</g>
	</g>
	<g>
		<g>
			<g>
				<path class="st0" d="M61.8,89.7c-1.2,0-2.2-1-2.2-2.2s1-2.2,2.2-2.2s2.2,1,2.2,2.2S63,89.7,61.8,89.7z"/>
			</g>
		</g>
	</g>
	<path class="st0" d="M90.8,91.1c-0.3,0-0.7-0.1-0.9-0.4l-9.1-8.8c-0.5-0.5-0.6-1.4,0-1.9c0.5-0.5,1.4-0.6,1.9,0l6.1,5.9l-3.4-20.1
		c-0.1-0.7,0.4-1.4,1.1-1.6c0.7-0.1,1.4,0.4,1.6,1.1l4.1,24.1c0.1,0.6-0.2,1.2-0.7,1.4C91.2,91,91,91.1,90.8,91.1z"/>
</g>
<g>
	<path class="st1" d="M392.6,31c-16.4,0-31.9,7.1-42.7,19.6h-6.1c-0.8,0-1.5,0.7-1.5,1.5v9.7c-4,7.9-6.2,16.8-6.2,25.7
		c0,2.7,0.2,5.3,0.6,7.9l-4.2,4.2c-0.6,0.6-0.6,1.5,0,2.1l8.2,8.2c8.9,20.6,29.2,33.9,51.7,33.9c31.1,0,56.4-25.3,56.4-56.4
		C448.9,56.3,423.6,31,392.6,31z M394.2,53.5c-1.7,1.2-3.5,2.7-5.1,4.4l0,0l-14.8,0.5c-0.4,0-0.7,0.2-1,0.4l-28,28V53.5H394.2z
		 M414.3,93.4c-2,0-3.9,0.5-5.5,1.4V67.1h13.9l3.1,13c0.1,0.3,0.3,0.6,0.5,0.8l8.3,6.6v14.1h-9.3C423.9,96.9,419.5,93.4,414.3,93.4z
		 M414.3,96.3c4.8,0,8.6,3.9,8.6,8.6c0,4.8-3.9,8.6-8.6,8.6c-4.8,0-8.6-3.9-8.6-8.6C405.7,100.2,409.5,96.3,414.3,96.3z M405.9,65.6
		v31.5c-1.2,1.3-2.1,2.8-2.6,4.5h-16.4L401.5,87c0.3-0.3,0.4-0.6,0.4-1l0.5-14.8c0-0.4-0.1-0.8-0.4-1.1l-3.2-3.2
		c1.9-5.9,2.2-11,2.3-13.5h4.9L405.9,65.6L405.9,65.6z M396.4,64.6l-5-5c2.1-2.3,4.8-4.1,6.6-5.2C398,56.7,397.6,60.5,396.4,64.6z
		 M339.1,87.4c0-6.3,1.1-12.6,3.3-18.5v20.8l-3,3C339.2,91,339.1,89.2,339.1,87.4z M374.9,61.3l13.6-0.4l6.9,6.9
		c-0.2,0.6-0.4,1.1-0.7,1.7c-0.8,1.8-1.7,3-2.5,3.7c-0.2-1.3-0.8-2.4-1.8-3.3c-2.5-2.5-6.5-2.5-9,0c-1.2,1.2-1.9,2.8-1.9,4.5
		s0.7,3.3,1.9,4.5c1.2,1.2,2.8,1.9,4.5,1.9s3.3-0.7,4.5-1.9c0.6-0.6,1.1-1.3,1.4-2.1c1.9-0.7,3.9-2.5,5.5-6.2
		c0.1-0.2,0.2-0.4,0.3-0.6l1.8,1.8L399,85.3l-39.3,39.3l-24.1-24.1L374.9,61.3z M387.7,71.4c0.2,0.1,0.5,0.3,0.7,0.5
		c0.6,0.6,0.9,1.4,1,2.2C388.5,73.7,387.8,72.8,387.7,71.4z M384.8,71.1c0,2.6,1.4,4.9,3.6,5.7l0,0c-1.3,1.3-3.6,1.3-4.9,0
		c-0.7-0.7-1-1.5-1-2.5c0-0.9,0.4-1.8,1-2.5C383.9,71.5,384.3,71.2,384.8,71.1z M392.6,140.8c-18.1,0-34.7-9.1-44.5-23.8l10.7,10.7
		c0.3,0.3,0.6,0.4,1,0.4s0.8-0.2,1-0.4l23.2-23.2h18.8c0,0.2,0,0.3,0,0.5c0,6.4,5.2,11.5,11.5,11.5c6.4,0,11.5-5.2,11.5-11.5
		c0-0.2,0-0.3,0-0.5H436c0.8,0,1.5-0.7,1.5-1.5V86.8c0-0.4-0.2-0.9-0.5-1.1l-8.5-6.7l-3.2-13.6c-0.2-0.7-0.7-1.1-1.4-1.1h-15V52
		c0-0.8-0.7-1.5-1.5-1.5h-53.5c10.1-10.6,24-16.7,38.8-16.7c29.5,0,53.5,24,53.5,53.5C446,116.9,422,140.8,392.6,140.8z"/>
	<g>
		<path class="st1" d="M355.7,109.5c-0.7-0.3-0.7-0.9-0.4-1.5l0.5-0.9c0.3-0.5,0.7-0.6,1.4-0.4c0.8,0.2,1.6-0.1,2.3-0.8
			c0.8-0.8,1-1.7,0.5-2.2c-0.4-0.4-0.9-0.5-1.9,0l-1.6,0.7c-1.1,0.6-3.7,1.7-5.5-0.1c-1.8-1.8-1.4-4.5,0.6-6.5
			c1.5-1.5,3.2-1.9,4.9-1.4c0.7,0.2,0.8,0.8,0.5,1.4l-0.5,0.8c-0.3,0.6-0.7,0.6-1.4,0.6c-0.5-0.1-1,0.1-1.5,0.6
			c-0.6,0.6-0.8,1.4-0.3,1.9c0.3,0.3,0.8,0.4,1.8,0l1.6-0.7c2.7-1.3,4.4-1.1,5.7,0.2c2,2,1.2,4.7-0.9,6.8
			C359.7,109.8,357.6,110.3,355.7,109.5z"/>
		<path class="st1" d="M364.9,102.6l-5.1-11.4c-0.2-0.5-0.1-1,0.3-1.5l1.1-1.1c0.4-0.4,0.9-0.5,1.4-0.3l11.5,5
			c0.7,0.3,0.8,0.9,0.3,1.4l-1.1,1.1c-0.4,0.4-0.9,0.5-1.4,0.3l-1.6-0.7l-3.3,3.3l0.7,1.5c0.3,0.5,0.2,1-0.2,1.4l-1.1,1.1
			C365.8,103.4,365.2,103.3,364.9,102.6z M367.8,94l-4.5-2.1l2.1,4.5L367.8,94z"/>
		<path class="st1" d="M373.5,77.9l0.7,0.7c0.5,0.5,0.5,1,0,1.5l-2,2l6.8,6.8c0.5,0.5,0.5,1,0,1.5l-1,1c-0.5,0.5-1,0.5-1.5,0
			l-6.8-6.8l-2,2c-0.5,0.5-1,0.5-1.5,0l-0.7-0.7c-0.5-0.5-0.5-1,0-1.5l6.5-6.5C372.5,77.4,373,77.4,373.5,77.9z"/>
	</g>
</g>
<g>
	<path class="st1" d="M527,30.8c-31.1,0-56.4,25.3-56.4,56.4s25.3,56.4,56.4,56.4s56.5-25.3,56.5-56.4S558.1,30.8,527,30.8z
		 M527,140.8c-29.5,0-53.5-24-53.5-53.5s24-53.5,53.5-53.5s53.5,24,53.5,53.5S556.5,140.8,527,140.8z"/>
	<path class="st1" d="M568.4,88.9L561,83l-2.8-11.9c-0.1-0.7-0.7-1.1-1.4-1.1h-13V59.6c0-0.8-0.7-1.5-1.5-1.5h-55.7
		c-0.8,0-1.5,0.7-1.5,1.5v44.8c0,0.8,0.7,1.5,1.5,1.5h4.9v0.2c0,5.7,4.6,10.3,10.3,10.3c5.7,0,10.3-4.6,10.3-10.3v-0.2h26v0.2
		c0,5.7,4.6,10.3,10.3,10.3s10.3-4.6,10.3-10.3v-0.2h8.8c0.8,0,1.5-0.7,1.5-1.5V90.1C568.9,89.6,568.7,89.2,568.4,88.9z M566,102.9
		h-7.8c-1.3-4.1-5.2-7.2-9.8-7.2c-1.7,0-3.2,0.4-4.6,1.1V73h11.8l2.7,11.3c0.1,0.3,0.2,0.6,0.5,0.8l7.2,5.7L566,102.9L566,102.9z
		 M555.8,106c0,4.1-3.3,7.4-7.4,7.4c-4.1,0-7.4-3.3-7.4-7.4c0-0.1,0-0.2,0-0.2c0-0.2,0-0.5,0.1-0.7c0-0.2,0.1-0.5,0.1-0.8
		c0.2-0.9,0.6-1.8,1.1-2.5c0.4-0.6,0.9-1.1,1.5-1.6c1.3-1,2.9-1.7,4.6-1.7c3,0,5.5,1.8,6.7,4.3c0.2,0.5,0.4,0.9,0.5,1.5
		c0.1,0.5,0.2,1,0.2,1.5C555.8,105.9,555.8,106,555.8,106z M509.2,106c0,4.1-3.3,7.4-7.4,7.4s-7.4-3.3-7.4-7.4c0-0.1,0-0.2,0-0.2
		c0-0.5,0.1-1,0.2-1.5s0.3-1,0.5-1.5c1.2-2.5,3.7-4.3,6.7-4.3s5.5,1.8,6.7,4.3c0.2,0.5,0.4,0.9,0.5,1.5c0.1,0.5,0.2,1,0.2,1.5
		C509.2,105.9,509.2,106,509.2,106z M501.8,95.7c-4.6,0-8.5,3-9.8,7.2h-4V61h52.8v10.5V99c-1,1.1-1.8,2.4-2.3,3.9h-26.9
		C510.3,98.8,506.4,95.7,501.8,95.7z"/>
</g>
<g>
	<path class="st1" d="M704.3,48.3v-3c0-2.3-1.9-4.2-4.2-4.2h-4.2c-9.5-6.7-20.7-10.2-32.4-10.2s-22.9,3.5-32.4,10.2h-4.2
		c-2.3,0-4.2,1.9-4.2,4.2v3c-10.1,10.6-15.6,24.4-15.6,39c0,31.1,25.3,56.4,56.5,56.4c31.1,0,56.4-25.3,56.4-56.4
		C719.9,72.6,714.4,58.8,704.3,48.3z M622.7,121.8c-7.9-9.3-12.7-21.4-12.7-34.6c0-12.8,4.5-25,12.7-34.6V121.8z M663.5,33.7
		c9.6,0,18.9,2.5,27,7.3h-54.1C644.6,36.2,653.9,33.7,663.5,33.7z M695.8,129.9c0,0-12.9,10.9-32.4,10.9
		c-19.4,0-31.9-10.6-31.9-10.6c-2.1-1.6-4.1-3.3-6-5.2l0,0V45.2c0-0.7,0.6-1.3,1.3-1.3H700c0.7,0,1.3,0.6,1.3,1.3V125l0,0
		C699.7,126.7,697.8,128.4,695.8,129.9z M704.3,52.6c8.2,9.7,12.7,21.8,12.7,34.6c0,13.2-4.8,25.3-12.7,34.6V52.6z"/>
	<g>
		<g>
			<path class="st1" d="M661.8,70h26.8c1.2,0,2.1-0.9,2.1-2.1s-0.9-2.1-2.1-2.1h-26.8c-1.2,0-2.1,0.9-2.1,2.1S660.7,70,661.8,70z"/>
			<path class="st1" d="M661.8,92.9h26.8c1.2,0,2.1-0.9,2.1-2.1s-0.9-2.1-2.1-2.1h-26.8c-1.2,0-2.1,0.9-2.1,2.1
				S660.7,92.9,661.8,92.9z"/>
			<path class="st1" d="M661.8,115.9h26.8c1.2,0,2.1-0.9,2.1-2.1s-0.9-2.1-2.1-2.1h-26.8c-1.2,0-2.1,0.9-2.1,2.1
				S660.7,115.9,661.8,115.9z"/>
			<path class="st1" d="M642.5,72.3c0.4,0.4,0.9,0.7,1.5,0.7l0,0c0.6,0,1.1-0.3,1.5-0.7L657,59.7c0.8-0.9,0.7-2.2-0.1-3
				c-0.9-0.8-2.2-0.7-3,0.1l-10,10.9l-3.1-3.3c-0.8-0.8-2.1-0.9-3-0.1c-0.8,0.8-0.9,2.1-0.1,3L642.5,72.3z"/>
			<path class="st1" d="M654,80.9l-10,10.9l-3.1-3.3c-0.8-0.8-2.1-0.9-3-0.1c-0.8,0.8-0.9,2.1-0.1,3l4.6,4.9
				c0.4,0.4,0.9,0.7,1.5,0.7l0,0c0.6,0,1.1-0.3,1.5-0.7l11.5-12.6c0.8-0.9,0.7-2.2-0.1-3C656.1,80,654.8,80,654,80.9z"/>
			<path class="st1" d="M654,104.8l-10,10.9l-3.1-3.3c-0.8-0.8-2.1-0.9-3-0.1c-0.8,0.8-0.9,2.1-0.1,3l4.6,4.9
				c0.4,0.4,0.9,0.7,1.5,0.7l0,0c0.6,0,1.1-0.3,1.5-0.7l11.5-12.6c0.8-0.9,0.7-2.2-0.1-3C656.1,103.9,654.8,104,654,104.8z"/>
		</g>
	</g>
</g>
</svg>
