<?xml version="1.0" encoding="utf-8"?>
<!-- Generator: Adobe Illustrator 21.1.0, SVG Export Plug-In . SVG Version: 6.00 Build 0)  -->
<svg version="1.1" id="Layer_1" xmlns="http://www.w3.org/2000/svg" xmlns:xlink="http://www.w3.org/1999/xlink" x="0px" y="0px"
	 viewBox="0 0 150 149.9" style="enable-background:new 0 0 150 149.9;" xml:space="preserve">
<g>
	<g>
		<path style="fill:#336497;" d="M117.3,34.3v-3.1c0-2.4-1.9-4.3-4.3-4.3h-4.3c-9.9-7-21.6-10.7-33.8-10.7
			c-12.1,0-23.8,3.7-33.7,10.7h-4.3c-2.4,0-4.3,1.9-4.3,4.3v3.1c-10.6,11-16.4,25.4-16.4,40.6c0,32.4,26.3,58.8,58.8,58.8
			s58.8-26.3,58.8-58.8C133.7,59.8,127.8,45.3,117.3,34.3z M130.7,74.9c0,13.7-5,26.3-13.2,36V38.9C125.9,49,130.7,61.6,130.7,74.9z
			 M74.8,19.2c10,0,19.7,2.6,28.2,7.7H46.7C55.3,21.8,64.9,19.2,74.8,19.2z M32.3,38.9V111c-8.2-9.7-13.2-22.3-13.2-36
			C19.1,61.6,23.8,49,32.3,38.9z M104.3,122.3c-8.6,5.4-18.7,8.5-29.5,8.5s-20.9-3.1-29.5-8.5l-3.8-2.6c-2.2-1.6-4.3-3.4-6.3-5.5
			l0,0v-83c0-0.7,0.6-1.3,1.3-1.3H113c0.7,0,1.3,0.6,1.3,1.3v83.1l0,0c-1.8,1.8-3.7,3.5-5.9,5L104.3,122.3z"/>
	</g>
	<g>
		<g>
			<g>
				<polyline style="fill:none;stroke:#336497;stroke-width:2;stroke-linecap:round;stroke-linejoin:round;" points="49.9,105.4 
					47.4,105.4 47.4,102.9 				"/>
				
					<line style="fill:none;stroke:#336497;stroke-width:2;stroke-linecap:round;stroke-linejoin:round;stroke-dasharray:4.6282,4.6282,4.6282,4.6282;" x1="47.4" y1="98.1" x2="47.4" y2="81.8"/>
				
					<line style="fill:none;stroke:#336497;stroke-width:2;stroke-linecap:round;stroke-linejoin:round;stroke-dasharray:4.6282,4.6282,4.6282,4.6282,4.6282,4.6282;" x1="47.4" y1="79.5" x2="47.4" y2="53.8"/>
				<polyline style="fill:none;stroke:#336497;stroke-width:2;stroke-linecap:round;stroke-linejoin:round;" points="47.4,51.5 
					47.4,49 49.9,49 				"/>
				
					<line style="fill:none;stroke:#336497;stroke-width:2;stroke-linecap:round;stroke-linejoin:round;stroke-dasharray:4.6282,4.6282,4.6282,4.6282;" x1="54.6" y1="49" x2="70.9" y2="49"/>
				
					<line style="fill:none;stroke:#336497;stroke-width:2;stroke-linecap:round;stroke-linejoin:round;stroke-dasharray:4.6282,4.6282,4.6282,4.6282,4.6282,4.6282;" x1="73.2" y1="49" x2="99" y2="49"/>
				<polyline style="fill:none;stroke:#336497;stroke-width:2;stroke-linecap:round;stroke-linejoin:round;" points="101.3,49 
					103.8,49 103.8,51.5 				"/>
				
					<line style="fill:none;stroke:#336497;stroke-width:2;stroke-linecap:round;stroke-linejoin:round;stroke-dasharray:4.6282,4.6282,4.6282,4.6282;" x1="103.8" y1="56.1" x2="103.8" y2="72.5"/>
				
					<line style="fill:none;stroke:#336497;stroke-width:2;stroke-linecap:round;stroke-linejoin:round;stroke-dasharray:4.6282,4.6282,4.6282,4.6282,4.6282,4.6282;" x1="103.8" y1="74.8" x2="103.8" y2="100.6"/>
				<polyline style="fill:none;stroke:#336497;stroke-width:2;stroke-linecap:round;stroke-linejoin:round;" points="103.8,102.9 
					103.8,105.4 101.3,105.4 				"/>
				
					<line style="fill:none;stroke:#336497;stroke-width:2;stroke-linecap:round;stroke-linejoin:round;stroke-dasharray:4.6282,4.6282,4.6282,4.6282;" x1="96.7" y1="105.4" x2="80.3" y2="105.4"/>
				
					<line style="fill:none;stroke:#336497;stroke-width:2;stroke-linecap:round;stroke-linejoin:round;stroke-dasharray:4.6282,4.6282,4.6282,4.6282,4.6282,4.6282;" x1="77.9" y1="105.4" x2="52.2" y2="105.4"/>
			</g>
		</g>
		<rect x="43.4" y="101.1" style="fill:#336497;" width="8" height="8"/>
		<rect x="99.8" y="101.1" style="fill:#336497;" width="8" height="8"/>
		<rect x="42.7" y="44.9" style="fill:#336497;" width="8" height="8"/>
		<rect x="99.1" y="44.9" style="fill:#336497;" width="8" height="8"/>
		<g>
			<g>
				<path style="fill:#336497;" d="M91.6,61v2c0,1.7-1,2.6-2.6,2.6h-8.8v28c0,1.7-0.9,2.6-2.6,2.6h-3.2c-1.7,0-2.6-0.9-2.6-2.6v-28
					h-8.6c-1.7,0-2.6-0.9-2.6-2.6v-2c0-1.7,0.9-2.6,2.6-2.6h25.7C90.6,58.5,91.6,59.4,91.6,61z"/>
			</g>
		</g>
	</g>
</g>
</svg>
