<?xml version="1.0" encoding="utf-8"?>
<!-- Generator: Adobe Illustrator 21.1.0, SVG Export Plug-In . SVG Version: 6.00 Build 0)  -->
<svg version="1.1" id="Layer_1" xmlns="http://www.w3.org/2000/svg" xmlns:xlink="http://www.w3.org/1999/xlink" x="0px" y="0px"
	 viewBox="0 0 296 39.8" style="enable-background:new 0 0 296 39.8;" xml:space="preserve">
<g>
	<path style="fill:#336497;" d="M113.7,6.9l0,1.6c0,1.1-0.6,1.8-1.7,1.8l-4.7,0.1l0.5,15.7c0,1.1-0.6,1.8-1.7,1.8l-2.3,0.1
		c-1.1,0-1.8-0.6-1.8-1.7l-0.5-15.7L97,10.7c-1.1,0-1.8-0.6-1.8-1.7l0-1.6c0-1.1,0.6-1.8,1.7-1.8l15.1-0.5
		C113.1,5.2,113.7,5.8,113.7,6.9z"/>
	<path style="fill:#336497;" d="M112.6,19.3c-0.1-4.8,3.8-8.8,9.3-8.9c5.5-0.1,9.5,3.7,9.6,8.5c0.1,4.8-3.8,8.8-9.3,8.9
		C116.7,27.9,112.7,24.1,112.6,19.3z M126.1,19.1c0-2.4-1.8-4.1-4.1-4c-2.3,0-4,1.8-3.9,4.2c0,2.3,1.8,4.1,4.1,4.1
		C124.4,23.2,126.1,21.4,126.1,19.1z"/>
	<path style="fill:#336497;" d="M134.2,32.7l-0.1-20.4c0-1.1,0.6-1.7,1.7-1.7l2.3,0c1.1,0,1.7,0.6,1.7,1.7l0,0.5
		c1-1.7,2.8-2.6,5-2.6c4.6,0,7.9,3.7,8,8.7c0,5-3.3,8.7-7.9,8.7c-2.2,0-4-0.9-5-2.6l0,7.7c0,1.1-0.6,1.7-1.7,1.7l-2.3,0
		C134.8,34.5,134.2,33.9,134.2,32.7z M147.1,18.9c0-2.3-1.4-4.2-3.6-4.2c-2.2,0-3.7,1.8-3.7,4.2c0,2.4,1.5,4.2,3.7,4.2
		C145.8,23.1,147.1,21.2,147.1,18.9z"/>
	<path style="fill:#336497;" d="M158.7,10.2c2-0.3,2.9,0.2,3.2,0.4c0.2-0.6,1.4-10.2,5.6-9.9c0.7,0,0.8,0.1,1.3,0.7
		c1.5,2.5-2.8,10.3-3.2,11c1.6,0.8,6.7,1.1,8.9-1.9c0.9-0.5,0.5,0.8,0.5,0.8c-1.6,3-8.8,3.3-9.7,2.3c-1,7.6-0.3,14.3,0.8,15.6
		c1.2,1.2,5.1,1.8,7.4-11.4c0,0,0.1-0.4,0.6-0.2c0.5,0.2,0.3,0.9,0.3,0.9c-3.5,19.8-11,11.6-11.8,9.9c-2.5-5.8-1-14.2-0.8-16.6
		c-0.9-0.3-1.4-0.6-2.6-0.7C157.4,11.2,158.7,10.2,158.7,10.2z M167.8,1.9c-0.8-0.6-1.3,0.8-1.3,0.8c-0.8,2.5-1,6.6-1.2,7.8
		C165.1,10.8,169.4,3.6,167.8,1.9z"/>
	<path style="fill:#336497;" d="M182.5,17.7c0,0,0.4,0,0.5,0.1c0.1,0.2,0.2,0.7,0.2,0.7c-1.3,9.1-4.6,12.6-8.4,11.5
		c-3.1-1-1.2-12.9-1.1-13.5c0.2-0.8,1.2-1.3,1.8-0.9c1.3,0.9,1.6,1.9,1.4,2.5c-0.5,2.8-0.8,5.5-1,8.4C175.6,30,180.2,31,182.5,17.7z
		 M177.7,11.9c-0.1,0.5-0.1,1.3-0.4,1.6c-0.2,0.2-2.2-0.2-2.2-0.5c-0.9-1.8,0.2-2.5,0.2-2.5C175.9,10.6,177.6,11.1,177.7,11.9z"/>
	<path style="fill:#336497;" d="M184.2,12.8c0.9-0.2,1.7,0.8,1.9,1.7c0.1,1.2,0.1,0.9-0.1,2.1c1.3-2.7,3.7-3.4,6.2-2
		c2.8,2,2.2,5.7,1.9,6.8c0.9-0.4,1.7-0.2,4-3c0,0,0.3-0.4,0.7,0c0.2,0.3-0.1,0.7-0.1,0.7c-2.1,2.8-4,3-4.9,3.3
		c-2.6,5.6-7.1,5.1-8.1,4.5c-0.1,0.4-0.1,0.8-0.1,0.8c1.7,1.5,3.1,5,2.4,7.9c-1.9,6.8-6.3,3.9-6.2,0.3c0.1-6.2,0.4-14.6,0.7-16.8
		C183,11.3,184.2,12.8,184.2,12.8z M185.5,28.8c-0.9,6.3-0.8,8.8-0.1,9.3c0,0,1.4-0.2,1.8-3.1C187.7,31.8,185.5,29.1,185.5,28.8z
		 M185.7,24.4c0.7-1.5,3.7-2.1,4.5-2.4c0.7-1.5,1-2.3,1.1-5c0.1-1.8-0.9-3.1-3.3-1.7c-0.9,0.8-1.7,1.4-2,3.4
		C186.1,19.6,185.7,23.8,185.7,24.4z M186.1,26.2c1.3,0,2.6-0.5,3.6-3C187.7,23.8,186,24.2,186.1,26.2z"/>
	<path style="fill:#336497;" d="M198.3,20.6c-2.4-6.2-0.9-7.7,0.6-8.5c2.9-1.6,4.5,1.7,1.9,5.7c0.6,1.6,2.7,5.4,3,5.8
		c0.3-0.1,3.3-1.1,5.7-4.8c0,0,0.3-0.3,0.6-0.1c0.4,0.2,0.1,0.7,0.1,0.7c-2,3.5-4.9,4.7-5.9,5.5c0.2,0.6,1,1.7,1,4.1
		c0.3,4.6-4.2,4.6-5.4,4.4c-2.1-0.4-6.6-3.2,0.5-7.8C200,24.2,198.6,21.6,198.3,20.6z M200.8,26.9c-5.7,2.8-2.5,5.3-0.2,5.5
		C203.6,32.8,201.5,28.9,200.8,26.9z M200.3,16.5c0.7-1.4,0.7-1.4,0.7-2.6c-0.2-1.6-0.9-1-1.2-0.7C199.1,14.5,200,15.7,200.3,16.5z"
		/>
</g>
</svg>
