<?xml version="1.0" encoding="utf-8"?>
<!-- Generator: Adobe Illustrator 21.1.0, SVG Export Plug-In . SVG Version: 6.00 Build 0)  -->
<svg version="1.1" id="Layer_1" xmlns="http://www.w3.org/2000/svg" xmlns:xlink="http://www.w3.org/1999/xlink" x="0px" y="0px"
	 viewBox="0 0 175 175" style="enable-background:new 0 0 175 175;" xml:space="preserve">
<style type="text/css">
	.st0{fill:#355E86;}
</style>
<title>Artboard 9</title>
<path class="st0" d="M79.6,90.4l-2,8.8c-0.2,0.8,0.3,1.6,1.1,1.8c0.4,0.1,0.8,0,1.1-0.2l7.7-4.7l7.7,4.7c0.7,0.4,1.6,0.2,2.1-0.5
	c0.2-0.3,0.3-0.7,0.2-1.1l-2-8.8l6.8-5.9c0.6-0.5,0.7-1.5,0.2-2.1c-0.3-0.3-0.6-0.5-1-0.5l-9-0.8L89,72.9c-0.3-0.8-1.2-1.1-2-0.8
	c-0.4,0.2-0.7,0.4-0.8,0.8l-3.5,8.3l-9,0.8c-0.8,0.1-1.4,0.8-1.4,1.6c0,0.4,0.2,0.8,0.5,1L79.6,90.4z M83.8,84.1
	c0.6,0,1-0.4,1.3-0.9l2.5-5.8l2.5,5.8c0.2,0.5,0.7,0.9,1.3,0.9l6.3,0.5l-4.8,4.1c-0.4,0.4-0.6,0.9-0.5,1.5l1.4,6.2l-5.4-3.3
	c-0.5-0.3-1.1-0.3-1.6,0l-5.4,3.3l1.4-6.2c0.1-0.5-0.1-1.1-0.5-1.5l-4.8-4.1L83.8,84.1z"/>
<path class="st0" d="M144.4,113.4l-4.5-0.4c14.1-28.9,2.1-63.8-26.9-77.8c-24.2-11.8-53.3-5.4-70.4,15.3l-1.2-2.9
	c-0.3-0.8-1.2-1.1-2-0.8c-0.4,0.2-0.7,0.4-0.8,0.8l-2.1,4.9L31.2,53c-0.8,0.1-1.4,0.8-1.4,1.6c0,0.4,0.2,0.8,0.5,1l4,3.5l-1.2,5.2
	c-0.1,0.5,0,1,0.4,1.3c-2.8,6.9-4.3,14.4-4.3,21.9c0,20.6,10.9,39.6,28.5,50.1l-4.9,16.3c-0.2,0.8,0.2,1.6,1,1.9
	c0.3,0.1,0.6,0.1,0.9,0l11.5-3.7l7.6,9.4c0.3,0.4,0.7,0.6,1.2,0.6h0.3c0.5-0.1,1-0.5,1.2-1l4.7-15.6c4.3,0.5,8.6,0.5,12.9,0
	l4.7,15.6c0.2,0.5,0.6,0.9,1.2,1h0.3c0.5,0,0.9-0.2,1.2-0.6l7.6-9.4l11.5,3.7c0.8,0.3,1.6-0.2,1.9-1c0.1-0.3,0.1-0.6,0-0.9
	l-4.9-16.4c4.7-2.8,9-6.2,12.7-10.2l3.7-2.2l5.8,3.5c0.7,0.4,1.6,0.2,2.1-0.5c0.2-0.3,0.3-0.7,0.2-1.1l-1.5-6.6l5.1-4.4
	c0.6-0.5,0.7-1.5,0.2-2.1C145.2,113.6,144.8,113.4,144.4,113.4L144.4,113.4z M37.7,55.4c0.6,0,1-0.4,1.3-0.9L40,52l1,2.5
	c0.2,0.5,0.7,0.9,1.3,0.9l2.7,0.2l-2,1.8c-0.4,0.4-0.6,0.9-0.5,1.5l0.6,2.6l-2.3-1.4c-0.5-0.3-1.1-0.3-1.5,0l-2.3,1.4l0.6-2.6
	c0.1-0.5-0.1-1.1-0.5-1.4l-2-1.8L37.7,55.4z M74.4,157.4l-6.4-8c-0.4-0.5-1-0.7-1.6-0.5l-9.8,3.1l10.3-34.3l1.2,0.4l-1,2.2
	c-0.3,0.8,0,1.6,0.8,2c0.2,0.1,0.4,0.1,0.6,0.1l9.7,0.1l-0.3,2.4c-0.1,0.8,0.5,1.6,1.3,1.7c0.2,0,0.4,0,0.6-0.1l4.3-1.3L74.4,157.4z
	 M52,81.1l10.4,1.2c-0.4,1.7-0.5,3.4-0.5,5.2c0,0,0,0,0,0.1l-7.5,1.6L52,81.1z M96.4,55.3h7.4l-4.2,9.6c-1.3-0.7-2.7-1.3-4.1-1.8
	L96.4,55.3z M105.3,59.6l8.2,2.8l-7.1,7.8c-1.2-1.3-2.6-2.6-4.1-3.6L105.3,59.6z M123,94.1l-10.4-1.3c0.3-1.6,0.5-3.2,0.6-4.8
	l7.7-1.4L123,94.1z M89.3,120.6l-8.2,2.4l1.2-10.4c1.7,0.4,3.5,0.5,5.2,0.5h0.2L89.3,120.6z M78.5,119.6l-7.7-0.1l4.3-9.6
	c1.4,0.8,2.8,1.4,4.3,1.9L78.5,119.6z M64.9,87.5C64.9,75,75,64.9,87.5,64.9s22.6,10.1,22.6,22.6s-10.1,22.6-22.6,22.6
	C75,110.1,64.9,100,64.9,87.5z M95.4,111.9l3.9,6.8l-6.4,4.6l-2.2-10.3C92.3,112.7,93.9,112.4,95.4,111.9L95.4,111.9z M98.3,110.8
	c1.5-0.7,2.9-1.5,4.3-2.5l5.8,5.2l-4.8,6.4L98.3,110.8z M104.9,106.3c1.2-1.1,2.3-2.3,3.2-3.6l7.1,3.3l-2.6,7.4L104.9,106.3z
	 M109.8,100.2c0.8-1.4,1.5-2.9,2-4.4l7.7,1l-0.2,7.8L109.8,100.2z M113,85c-0.2-1.6-0.5-3.1-0.9-4.7l6.9-3.7l4.3,6.4L113,85z
	 M111.1,77.5c-0.7-1.8-1.7-3.4-2.8-5l5.1-5.6l7,5.6L111.1,77.5z M92.6,62.4c-1.6-0.3-3.3-0.5-4.9-0.5l-1.5-7.6l7.7-2.3L92.6,62.4z
	 M84.6,62c-1.6,0.2-3.2,0.5-4.8,1L76,56.3l6.5-4.5L84.6,62z M77,64.1c-1.5,0.7-3,1.5-4.3,2.5L67,61.4l4.9-6.4L77,64.1z M70.3,68.5
	c-1.2,1.1-2.4,2.4-3.4,3.7l-7-3.2l2.7-7.6L70.3,68.5z M65.3,74.8c-0.8,1.5-1.5,3-2.1,4.6l-7.7-0.9l0.2-8.1L65.3,74.8z M62.1,90.6
	c0.2,1.8,0.6,3.5,1.2,5.2l-6.6,3.9l-4.9-6.9L62.1,90.6z M64.4,98.6c0.7,1.5,1.6,2.9,2.6,4.2l-5.2,5.8l-6.4-4.7L64.4,98.6z
	 M68.9,105.1c1.1,1.2,2.3,2.2,3.6,3.2l-3.2,7.2l-7.4-2.4L68.9,105.1z M82,142.5l5.5-18.2l0.2-0.1l5.5,18.3
	C89.4,142.8,85.7,142.8,82,142.5z M108.8,148.9c-0.6-0.2-1.2,0-1.6,0.5l-6.4,8l-9-30.2c0.1,0,0.1,0,0.2,0c0.3,0,0.6-0.1,0.9-0.3
	l8-5.7l1.2,2.1c0.3,0.4,0.7,0.7,1.2,0.8h0.1c0.5,0,0.9-0.2,1.2-0.6l3.9-5.2l10.1,33.7L108.8,148.9z M110.9,116l-0.1-0.3l1.5,1.4
	c0.6,0.6,1.6,0.5,2.1-0.1c0.1-0.2,0.2-0.3,0.3-0.5l3.2-9.3l2.2,1c0.8,0.3,1.6,0,2-0.7c0.1-0.2,0.1-0.4,0.1-0.6l0.2-9.8l2.4,0.3h0.2
	c0.8,0,1.5-0.7,1.5-1.5c0-0.1,0-0.3-0.1-0.4l-2.8-9.4l2.4-0.4c0.8-0.1,1.4-0.9,1.2-1.7c0-0.2-0.1-0.4-0.2-0.6l-5.4-8l2.1-1.1
	c0.7-0.4,1-1.3,0.6-2c-0.1-0.2-0.2-0.3-0.4-0.5l-8.6-6.9l1.8-2c0.6-0.6,0.5-1.6-0.1-2.1c-0.2-0.1-0.3-0.2-0.5-0.3l-10.1-3.5l1-2.4
	c0.3-0.8,0-1.6-0.8-2c-0.2-0.1-0.4-0.1-0.6-0.1h-9.3L97,50c0.1-0.8-0.5-1.6-1.3-1.7c-0.2,0-0.4,0-0.6,0.1l-9.6,2.9L85,48.9
	c-0.2-0.8-1-1.3-1.8-1.1c-0.2,0-0.4,0.1-0.5,0.2l-8.1,5.6l-1.2-2.1c-0.4-0.7-1.3-1-2-0.6c-0.2,0.1-0.3,0.2-0.5,0.4l-6.1,8L63,57.6
	c-0.6-0.6-1.6-0.5-2.1,0.1c-0.1,0.1-0.2,0.3-0.3,0.5l-3.4,9.5l-2.2-1c-0.7-0.4-1.6-0.1-2,0.7c-0.1,0.2-0.1,0.4-0.2,0.6l-0.2,10.1
	l-2.5-0.3c-0.5-0.1-1,0.1-1.3,0.5c-0.3,0.4-0.4,0.9-0.3,1.4l3,10L49,90.3c-0.8,0.2-1.3,1-1.1,1.8c0,0.2,0.1,0.4,0.2,0.5l6,8.6
	l-2.2,1.3c-0.7,0.4-0.9,1.3-0.5,2.1c0.1,0.2,0.2,0.3,0.4,0.4l8,5.8l-1.6,1.8c-0.6,0.6-0.5,1.6,0.1,2.1c0.2,0.1,0.3,0.2,0.5,0.3
	l5.2,1.7l-5.3,17.8c-16.4-10-26.4-27.9-26.4-47.1c0-7.8,1.6-15.5,4.8-22.6l2.9-1.7l4.6,2.8c0.7,0.4,1.6,0.2,2.1-0.5
	c0.2-0.3,0.3-0.7,0.2-1.1l-1.2-5.2l4-3.5c0.6-0.6,0.6-1.5,0.1-2.1c-0.2-0.3-0.6-0.4-0.9-0.5l-4.1-0.3c19.2-23.7,54-27.2,77.7-8
	c19.9,16.2,26,43.9,14.8,67l-2.1-5c-0.3-0.8-1.2-1.1-2-0.8c-0.4,0.2-0.7,0.4-0.8,0.8l-2.6,6.2l-6.7,0.6c-0.8,0.1-1.4,0.8-1.4,1.6
	c0,0.4,0.2,0.8,0.5,1l5.1,4.4l-1.5,6.5c0,0.2,0,0.3,0,0.5c-2.8,2.7-5.9,5.1-9.2,7.1L110.9,116z M137.5,118.7
	c-0.4,0.4-0.6,0.9-0.5,1.5l0.9,4l-3.5-2.1c-0.5-0.3-1.1-0.3-1.6,0l-3.5,2.1l0.9-4c0.1-0.5-0.1-1.1-0.5-1.5l-3.1-2.7l4.1-0.3
	c0.6,0,1-0.4,1.3-0.9l1.6-3.8l1.6,3.8c0.2,0.5,0.7,0.9,1.3,0.9l4.1,0.3L137.5,118.7z"/>
<path class="st0" d="M30.4,68.1c0.8,0,1.5-0.7,1.5-1.5s-0.7-1.5-1.5-1.5h-2.6v-2.6c0-0.8-0.7-1.5-1.5-1.5s-1.5,0.7-1.5,1.5v2.6h-2.6
	c-0.8,0-1.5,0.7-1.5,1.5s0.7,1.5,1.5,1.5h2.6v2.6c0,0.8,0.7,1.5,1.5,1.5s1.5-0.7,1.5-1.5v-2.6H30.4z"/>
<path class="st0" d="M134.1,135.8h-2.6v-2.6c0-0.8-0.7-1.5-1.5-1.5s-1.5,0.7-1.5,1.5v2.6h-2.6c-0.8,0-1.5,0.7-1.5,1.5
	s0.7,1.5,1.5,1.5h2.6v2.6c0,0.8,0.7,1.5,1.5,1.5s1.5-0.7,1.5-1.5v-2.6h2.6c0.8,0,1.5-0.7,1.5-1.5S134.9,135.8,134.1,135.8z"/>
<path class="st0" d="M127.1,40.5h2.6v2.6c0,0.8,0.7,1.5,1.5,1.5s1.5-0.7,1.5-1.5v-2.6h2.6c0.8,0,1.5-0.7,1.5-1.5s-0.7-1.5-1.5-1.5
	h-2.6v-2.6c0-0.8-0.7-1.5-1.5-1.5s-1.5,0.7-1.5,1.5v2.6h-2.6c-0.8,0-1.5,0.7-1.5,1.5S126.3,40.5,127.1,40.5
	C127.1,40.5,127.1,40.5,127.1,40.5z"/>
</svg>
