<?xml version="1.0" encoding="utf-8"?>
<!-- Generator: Adobe Illustrator 21.1.0, SVG Export Plug-In . SVG Version: 6.00 Build 0)  -->
<svg version="1.1" id="Layer_1" xmlns="http://www.w3.org/2000/svg" xmlns:xlink="http://www.w3.org/1999/xlink" x="0px" y="0px"
	 viewBox="0 0 150 149.9" style="enable-background:new 0 0 150 149.9;" xml:space="preserve">
<g>
	<path style="fill:#336497;" d="M133.6,68.5c-3.6-32.2-32.8-55.5-65-51.9c-14.8,1.6-28.4,8.8-38.1,20.2h-6.9c-0.8,0-1.5,0.7-1.5,1.5
		v11.4c-4.7,9.8-6.7,20.9-5.3,31.8c0.7,6.6,2.5,12.9,5.3,18.8v11.3c0,0.8,0.7,1.5,1.5,1.5h6.9c11.3,13.1,27.6,20.6,44.6,20.6
		c2.2,0,4.3-0.1,6.6-0.4c14.8-1.6,28.4-8.8,38.1-20.2h6.9c0.8,0,1.5-0.7,1.5-1.5v-11.2C133,90.5,134.8,79.4,133.6,68.5z M19.8,81.2
		c-0.9-8-0.1-15.9,2.3-23.4v34.4C21.1,88.7,20.3,84.9,19.8,81.2z M81.5,130.3c-17.6,1.9-34.7-4.4-46.7-17.2h81.1
		C106.8,122.9,94.7,128.9,81.5,130.3z M25.2,110.2V39.8h78.4v20.1c0,0.8,0.7,1.5,1.5,1.5h20.1v48.8H25.2z M106.7,41.9l16.5,16.5
		h-16.5V41.9z M128.3,92.2V59.9c0-0.1,0-0.2,0-0.3l0,0c0-0.1-0.1-0.3-0.1-0.4v-0.1c-0.1-0.1-0.1-0.2-0.2-0.3l-21.8-21.6l0,0
		c-0.1-0.1-0.2-0.1-0.3-0.2c0,0-0.1,0-0.1-0.1c-0.1,0-0.2-0.1-0.3-0.1c-0.1,0-0.1,0-0.2,0s-0.1,0-0.2,0H34.6
		c9.1-9.6,21.1-15.7,34.3-17.2c30.6-3.4,58.2,18.7,61.6,49.2C131.5,76.8,130.7,84.7,128.3,92.2z"/>
	<path style="fill:#336497;" d="M53.9,64.8H43.2c-0.8,0-1.5,0.7-1.5,1.5v10.7c0,0.8,0.7,1.5,1.5,1.5h10.7c0.8,0,1.5-0.7,1.5-1.5
		V66.4C55.4,65.6,54.8,64.8,53.9,64.8z M52.4,75.5h-7.7v-7.7h7.7V75.5z"/>
	<path style="fill:#336497;" d="M71.8,64.8H61c-0.8,0-1.5,0.7-1.5,1.5v10.7c0,0.8,0.7,1.5,1.5,1.5h10.7c0.8,0,1.5-0.7,1.5-1.5V66.4
		C73.3,65.6,72.6,64.8,71.8,64.8z M70.2,75.5h-7.7v-7.7h7.7V75.5z"/>
	<path style="fill:#336497;" d="M89.5,64.8H78.7c-0.8,0-1.5,0.7-1.5,1.5v10.7c0,0.8,0.7,1.5,1.5,1.5h10.7c0.8,0,1.5-0.7,1.5-1.5
		V66.4C91,65.6,90.3,64.8,89.5,64.8z M88,75.5h-7.7v-7.7H88V75.5z"/>
	<path style="fill:#336497;" d="M107.3,64.8H96.5c-0.8,0-1.5,0.7-1.5,1.5v10.7c0,0.8,0.7,1.5,1.5,1.5h10.8c0.8,0,1.5-0.7,1.5-1.5
		V66.4C108.8,65.6,108.1,64.8,107.3,64.8z M105.8,75.5h-7.7v-7.7h7.7V75.5z"/>
	<path style="fill:#336497;" d="M53.9,91.3c0-0.1-0.1-0.1-0.1-0.2v-0.2c0,0,0-0.1-0.1-0.1c-0.3-0.4-0.7-0.7-1.2-0.7
		c-0.4,0-0.8,0.1-1.1,0.3l0,0C51,90.7,50.5,91,49.6,91c-2.3,0-3.1-1.6-3.1-2.9s0.8-2.9,3.1-2.9c0.9,0,1.4,0.3,1.8,0.5
		c0.3,0.2,0.7,0.4,1.1,0.3c0.4,0,0.9-0.3,1.2-0.7c0-0.1,0.1-0.1,0.1-0.2l0.1-0.1c0.4-0.7,0.1-1.6-0.5-2c-1.1-0.8-2.3-1.2-3.7-1.2
		c-3.7,0-6.5,2.6-6.5,6.3c0,3.6,2.7,6.3,6.5,6.3c1.4,0,2.6-0.4,3.8-1.2l0,0C53.9,92.7,54.2,91.9,53.9,91.3z M51.6,85.5L51.6,85.5
		C51.6,85.5,51.7,85.5,51.6,85.5C51.7,85.5,51.6,85.5,51.6,85.5z"/>
	<path style="fill:#336497;" d="M72.4,83.4c-0.1-0.8-0.7-1.5-1.6-1.5h-0.4c-0.6,0-1.2,0.4-1.5,0.9l-2.6,5.7l-2.6-5.7
		c-0.2-0.6-0.8-1-1.5-1h-0.2c-0.8,0-1.5,0.6-1.6,1.5l-0.8,9v0.1c0,0.9,0.7,1.6,1.6,1.6h0.2c0.8,0,1.5-0.6,1.6-1.5l0.3-3l1.6,3.4
		c0.2,0.6,0.8,1,1.5,1h0.3c0.6,0,1.2-0.4,1.5-0.9l1.6-3.4l0.3,3c0.1,0.8,0.7,1.5,1.6,1.5h0.2c0.9,0,1.6-0.7,1.6-1.6v-0.1L72.4,83.4z
		"/>
	<path style="fill:#336497;" d="M87.6,82h-0.2c-0.4,0-0.9,0.2-1.2,0.5c-0.1,0.1-0.1,0.2-0.2,0.2l-1.9,2.9l-1.8-2.9
		c-0.1-0.1-0.1-0.2-0.2-0.3c-0.3-0.3-0.7-0.5-1.2-0.5h-0.2c-0.5,0-1,0.3-1.3,0.7c-0.3,0.5-0.3,1.2-0.1,1.6c0,0.1,0.1,0.1,0.1,0.1
		l3.1,4.8v3.3c0,0.9,0.7,1.6,1.6,1.6h0.2c0.9,0,1.6-0.7,1.6-1.6v-3.3l3.1-4.8l0.1-0.1c0.3-0.5,0.2-1.1-0.1-1.5
		C88.6,82.3,88.1,82,87.6,82z"/>
	<path style="fill:#336497;" d="M106.2,91.4c-0.2-0.3-0.6-0.6-0.9-0.7c-0.4-0.1-0.9,0-1.3,0.2c0,0-0.1,0-0.2,0.1
		c0,0-0.5-0.1-1.7-1.5l-0.8-0.9l3.3-3.9l0,0c0.4-0.4,0.5-1.1,0.3-1.6c-0.2-0.6-0.8-0.9-1.4-0.9h-0.2c-0.4,0-0.9,0.2-1.2,0.6l0,0
		l-1.4,1.7v-0.7c0-0.9-0.7-1.6-1.6-1.6h-0.2c-0.9,0-1.6,0.7-1.6,1.6v9c0,0.9,0.7,1.6,1.6,1.6H99c0.9,0,1.6-0.7,1.6-1.5
		c0.9,0.9,1.9,1.7,3.3,1.7c0.4,0,1.2-0.1,2-0.6C106.6,93.2,106.8,92.2,106.2,91.4L106.2,91.4z"/>
</g>
</svg>
