<?xml version="1.0" encoding="utf-8"?>
<!-- Generator: Adobe Illustrator 21.1.0, SVG Export Plug-In . SVG Version: 6.00 Build 0)  -->
<svg version="1.1" id="Layer_1" xmlns="http://www.w3.org/2000/svg" xmlns:xlink="http://www.w3.org/1999/xlink" x="0px" y="0px"
	 viewBox="0 0 175 175" style="enable-background:new 0 0 175 175;" xml:space="preserve">
<style type="text/css">
	.st0{fill:#355E86;}
</style>
<title>Artboard 21</title>
<path class="st0" d="M144.8,76.8c0.4-1.8,0.6-3.7,0.6-5.6c0-13.6-9.5-25.7-24.8-31.7C94,21.3,57.8,28,39.5,54.5
	c-1.2,1.8-2.4,3.7-3.4,5.6h-2.9c-0.8,0-1.5,0.7-1.5,1.5s0.7,1.5,1.5,1.5h1.4c-6.6,14.3-7.1,30.6-1.5,45.3c-0.2,1.2-0.3,2.5-0.3,3.7
	c0,7.1,3.8,13.8,10.4,18.5l-2.7,10.4c-0.2,0.8,0.3,1.6,1.1,1.8c0.4,0.1,0.8,0,1.1-0.1l12.5-6.7c26.7,17.9,62.9,10.7,80.8-16
	C144.4,107.3,147.6,91.8,144.8,76.8L144.8,76.8z M142.3,71.2c0,1.8-0.2,3.5-0.6,5.2v0.1c-1.4,6.4-5.1,12.2-10.9,16.9
	c-0.5,0.4-0.7,1.1-0.4,1.7l5.4,13.8l-19.8-7.4c-0.3-0.1-0.6-0.1-0.9,0c-4.6,1.3-9.4,2-14.2,1.9c-2.8,0-5.7-0.2-8.5-0.7
	c-4.4-8.8-15-15-27.4-15.4c-3.6-4.6-5.5-10.3-5.6-16.2c0-17.8,18.6-32.3,41.4-32.3c6.2,0,12.4,1.1,18.3,3.3l0.1,0
	C133.5,47.8,142.3,58.9,142.3,71.2z M32.2,87.5c0-8.5,2-16.8,5.8-24.4h3.2c0.8,0,1.5-0.7,1.5-1.5s-0.7-1.5-1.5-1.5h-1.6
	c13.8-24.1,43.3-34.2,69-23.6c-2.6-0.4-5.1-0.5-7.7-0.5c-24.5,0-44.4,15.8-44.4,35.3c0,5.8,1.8,11.4,5,16.2
	c-12.3,0.7-22.7,7.2-26.8,16.1C33,98.4,32.2,92.9,32.2,87.5z M44.2,138.4l2.1-8.1c0.2-0.6-0.1-1.3-0.6-1.6
	c-6.3-4.1-9.9-10.2-9.9-16.6c0-12,12.5-21.7,28-21.7c12.1,0,22.5,6,26.3,14.4v0.1c1,2.3,1.6,4.7,1.6,7.2c0,12-12.5,21.7-28,21.7
	c-2.8,0-5.5-0.3-8.2-1c-0.4-0.1-0.7,0-1.1,0.1L44.2,138.4z M87.5,142.7c-8.7,0-17.3-2-25.1-6c0.4,0,0.9,0,1.3,0
	c13.5,0,25-6.9,29.2-16.6h7.3c0.8,0,1.5-0.7,1.5-1.5s-0.7-1.5-1.5-1.5H94c1-3.7,0.9-7.5-0.2-11.1c2.4,0.3,4.8,0.5,7.1,0.4
	c4.9,0,9.8-0.6,14.5-1.9l21.3,8C127.3,131.1,108.3,142.7,87.5,142.7L87.5,142.7z M138.7,108.2l-5.1-13.1c3.8-3.2,6.9-7.2,9-11.7
	c0.1,1.4,0.2,2.7,0.2,4.1C142.8,94.6,141.4,101.6,138.7,108.2L138.7,108.2z"/>
<path class="st0" d="M43.6,78.1h2.6v2.6c0,0.8,0.7,1.5,1.5,1.5s1.5-0.7,1.5-1.5v-2.6h2.6c0.8,0,1.5-0.7,1.5-1.5s-0.7-1.5-1.5-1.5
	h-2.6v-2.6c0-0.8-0.7-1.5-1.5-1.5s-1.5,0.7-1.5,1.5v2.6h-2.6c-0.8,0-1.5,0.7-1.5,1.5S42.8,78.1,43.6,78.1z"/>
<path class="st0" d="M121.3,125.2h-4.4v-4.4c0-0.8-0.7-1.5-1.5-1.5s-1.5,0.7-1.5,1.5v4.4h-4.4c-0.8,0-1.5,0.7-1.5,1.5
	s0.7,1.5,1.5,1.5h4.4v4.4c0,0.8,0.7,1.5,1.5,1.5s1.5-0.7,1.5-1.5v-4.4h4.4c0.8,0,1.5-0.7,1.5-1.5S122.1,125.2,121.3,125.2z"/>
<path class="st0" d="M79.3,69.7l-3-0.3l-1.2-2.8c-0.1-0.3-0.4-0.4-0.7-0.3c-0.1,0.1-0.2,0.1-0.3,0.3L73,69.4l-3,0.3
	c-0.3,0-0.5,0.3-0.5,0.5c0,0.1,0.1,0.3,0.2,0.3l2.3,2l-0.7,3c-0.1,0.3,0.1,0.5,0.4,0.6c0.1,0,0.3,0,0.4-0.1l2.6-1.6l2.6,1.6
	c0.2,0.1,0.4,0.1,0.6,0c0.2-0.1,0.2-0.3,0.2-0.5l-0.7-3l2.3-2c0.2-0.2,0.2-0.5,0.1-0.7C79.6,69.8,79.5,69.7,79.3,69.7L79.3,69.7z"/>
<path class="st0" d="M92.4,69.7l-3-0.3l-1.2-2.8c-0.1-0.3-0.4-0.4-0.7-0.2c-0.1,0-0.2,0.1-0.2,0.2l-1.2,2.8l-3,0.3
	c-0.3,0-0.5,0.3-0.5,0.5c0,0.1,0.1,0.3,0.2,0.3l2.3,2l-0.7,3c-0.1,0.3,0.1,0.5,0.4,0.6c0.1,0,0.3,0,0.4-0.1l2.6-1.6l2.6,1.6
	c0.2,0.1,0.4,0.1,0.6,0c0.2-0.1,0.2-0.3,0.2-0.5l-0.7-3l2.3-2c0.2-0.2,0.2-0.5,0.1-0.7C92.7,69.8,92.6,69.7,92.4,69.7L92.4,69.7z"/>
<path class="st0" d="M105.6,69.7l-3-0.3l-1.2-2.8c-0.1-0.3-0.4-0.4-0.7-0.2c-0.1,0-0.2,0.1-0.2,0.2l-1.2,2.8l-3,0.3
	c-0.3,0-0.5,0.3-0.5,0.5c0,0.1,0.1,0.3,0.2,0.3l2.3,2l-0.7,3c-0.1,0.3,0.1,0.5,0.4,0.6c0,0,0.1,0,0.1,0c0.1,0,0.2,0,0.3-0.1l2.6-1.6
	l2.6,1.6c0.2,0.1,0.5,0.1,0.7-0.2c0.1-0.1,0.1-0.2,0.1-0.4l-0.7-3l2.3-2c0.2-0.2,0.2-0.5,0.1-0.7C105.9,69.7,105.8,69.7,105.6,69.7
	L105.6,69.7z"/>
<path class="st0" d="M118.7,69.7l-3-0.3l-1.2-2.8c-0.1-0.3-0.4-0.4-0.7-0.3c-0.1,0.1-0.2,0.1-0.3,0.3l-1.2,2.8l-3,0.3
	c-0.3,0-0.5,0.3-0.5,0.5c0,0.1,0.1,0.3,0.2,0.3l2.3,2l-0.7,3c-0.1,0.3,0.1,0.5,0.4,0.6c0.1,0,0.3,0,0.4-0.1l2.5-1.6l2.6,1.6
	c0.2,0.1,0.4,0.1,0.6,0c0.2-0.1,0.2-0.3,0.2-0.5l-0.7-3l2.3-2c0.2-0.2,0.2-0.5,0.1-0.7C118.9,69.7,118.8,69.7,118.7,69.7L118.7,69.7
	z"/>
<path class="st0" d="M124.5,72.5l-0.7,3c-0.1,0.3,0.1,0.5,0.4,0.6c0.1,0,0.3,0,0.4-0.1l2.6-1.6l2.6,1.6c0.2,0.1,0.4,0.1,0.6,0
	c0.2-0.1,0.2-0.3,0.2-0.5l-0.7-3l2.3-2c0.2-0.2,0.2-0.5,0.1-0.7c-0.1-0.1-0.2-0.2-0.3-0.2l-3-0.3l-1.2-2.8c-0.1-0.3-0.4-0.4-0.7-0.2
	c-0.1,0-0.2,0.1-0.2,0.2l-1.2,2.8l-3,0.3c-0.3,0-0.5,0.3-0.5,0.5c0,0.1,0.1,0.3,0.2,0.3L124.5,72.5z"/>
<path class="st0" d="M55.7,110.9c-0.1-0.2-0.2-0.3-0.4-0.3l-3-0.3l-1.3-2.8c-0.1-0.3-0.4-0.4-0.7-0.2c-0.1,0-0.2,0.1-0.2,0.2
	l-1.2,2.8l-3,0.3c-0.3,0-0.5,0.3-0.5,0.5c0,0.1,0.1,0.3,0.2,0.3l2.3,2l-0.7,3c-0.1,0.3,0.1,0.5,0.4,0.6c0.1,0,0.3,0,0.4-0.1l2.6-1.6
	l2.6,1.6c0.2,0.1,0.4,0.1,0.5,0c0.2-0.1,0.2-0.3,0.2-0.5l-0.7-3l2.3-2C55.7,111.3,55.8,111.1,55.7,110.9z"/>
<path class="st0" d="M61.1,113.4l-0.7,3c-0.1,0.3,0.1,0.5,0.4,0.6c0,0,0.1,0,0.1,0c0.1,0,0.2,0,0.3-0.1l2.6-1.6l2.6,1.6
	c0.2,0.1,0.5,0.1,0.7-0.2c0.1-0.1,0.1-0.2,0.1-0.4l-0.7-3l2.3-2c0.2-0.2,0.2-0.5,0.1-0.7c-0.1-0.1-0.2-0.2-0.3-0.2l-3-0.3l-1.2-2.8
	c-0.1-0.3-0.4-0.4-0.7-0.2c-0.1,0-0.2,0.1-0.2,0.2l-1.2,2.8l-3,0.3c-0.3,0-0.5,0.3-0.5,0.5c0,0.1,0.1,0.3,0.2,0.3L61.1,113.4z"/>
<path class="st0" d="M74.2,113.4l-0.7,3c-0.1,0.3,0.1,0.5,0.4,0.6c0.1,0,0.3,0,0.4-0.1l2.6-1.6l2.6,1.6c0.2,0.1,0.4,0.1,0.6,0
	c0.2-0.1,0.2-0.3,0.2-0.5l-0.7-3l2.3-2c0.2-0.2,0.2-0.5,0.1-0.7c-0.1-0.1-0.2-0.2-0.3-0.2l-3-0.3l-1.2-2.8c-0.1-0.3-0.4-0.4-0.7-0.3
	c-0.1,0.1-0.2,0.1-0.3,0.3l-1.2,2.8l-3,0.3c-0.3,0-0.5,0.3-0.5,0.5c0,0.1,0.1,0.3,0.2,0.3L74.2,113.4z"/>
</svg>
