<?xml version="1.0" encoding="utf-8"?>
<!-- Generator: Adobe Illustrator 21.1.0, SVG Export Plug-In . SVG Version: 6.00 Build 0)  -->
<svg version="1.1" id="Layer_1" xmlns="http://www.w3.org/2000/svg" xmlns:xlink="http://www.w3.org/1999/xlink" x="0px" y="0px"
	 viewBox="0 0 175 175" style="enable-background:new 0 0 175 175;" xml:space="preserve">
<g>
	<path style="fill:none;" d="M98.8,89.7l-6.1,5c-1.4,1.2-3.2,1.7-5,1.7s-3.5-0.6-5-1.7l-6.2-5l-46.7,37.6h115.6L98.8,89.7z"/>
	<polygon style="fill:none;" points="28.7,51.1 28.7,126.6 75.5,88.9 	"/>
	<path style="fill:none;" d="M77.6,88.9l6,4.8c2.4,1.9,5.9,1.9,8.3,0l5.9-4.8l1-0.8l46.7-37.6l-115.6,0L76.6,88L77.6,88.9z"/>
	<polygon style="fill:none;" points="99.8,88.9 146.6,126.6 146.6,51.2 	"/>
	<path style="fill:#355E86;" d="M147.9,50c0-0.1,0-0.3,0-0.4c-0.1-0.2-0.3-0.4-0.5-0.4c0,0,0,0-0.1,0c0,0,0,0-0.1,0h0c0,0,0,0,0,0
		s0,0,0,0l-119.2,0c0,0,0,0,0,0c0,0,0,0,0,0c-0.4,0-0.6,0.3-0.6,0.6V128c0,0,0,0,0,0c0,0,0,0,0,0c0,0,0,0.1,0,0.1c0,0,0,0,0,0
		c0,0,0,0.1,0,0.1c0,0,0,0,0,0c0,0,0,0.1,0.1,0.1c0,0,0,0,0,0c0,0,0,0,0,0c0,0,0.1,0.1,0.1,0.1c0,0,0,0,0,0c0,0,0.1,0,0.1,0.1
		c0,0,0,0,0,0c0,0,0.1,0,0.1,0c0,0,0,0,0,0c0,0,0.1,0,0.1,0c0,0,0,0,0,0c0,0,0,0,0.1,0h119.2c0.1,0,0.2,0,0.3-0.1c0,0,0,0,0,0
		c0,0,0.1,0,0.1-0.1c0,0,0,0,0,0c0,0,0,0,0.1-0.1c0,0,0,0,0,0c0,0,0,0,0,0c0,0,0,0,0,0c0,0,0,0,0-0.1c0,0,0,0,0,0c0,0,0-0.1,0-0.1
		c0,0,0,0,0,0c0,0,0-0.1,0-0.1c0,0,0,0,0,0V50z M28.7,51.1l46.8,37.7l-46.8,37.7V51.1z M76.6,89.7l6.2,5c1.4,1.2,3.2,1.7,5,1.7
		s3.5-0.6,5-1.7l6.1-5l46.6,37.6H29.9L76.6,89.7z M99.8,88.9l46.8-37.7v75.4L99.8,88.9z M145.5,50.5L98.8,88.1l-1,0.8l-5.9,4.8
		c-2.4,1.9-5.9,1.9-8.3,0l-6-4.8l-1-0.8L29.9,50.5L145.5,50.5z"/>
</g>
</svg>
