<?xml version="1.0" encoding="utf-8"?>
<!-- Generator: Adobe Illustrator 21.1.0, SVG Export Plug-In . SVG Version: 6.00 Build 0)  -->
<svg version="1.1" id="Layer_1" xmlns="http://www.w3.org/2000/svg" xmlns:xlink="http://www.w3.org/1999/xlink" x="0px" y="0px"
	 viewBox="0 0 480.8 30.2" style="enable-background:new 0 0 480.8 30.2;" xml:space="preserve">
<g>
	<path style="fill:#355F86;" d="M209.3,14.8c0.7,0.5,4,0.5,5-2.3c0,0,0.1-0.5,0.7-0.1c0.4,0.2,0.1,0.8,0.1,0.8
		c-1.6,3.8-5.7,2.9-6.1,2.8c-1.3,4.9-3.6,5.5-5.7,5.8c-2.7,0.2-3.6-3.4-3.8-5.1c-0.3-3.9,1.1-7.4,3.1-7.1c-0.2-2.1,1.2-2.6,1.7-2.9
		c1.3-0.7,3.9-0.1,4.8,2.5C209.6,10.8,210.1,12.3,209.3,14.8z M202.9,10c0,0.2,0.8,1.8,0.7,2.2c-0.2,1.3-0.5,7.2,1.4,7.7
		c1.1-0.2,2.2-1.8,3.2-4.3C206.9,15.4,204.2,13,202.9,10z M208.4,14.2c0.7-3.7-0.5-5.2-1.1-6c-0.8-1-2.7-1.7-2.9,0.6
		C204.5,10.6,206.6,13.4,208.4,14.2z"/>
	<path style="fill:#355F86;" d="M219.1,19.6c2.5,0,3.7-4.3,3.5-6.3c0.1-3.6,0.8-3.1,1.3-2.9c0.7,0.2,2.2,1.5,2.2,2.3
		C226,15,225.2,20,226.5,23c1.1,1.9,4.2-1.6,5.6-10.4c0,0,0.6-0.1,0.7,0.1c0.2,0.2,0.2,0.6,0.2,0.6c-2.2,12.5-6.6,11.5-7.1,11.4
		c-3.3-0.7-3.2-6.8-3.2-7c-1.9,4.2-5.4,4.1-6.5,2.8c-2.2-2.7-0.8-10.5-0.5-12.3c0.5-1.5,1.9-1.7,3.2-0.6c0.3,0.5,0.6,1,0.7,1.5
		C218.4,17.6,218.9,19.4,219.1,19.6z"/>
	<path style="fill:#355F86;" d="M247.8,12.6c0,0,0.2-0.4,0.7,0c0.4,0.2,0.2,0.8,0.2,0.8c-1.8,11.5-4.2,12.7-5.4,13.3
		c-2.1,1.1-4.2,0.1-4.8-1c-2-3.5-0.4-8.9,0.1-10.6c-2.4,0.8-4.5-0.1-5.4-1.2c-0.9-1.7-1.6-2.9-1.1-5c0.7-2,2.4-2.5,3.4-1.7
		c1.7,1.4-0.1,3.5-0.8,5.2c0.7,1.8,3.9,1.3,4.8,0.6c1.3-0.8,2.8-0.2,2.7,1.4c0,2.4-0.3,2.9-0.6,5.1c-0.8,5.8,0.8,5.9,0.8,5.9
		C245.7,26,247.8,12.6,247.8,12.6z M233.8,11.5c0.8-1.9,1.3-2.3,1.1-3.2c0,0-0.5-1-1.3,0C233,9.4,233.2,10.7,233.8,11.5z"/>
	<path style="fill:#355F86;" d="M264.2,20.8v0.5c0,1.1-0.6,1.7-1.7,1.7h-2.2c-1.1,0-1.7-0.6-1.7-1.7V2.2c0-1.1,0.6-1.7,1.7-1.7h2.2
		c1.1,0,1.7,0.6,1.7,1.7V9c1-1.6,2.8-2.5,4.9-2.5c4.4,0,7.7,3.6,7.7,8.4s-3.3,8.4-7.7,8.4C267,23.3,265.2,22.4,264.2,20.8z
		 M271.2,14.9c0-2.3-1.3-4.1-3.5-4.1s-3.6,1.8-3.6,4.1s1.4,4.1,3.6,4.1C269.9,18.9,271.2,17.1,271.2,14.9z"/>
	<path style="fill:#355F86;" d="M279.9,2.7c0-1.5,1.1-2.7,3.2-2.7s3.2,1.2,3.2,2.7s-1.2,2.7-3.2,2.7C281.1,5.3,279.9,4.2,279.9,2.7z
		 M280.3,21.2V8.5c0-1.1,0.6-1.7,1.7-1.7h2.2c1.1,0,1.7,0.6,1.7,1.7v12.8c0,1.1-0.6,1.7-1.7,1.7H282
		C280.9,22.9,280.3,22.3,280.3,21.2z"/>
	<path style="fill:#355F86;" d="M290.3,21.2V8.5c0-1.1,0.6-1.7,1.7-1.7h2.2c1.1,0,1.7,0.6,1.7,1.7v0.6c0.8-1.6,2.4-2.6,4.7-2.6
		c4.7,0,5.7,3.9,5.7,7.1v7.7c0,1.1-0.6,1.7-1.7,1.7h-2.2c-1.1,0-1.7-0.6-1.7-1.7V14c0-1.7-0.6-3.1-2.2-3.1s-2.6,1.4-2.6,3.5v6.9
		c0,1.1-0.6,1.7-1.7,1.7H292C290.9,22.9,290.3,22.3,290.3,21.2z"/>
	<path style="fill:#355F86;" d="M309.6,14.9c0-4.8,3.3-8.4,7.7-8.4c2.1,0,3.8,0.9,4.9,2.5V2.2c0-1.1,0.6-1.7,1.7-1.7h2.2
		c1.1,0,1.7,0.6,1.7,1.7v19.1c0,1.1-0.6,1.7-1.7,1.7h-2.2c-1.1,0-1.7-0.6-1.7-1.7v-0.5c-1,1.6-2.8,2.5-4.9,2.5
		C312.9,23.3,309.6,19.7,309.6,14.9z M322.3,14.9c0-2.3-1.4-4.1-3.6-4.1s-3.5,1.8-3.5,4.1s1.3,4.1,3.5,4.1S322.2,17.1,322.3,14.9z"
		/>
	<path style="fill:#355F86;" d="M331.7,2.7c0-1.5,1.1-2.7,3.2-2.7s3.2,1.2,3.2,2.7s-1.2,2.7-3.2,2.7C332.9,5.3,331.7,4.2,331.7,2.7z
		 M332.1,21.2V8.5c0-1.1,0.6-1.7,1.7-1.7h2.2c1.1,0,1.7,0.6,1.7,1.7v12.8c0,1.1-0.6,1.7-1.7,1.7h-2.2
		C332.7,22.9,332.1,22.3,332.1,21.2z"/>
	<path style="fill:#355F86;" d="M342.2,21.2V8.5c0-1.1,0.6-1.7,1.7-1.7h2.2c1.1,0,1.7,0.6,1.7,1.7v0.6c0.8-1.6,2.4-2.6,4.7-2.6
		c4.7,0,5.7,3.9,5.7,7.1v7.7c0,1.1-0.6,1.7-1.7,1.7h-2.2c-1.1,0-1.7-0.6-1.7-1.7V14c0-1.7-0.6-3.1-2.2-3.1s-2.6,1.4-2.6,3.5v6.9
		c0,1.1-0.6,1.7-1.7,1.7h-2.2C342.7,22.9,342.2,22.3,342.2,21.2z"/>
	<path style="fill:#355F86;" d="M363.9,28.9c-1-0.4-1.2-1.3-0.7-2.3l0.5-0.8c0.5-0.9,1.3-1.1,2.2-0.7c1.1,0.6,2.4,0.9,3.7,0.9
		c2.5,0,4.4-1.3,4.4-4.4v-0.8c-1,1.6-2.9,2.5-5,2.5c-4.4,0-7.6-3.8-7.6-8.4s3.2-8.4,7.6-8.4c2.1,0,3.9,0.9,4.9,2.5V8.2
		c0-1,0.6-1.5,1.7-1.5h2.1c1.1,0,1.7,0.6,1.7,1.7v12.8c0,6.5-4.1,8.9-9.2,8.9C367.9,30.2,365.7,29.7,363.9,28.9z M374,14.9
		c0-2.3-1.4-4.1-3.5-4.1c-2.2,0-3.6,1.9-3.6,4.1s1.4,4.1,3.6,4.1C372.6,19,374,17.1,374,14.9z"/>
	<path style="fill:#355F86;" d="M393,17.5v-6.6h-1.5c-0.6,0-0.9-0.3-0.9-0.9V7.7c0-0.6,0.3-0.9,0.9-0.9h2l0.6-3
		c0.1-0.7,0.6-1.1,1.3-1.1h2c0.8,0,1.2,0.4,1.2,1.1v2.9h3.3c0.6,0,0.9,0.3,0.9,0.9V10c0,0.6-0.3,0.9-0.9,0.9h-3.3v6.7
		c0,1,0.5,1.3,1,1.3c0.7,0,1.1-0.7,1.1-1.4c0-0.2,0-0.3,0-0.5c-0.1-0.6,0.1-0.9,0.7-0.9h2.1c0.5,0,0.8,0.2,1,0.7
		c0.2,0.4,0.2,0.9,0.2,1.2c0,4-2.8,5.3-5.7,5.3S393,22,393,17.5z"/>
	<path style="fill:#355F86;" d="M409.1,27.9l2.7-6.3L406,8.7c-0.5-1.1,0-2,1.3-2h2.5c1,0,1.6,0.4,1.9,1.4l2.8,7.8l2.9-7.8
		c0.3-0.9,1-1.3,1.9-1.3h2.4c1.2,0,1.8,0.8,1.3,2l-8.7,19.8c-0.4,0.9-1,1.3-2,1.3h-1.9C409.1,29.9,408.6,29.1,409.1,27.9z"/>
	<path style="fill:#355F86;" d="M426.6,28.2V8.5c0-1.1,0.6-1.7,1.7-1.7h2.2c1.1,0,1.7,0.6,1.7,1.7V9c1-1.6,2.8-2.5,4.9-2.5
		c4.4,0,7.7,3.6,7.7,8.4s-3.3,8.4-7.7,8.4c-2.1,0-3.9-0.9-4.9-2.5v7.4c0,1.1-0.6,1.7-1.7,1.7h-2.2C427.2,29.9,426.6,29.3,426.6,28.2
		z M439.1,14.9c0-2.3-1.3-4.1-3.5-4.1s-3.6,1.8-3.6,4.1s1.4,4.1,3.6,4.1S439.1,17.1,439.1,14.9z"/>
	<path style="fill:#355F86;" d="M447.2,14.9c0-4.5,3.3-8.5,8.9-8.5c4.8,0,8.6,2.9,8.7,8.1c0,1-0.7,1.4-1.7,1.4h-10.7
		c0,1.4,1.6,3.1,4.6,3.1c0.9,0,2-0.2,3.2-0.8c0.9-0.5,1.7-0.4,2.3,0.4l0.4,0.6c0.7,0.8,0.6,1.8-0.3,2.4c-1.8,1.2-4,1.7-6,1.7
		C450.7,23.3,447.2,19.5,447.2,14.9z M459.8,13.1c-0.2-1.9-2-2.6-3.6-2.6s-3.3,0.8-3.6,2.6H459.8z"/>
	<path style="fill:#355F86;" d="M467.6,19.9c-0.5-1,0.1-1.8,1.2-2l1.1-0.2c1-0.2,1.3,0.2,2.1,1c0.5,0.5,1.3,0.7,2.1,0.7
		c1.1,0,1.8-0.4,1.8-1.1c0-0.5-0.3-0.8-1.3-1.1l-1.9-0.7c-1.3-0.4-4.8-1.5-4.8-4.8c0-3.1,2.7-5.2,6.3-5.2c2.1,0,4,0.7,5.2,2.4
		c0.7,1,0.2,1.9-0.9,2.2l-1,0.3c-0.9,0.2-1.4-0.1-2-0.6c-0.4-0.3-0.9-0.5-1.3-0.5c-0.8,0-1.3,0.5-1.3,1.1s0.5,0.8,1.3,1.1l1.9,0.7
		c3.4,1.2,4.8,2.9,4.8,5c0,3.5-3.1,5.1-6.7,5.1C471,23.3,468.7,22.2,467.6,19.9z"/>
	<path style="fill:#355F86;" d="M106.3,13.1l-1.9-0.7c-0.8-0.2-1.3-0.5-1.3-1.1s0.5-1.1,1.3-1.1c0.5,0,1,0.1,1.3,0.5
		c0.7,0.5,1.1,0.8,2,0.6l1-0.3c1.1-0.3,1.6-1.2,0.9-2.2c-1.2-1.7-3.1-2.4-5.2-2.4c-3.6,0-6.3,2.1-6.3,5.2c0,3.3,3.5,4.4,4.8,4.8
		l1.9,0.7c1,0.3,1.3,0.7,1.3,1.1c0,0.7-0.7,1.1-1.8,1.1c-0.9,0-1.6-0.2-2.1-0.7c-0.7-0.7-1.1-1.2-2.1-1L99,17.9
		c-1.1,0.3-1.6,1-1.2,2c1.1,2.2,3.4,3.3,6.5,3.3c3.6,0,6.7-1.6,6.7-5.1C111,16,109.6,14.3,106.3,13.1z M107,9.2
		c0.2-0.4,0.7-0.6,1.1-0.5c0.4,0.2,0.6,0.7,0.5,1.1c-0.2,0.4-0.7,0.6-1.1,0.5S106.8,9.6,107,9.2z M104.5,8.3
		c0.2-0.4,0.7-0.6,1.1-0.5c0.4,0.2,0.6,0.7,0.5,1.1c-0.2,0.4-0.7,0.6-1.1,0.5C104.5,9.2,104.3,8.7,104.5,8.3z M101.8,8.7
		c0.2-0.4,0.7-0.6,1.1-0.5s0.6,0.7,0.5,1.1s-0.7,0.6-1.1,0.5S101.6,9.1,101.8,8.7z M100.4,11.6c-0.4-0.2-0.6-0.7-0.5-1.1
		c0.2-0.4,0.7-0.6,1.1-0.5c0.4,0.2,0.6,0.7,0.5,1.1C101.4,11.6,100.9,11.8,100.4,11.6z M103,13.7c-0.2,0.4-0.7,0.6-1.1,0.5
		s-0.6-0.7-0.5-1.1s0.7-0.6,1.1-0.5S103.2,13.3,103,13.7z M105.7,15c-0.2,0.4-0.7,0.6-1.1,0.5c-0.4-0.2-0.6-0.7-0.5-1.1
		c0.2-0.4,0.7-0.6,1.1-0.5C105.7,14,105.9,14.5,105.7,15z M100.6,19.6c-0.3,0.4-0.8,0.5-1.2,0.3s-0.5-0.8-0.3-1.2
		c0.3-0.4,0.8-0.5,1.2-0.3C100.8,18.7,100.9,19.2,100.6,19.6z M102.6,20.9c-0.3,0.4-0.8,0.5-1.2,0.3c-0.4-0.3-0.5-0.8-0.3-1.2
		c0.3-0.4,0.8-0.5,1.2-0.3C102.7,20,102.8,20.5,102.6,20.9z M104.9,22c-0.3,0.4-0.8,0.5-1.2,0.3c-0.4-0.3-0.5-0.8-0.3-1.2
		c0.3-0.4,0.8-0.5,1.2-0.3C105,21,105.1,21.6,104.9,22z M106.4,15.9c0.2-0.4,0.7-0.6,1.1-0.5c0.4,0.2,0.6,0.7,0.5,1.1
		c-0.2,0.4-0.7,0.6-1.1,0.5C106.4,16.9,106.2,16.4,106.4,15.9z M107.6,21.2c-0.2,0.4-0.7,0.6-1.1,0.5c-0.4-0.2-0.6-0.7-0.5-1.1
		c0.2-0.4,0.7-0.6,1.1-0.5C107.5,20.3,107.7,20.8,107.6,21.2z M109.4,18.8c-0.2,0.4-0.7,0.6-1.1,0.5s-0.6-0.7-0.5-1.1
		s0.7-0.6,1.1-0.5S109.6,18.4,109.4,18.8z"/>
	<path style="fill:#355F86;" d="M145.5,6.8h-2.2c-1.1,0-1.7,0.6-1.7,1.7V9c-1-1.6-2.8-2.5-4.9-2.5c-4.4,0-7.7,3.6-7.7,8.4
		s3.3,8.4,7.7,8.4c2.1,0,3.9-0.9,4.9-2.5v0.5c0,1.1,0.6,1.7,1.7,1.7h2.2c1.1,0,1.7-0.6,1.7-1.7V8.5C147.2,7.4,146.6,6.8,145.5,6.8z
		 M138.1,9c0.1-0.5,0.6-0.8,1-0.7c0.5,0.1,0.8,0.6,0.7,1c-0.1,0.5-0.6,0.8-1,0.7C138.3,9.9,138,9.4,138.1,9z M135.3,8.6
		c0.1-0.5,0.6-0.8,1-0.7c0.5,0.1,0.8,0.6,0.7,1c-0.1,0.5-0.6,0.8-1,0.7C135.5,9.5,135.2,9.1,135.3,8.6z M132.4,9.8
		c0.1-0.5,0.6-0.8,1-0.7c0.5,0.1,0.8,0.6,0.7,1c-0.1,0.5-0.6,0.8-1,0.7C132.6,10.8,132.3,10.3,132.4,9.8z M130.9,12.4
		c0.1-0.5,0.6-0.8,1-0.7c0.5,0.1,0.8,0.6,0.7,1c-0.1,0.5-0.6,0.8-1,0.7C131.1,13.3,130.8,12.9,130.9,12.4z M130.7,15.3
		c0.1-0.5,0.6-0.8,1-0.7c0.5,0.1,0.8,0.6,0.7,1c-0.1,0.5-0.6,0.8-1,0.7C130.9,16.2,130.6,15.7,130.7,15.3z M131.9,18.9
		c-0.5-0.1-0.8-0.6-0.7-1c0.1-0.5,0.6-0.8,1-0.7c0.5,0.1,0.8,0.6,0.7,1C132.8,18.7,132.3,19,131.9,18.9z M134.5,20.6
		c-0.1,0.5-0.6,0.8-1,0.7c-0.5-0.1-0.8-0.6-0.7-1s0.6-0.8,1-0.7C134.3,19.7,134.6,20.1,134.5,20.6z M137,21.5
		c-0.1,0.5-0.6,0.8-1,0.7c-0.5-0.1-0.8-0.6-0.7-1c0.1-0.5,0.6-0.8,1-0.7C136.8,20.5,137.1,21,137,21.5z M139.8,21.1
		c-0.1,0.5-0.6,0.8-1,0.7c-0.5-0.1-0.8-0.6-0.7-1c0.1-0.5,0.6-0.8,1-0.7C139.6,20.1,139.9,20.6,139.8,21.1z M138.2,18.9
		c-2.2,0-3.5-1.8-3.5-4.1s1.3-4.1,3.5-4.1s3.5,1.8,3.5,4.1S140.3,18.9,138.2,18.9z M142.5,19.5c-0.1,0.5-0.6,0.8-1,0.7
		c-0.5-0.1-0.8-0.6-0.7-1c0.1-0.5,0.6-0.8,1-0.7C142.3,18.5,142.6,19,142.5,19.5z M142.5,10.8c-0.1,0.5-0.6,0.8-1,0.7
		c-0.5-0.1-0.8-0.6-0.7-1c0.1-0.5,0.6-0.8,1-0.7C142.3,9.9,142.6,10.3,142.5,10.8z M145.3,20.6c-0.1,0.5-0.6,0.8-1,0.7
		c-0.5-0.1-0.8-0.6-0.7-1c0.1-0.5,0.6-0.8,1-0.7C145.1,19.7,145.4,20.1,145.3,20.6z M145.3,17.7c-0.1,0.5-0.6,0.8-1,0.7
		c-0.5-0.1-0.8-0.6-0.7-1c0.1-0.5,0.6-0.8,1-0.7C145.1,16.8,145.4,17.2,145.3,17.7z M145.3,14.8c-0.1,0.5-0.6,0.8-1,0.7
		c-0.5-0.1-0.8-0.6-0.7-1c0.1-0.5,0.6-0.8,1-0.7C145.1,13.9,145.4,14.3,145.3,14.8z M145.3,11.9c-0.1,0.5-0.6,0.8-1,0.7
		c-0.5-0.1-0.8-0.6-0.7-1c0.1-0.5,0.6-0.8,1-0.7C145.1,11,145.4,11.4,145.3,11.9z M145.3,9c-0.1,0.5-0.6,0.8-1,0.7
		c-0.5-0.1-0.8-0.6-0.7-1c0.1-0.5,0.6-0.8,1-0.7C145.1,8.1,145.4,8.5,145.3,9z"/>
	<path style="fill:#355F86;" d="M126.9,16.7c-0.1-0.5-0.5-0.7-1-0.7h-2.1c-0.6,0-0.8,0.3-0.7,0.9c0,0.2,0,0.4,0,0.5
		c0,0.7-0.4,1.4-1.1,1.4c-0.6,0-1-0.4-1-1.3v-6.7h3.3c0.6,0,0.9-0.3,0.9-0.9V7.7c0-0.6-0.3-0.9-0.9-0.9H121v-3
		c0-0.7-0.4-1.1-1.2-1.1h-2c-0.7,0-1.2,0.3-1.3,1.1l-0.6,3h-2c-0.6,0-0.9,0.3-0.9,0.9V10c0,0.6,0.3,0.9,0.9,0.9h1.5v6.6
		c0,4.6,3.1,5.8,5.9,5.8c2.9,0,5.7-1.3,5.7-5.3C127,17.6,127,17.2,126.9,16.7z M121.2,8.6c0.1-0.5,0.6-0.8,1-0.7
		c0.5,0.1,0.8,0.6,0.7,1c-0.1,0.5-0.6,0.8-1,0.7C121.4,9.5,121.1,9.1,121.2,8.6z M116.4,9c-0.1,0.5-0.6,0.8-1,0.7
		c-0.5-0.1-0.8-0.6-0.7-1c0.1-0.5,0.6-0.8,1-0.7C116.2,8.1,116.5,8.5,116.4,9z M117.7,4.3c0.1-0.5,0.6-0.8,1-0.7
		c0.5,0.1,0.8,0.6,0.7,1c-0.1,0.5-0.6,0.8-1,0.7C117.9,5.2,117.6,4.8,117.7,4.3z M117.7,7.2c0.1-0.5,0.6-0.8,1-0.7
		c0.5,0.1,0.8,0.6,0.7,1c-0.1,0.5-0.6,0.8-1,0.7C117.9,8.1,117.6,7.6,117.7,7.2z M117.7,10c0.1-0.5,0.6-0.8,1-0.7
		c0.5,0.1,0.8,0.6,0.7,1c-0.1,0.5-0.6,0.8-1,0.7C117.9,11,117.6,10.5,117.7,10z M117.7,12.9c0.1-0.5,0.6-0.8,1-0.7
		c0.5,0.1,0.8,0.6,0.7,1c-0.1,0.5-0.6,0.8-1,0.7C117.9,13.8,117.6,13.4,117.7,12.9z M117.7,15.8c0.1-0.5,0.6-0.8,1-0.7
		c0.5,0.1,0.8,0.6,0.7,1c-0.1,0.5-0.6,0.8-1,0.7C117.9,16.7,117.6,16.2,117.7,15.8z M118.4,19.7c-0.5-0.1-0.8-0.6-0.7-1
		c0.1-0.5,0.6-0.8,1-0.7c0.5,0.1,0.8,0.6,0.7,1C119.3,19.5,118.9,19.8,118.4,19.7z M121.1,21.7c-0.1,0.5-0.6,0.8-1,0.7
		s-0.8-0.6-0.7-1c0.1-0.5,0.6-0.8,1-0.7C120.9,20.8,121.2,21.2,121.1,21.7z M123.5,21.5c-0.4,0.3-0.9,0.3-1.2-0.1
		c-0.3-0.4-0.3-0.9,0.1-1.2c0.4-0.3,0.9-0.3,1.2,0.1C123.9,20.6,123.9,21.2,123.5,21.5z M125.4,19.6c-0.4,0.3-0.9,0.3-1.2-0.1
		c-0.3-0.4-0.3-0.9,0.1-1.2c0.4-0.3,0.9-0.3,1.2,0.1C125.8,18.7,125.8,19.3,125.4,19.6z"/>
	<path style="fill:#355F86;" d="M94.7,6.5c-0.1,0-0.4,0-0.5,0c-1.1,0-3.6,0.7-4.1,3.8V8.5c0-1.1-0.6-1.7-1.7-1.7h-2
		c-1.1,0-1.7,0.6-1.7,1.7v12.8c0,1.1,0.6,1.7,1.7,1.7h2.2c1.1,0,1.7-0.6,1.7-1.7v-5.1c0-2.9,1.1-4.4,3.4-4.4c0.2,0,0.5,0,0.7,0
		c0.7,0.1,1.2-0.3,1.2-1.2V7.8C95.6,7.2,95.5,6.5,94.7,6.5z M88.3,21.2c-0.1,0.5-0.6,0.8-1,0.7c-0.5-0.1-0.8-0.6-0.7-1
		c0.1-0.5,0.6-0.8,1-0.7C88.1,20.3,88.4,20.8,88.3,21.2z M88.3,18.2c-0.1,0.5-0.6,0.8-1,0.7c-0.5-0.1-0.8-0.6-0.7-1
		c0.1-0.5,0.6-0.8,1-0.7C88.1,17.3,88.4,17.8,88.3,18.2z M88.3,15.2c-0.1,0.5-0.6,0.8-1,0.7c-0.5-0.1-0.8-0.6-0.7-1
		c0.1-0.5,0.6-0.8,1-0.7C88.1,14.3,88.4,14.7,88.3,15.2z M88.3,12.2c-0.1,0.5-0.6,0.8-1,0.7c-0.5-0.1-0.8-0.6-0.7-1s0.6-0.8,1-0.7
		C88.1,11.3,88.4,11.7,88.3,12.2z M88.3,9.2c-0.1,0.5-0.6,0.8-1,0.7c-0.5-0.1-0.8-0.6-0.7-1c0.1-0.5,0.6-0.8,1-0.7
		C88.1,8.2,88.4,8.7,88.3,9.2z M91.5,11.9c-0.1,0.5-0.6,0.8-1,0.7c-0.5-0.1-0.8-0.6-0.7-1s0.6-0.8,1-0.7
		C91.3,11,91.6,11.4,91.5,11.9z M93.9,10.2c-0.3,0.4-0.8,0.5-1.2,0.3c-0.4-0.3-0.5-0.8-0.3-1.2c0.3-0.4,0.8-0.5,1.2-0.3
		C94.1,9.3,94.2,9.8,93.9,10.2z"/>
	<path style="fill:#355F86;" d="M81.3,14.5c-0.1-5.1-3.9-8.1-8.7-8.1c-5.6,0-8.9,4-8.9,8.5c0,4.6,3.5,8.3,9.4,8.3c2,0,4.2-0.5,6-1.7
		c1-0.7,1-1.6,0.3-2.4L79,18.5c-0.6-0.8-1.4-0.9-2.3-0.4c-1.1,0.6-2.3,0.8-3.2,0.8c-2.9,0-4.6-1.7-4.6-3.1h10.7
		C80.7,15.9,81.4,15.5,81.3,14.5z M78.1,19.2c0.5,0.1,0.8,0.5,0.7,1c-0.1,0.5-0.5,0.8-1,0.7c-0.5-0.1-0.8-0.5-0.7-1
		C77.2,19.4,77.6,19.1,78.1,19.2z M74.2,8.4C74.5,8.1,75,8,75.4,8.3s0.4,0.8,0.1,1.2s-0.8,0.4-1.2,0.1C74,9.4,73.9,8.8,74.2,8.4z
		 M71.6,8.3c0.3-0.4,0.8-0.4,1.2-0.1c0.4,0.3,0.4,0.8,0.1,1.2s-0.8,0.4-1.2,0.1C71.3,9.2,71.3,8.6,71.6,8.3z M67.9,10.6
		c0.5,0.1,0.8,0.5,0.7,1c-0.1,0.5-0.5,0.8-1,0.7s-0.8-0.5-0.7-1C66.9,10.9,67.4,10.6,67.9,10.6z M66.6,13c0.5,0.1,0.8,0.5,0.7,1
		c-0.1,0.5-0.5,0.8-1,0.7s-0.8-0.5-0.7-1C65.7,13.2,66.2,12.9,66.6,13z M66.4,17.5c-0.5-0.1-0.8-0.5-0.7-1c0.1-0.5,0.5-0.8,1-0.7
		s0.8,0.5,0.7,1C67.3,17.2,66.8,17.6,66.4,17.5z M75.9,20c0.5,0.1,0.8,0.5,0.7,1c-0.1,0.5-0.5,0.8-1,0.7c-0.5-0.1-0.8-0.5-0.7-1
		C75,20.3,75.4,19.9,75.9,20z M73.2,20.2c0.5,0.1,0.8,0.5,0.7,1c-0.1,0.5-0.5,0.8-1,0.7c-0.5-0.1-0.8-0.5-0.7-1
		C72.3,20.5,72.8,20.2,73.2,20.2z M70.4,19.4c0.5,0.1,0.8,0.5,0.7,1c-0.1,0.5-0.5,0.8-1,0.7c-0.5-0.1-0.8-0.5-0.7-1
		C69.5,19.6,70,19.3,70.4,19.4z M69,19.1c-0.1,0.5-0.5,0.8-1,0.7c-0.5-0.1-0.8-0.5-0.7-1c0.1-0.5,0.5-0.8,1-0.7
		C68.8,18.2,69.1,18.6,69,19.1z M69,9.1c0.3-0.4,0.8-0.4,1.2-0.1s0.4,0.8,0.1,1.2s-0.8,0.4-1.2,0.1S68.7,9.5,69,9.1z M72.7,10.5
		c1.6,0,3.3,0.7,3.6,2.6H69C69.3,11.3,71.1,10.5,72.7,10.5z M70.9,14.8c-0.1,0.5-0.6,0.8-1,0.7c-0.5-0.1-0.8-0.6-0.7-1
		c0.1-0.5,0.6-0.8,1-0.7C70.7,13.9,71,14.3,70.9,14.8z M73.9,14.8c-0.1,0.5-0.6,0.8-1,0.7c-0.5-0.1-0.8-0.6-0.7-1
		c0.1-0.5,0.6-0.8,1-0.7C73.8,13.9,74.1,14.3,73.9,14.8z M77.1,14.8c-0.1,0.5-0.6,0.8-1,0.7c-0.5-0.1-0.8-0.6-0.7-1
		c0.1-0.5,0.6-0.8,1-0.7C76.9,13.9,77.2,14.3,77.1,14.8z M76.4,11c-0.4-0.3-0.4-0.8-0.1-1.2s0.8-0.4,1.2-0.1
		c0.4,0.3,0.4,0.8,0.1,1.2C77.3,11.3,76.7,11.3,76.4,11z M77.7,12.1c0.1-0.5,0.6-0.8,1-0.7c0.5,0.1,0.8,0.6,0.7,1
		c-0.1,0.5-0.6,0.8-1,0.7C77.9,13,77.6,12.5,77.7,12.1z M79.2,15.4c-0.5-0.1-0.8-0.6-0.7-1s0.6-0.8,1-0.7c0.5,0.1,0.8,0.6,0.7,1
		C80.1,15.3,79.7,15.6,79.2,15.4z"/>
	<path style="fill:#355F86;" d="M58.6,0.5h-2.2c-1.1,0-1.7,0.6-1.7,1.7V9c-1-1.6-2.8-2.5-4.9-2.5c-4.4,0-7.7,3.6-7.7,8.4
		s3.3,8.4,7.7,8.4c2.1,0,3.8-0.9,4.9-2.5v0.5c0,1.1,0.6,1.7,1.7,1.7h2.2c1.1,0,1.7-0.6,1.7-1.7V2.2C60.2,1.1,59.6,0.5,58.6,0.5z
		 M53,8.8c0.5,0.1,0.8,0.5,0.7,1s-0.5,0.8-1,0.7s-0.8-0.5-0.7-1C52.1,9.1,52.6,8.7,53,8.8z M50,8.1c0.5,0.1,0.8,0.5,0.7,1
		s-0.5,0.8-1,0.7s-0.8-0.5-0.7-1C49.1,8.4,49.5,8,50,8.1z M47.4,8.8c0.5,0.1,0.8,0.5,0.7,1s-0.5,0.8-1,0.7s-0.8-0.5-0.7-1
		C46.5,9.1,47,8.7,47.4,8.8z M45.8,11.1c0.5,0.1,0.8,0.5,0.7,1s-0.5,0.8-1,0.7s-0.8-0.5-0.7-1C44.9,11.4,45.3,11.1,45.8,11.1z
		 M43.9,14.8c0.1-0.5,0.5-0.8,1-0.7s0.8,0.5,0.7,1s-0.5,0.8-1,0.7C44.2,15.7,43.9,15.2,43.9,14.8z M45.5,18.8
		c-0.5-0.1-0.8-0.5-0.7-1s0.5-0.8,1-0.7c0.5,0.1,0.8,0.5,0.7,1C46.5,18.6,46,18.9,45.5,18.8z M47.2,20.9c-0.5-0.1-0.8-0.5-0.7-1
		s0.5-0.8,1-0.7c0.5,0.1,0.8,0.5,0.7,1C48.1,20.6,47.6,21,47.2,20.9z M49.7,21.7c-0.5-0.1-0.8-0.5-0.7-1s0.5-0.8,1-0.7
		s0.8,0.5,0.7,1C50.7,21.5,50.2,21.8,49.7,21.7z M52.8,21.1c-0.5-0.1-0.8-0.5-0.7-1s0.5-0.8,1-0.7c0.5,0.1,0.8,0.5,0.7,1
		C53.7,20.8,53.2,21.2,52.8,21.1z M51.2,18.9c-2.2,0-3.5-1.8-3.5-4.1s1.3-4.1,3.5-4.1s3.5,1.8,3.6,4.1
		C54.7,17.1,53.4,18.9,51.2,18.9z M55,19.8c-0.5-0.1-0.8-0.5-0.7-1s0.5-0.8,1-0.7c0.5,0.1,0.8,0.5,0.7,1C56,19.6,55.5,19.9,55,19.8z
		 M55,12.3c-0.5-0.1-0.8-0.5-0.7-1s0.5-0.8,1-0.7s0.8,0.5,0.7,1C56,12,55.5,12.3,55,12.3z M57.3,21.9c-0.5-0.1-0.8-0.5-0.7-1
		s0.5-0.8,1-0.7c0.5,0.1,0.8,0.5,0.7,1S57.8,22,57.3,21.9z M57.3,19.3c-0.5-0.1-0.8-0.5-0.7-1s0.5-0.8,1-0.7c0.5,0.1,0.8,0.5,0.7,1
		C58.3,19,57.8,19.4,57.3,19.3z M57.3,16.6c-0.5-0.1-0.8-0.5-0.7-1s0.5-0.8,1-0.7s0.8,0.5,0.7,1C58.3,16.4,57.8,16.7,57.3,16.6z
		 M57.3,14c-0.5-0.1-0.8-0.5-0.7-1s0.5-0.8,1-0.7s0.8,0.5,0.7,1S57.8,14,57.3,14z M57.3,11.3c-0.5-0.1-0.8-0.5-0.7-1s0.5-0.8,1-0.7
		s0.8,0.5,0.7,1C58.3,11.1,57.8,11.4,57.3,11.3z M57.3,8.6c-0.5-0.1-0.8-0.5-0.7-1s0.5-0.8,1-0.7c0.5,0.1,0.8,0.5,0.7,1
		C58.3,8.4,57.8,8.7,57.3,8.6z M57.3,6c-0.5-0.1-0.8-0.5-0.7-1s0.5-0.8,1-0.7c0.5,0.1,0.8,0.5,0.7,1C58.3,5.7,57.8,6.1,57.3,6z
		 M57.3,3.3c-0.5-0.1-0.8-0.5-0.7-1s0.5-0.8,1-0.7c0.5,0.1,0.8,0.5,0.7,1C58.3,3.1,57.8,3.4,57.3,3.3z"/>
	<path style="fill:#355F86;" d="M33,6.4c-2.3,0-3.8,1-4.7,2.6V8.5c0-1.1-0.6-1.7-1.7-1.7h-2.2c-1.1,0-1.7,0.6-1.7,1.7v12.8
		c0,1.1,0.6,1.7,1.7,1.7h2.2c1.1,0,1.7-0.6,1.7-1.7v-6.9c0-2.1,1-3.5,2.6-3.5s2.2,1.4,2.2,3.1v7.2c0,1.1,0.6,1.7,1.7,1.7H37
		c1.1,0,1.7-0.6,1.7-1.7v-7.7C38.8,10.3,37.7,6.4,33,6.4z M25.3,22.6c-0.5-0.1-0.8-0.5-0.7-1c0.1-0.5,0.5-0.8,1-0.7
		c0.5,0.1,0.8,0.5,0.7,1C26.3,22.3,25.8,22.6,25.3,22.6z M25.3,20c-0.5-0.1-0.8-0.5-0.7-1c0.1-0.5,0.5-0.8,1-0.7
		c0.5,0.1,0.8,0.5,0.7,1C26.3,19.7,25.8,20.1,25.3,20z M25.3,17.4c-0.5-0.1-0.8-0.5-0.7-1c0.1-0.5,0.5-0.8,1-0.7s0.8,0.5,0.7,1
		C26.3,17.2,25.8,17.5,25.3,17.4z M25.3,14.8c-0.5-0.1-0.8-0.5-0.7-1c0.1-0.5,0.5-0.8,1-0.7s0.8,0.5,0.7,1
		C26.3,14.6,25.8,14.9,25.3,14.8z M25.3,12.3c-0.5-0.1-0.8-0.5-0.7-1c0.1-0.5,0.5-0.8,1-0.7s0.8,0.5,0.7,1
		C26.3,12,25.8,12.3,25.3,12.3z M25.3,9.5c-0.5-0.1-0.8-0.5-0.7-1c0.1-0.5,0.5-0.8,1-0.7s0.8,0.5,0.7,1C26.3,9.3,25.8,9.6,25.3,9.5z
		 M28.1,11.5c-0.5-0.1-0.8-0.5-0.7-1c0.1-0.5,0.5-0.8,1-0.7s0.8,0.5,0.7,1C29,11.3,28.6,11.6,28.1,11.5z M30.6,10.2
		c-0.5-0.1-0.8-0.5-0.7-1c0.1-0.5,0.5-0.8,1-0.7s0.8,0.5,0.7,1C31.5,9.9,31.1,10.2,30.6,10.2z M33.1,9.5c-0.5-0.1-0.8-0.5-0.7-1
		s0.5-0.8,1-0.7s0.8,0.5,0.7,1C34.1,9.3,33.6,9.6,33.1,9.5z M34.9,10.3c0.1-0.5,0.5-0.8,1-0.7s0.8,0.5,0.7,1s-0.5,0.8-1,0.7
		C35.2,11.2,34.8,10.8,34.9,10.3z M36,21.7c-0.5-0.1-0.8-0.5-0.7-1s0.5-0.8,1-0.7c0.5,0.1,0.8,0.5,0.7,1S36.5,21.8,36,21.7z
		 M36,19.1c-0.5-0.1-0.8-0.5-0.7-1s0.5-0.8,1-0.7c0.5,0.1,0.8,0.5,0.7,1S36.5,19.2,36,19.1z M36,16.3c-0.5-0.1-0.8-0.5-0.7-1
		s0.5-0.8,1-0.7s0.8,0.5,0.7,1C36.9,16.1,36.5,16.4,36,16.3z M36,13.8c-0.5-0.1-0.8-0.5-0.7-1s0.5-0.8,1-0.7s0.8,0.5,0.7,1
		S36.5,13.9,36,13.8z"/>
	<path style="fill:#355F86;" d="M16.7,1.2h-2.3c-1.1,0-1.7,0.6-1.7,1.7v11.7c0,2.4-1.6,3.7-3.5,3.7S5.7,17,5.7,14.6V2.9
		c0-1.1-0.6-1.7-1.7-1.7H1.7C0.6,1.2,0,1.8,0,2.9v11.7c0,5.6,4.2,8.7,9.2,8.7s9.2-3,9.2-8.7V2.9C18.4,1.8,17.8,1.2,16.7,1.2z
		 M2.6,3.2c0.5-0.1,0.9,0.2,1,0.7s-0.2,0.9-0.7,1S2,4.7,1.9,4.2C1.9,3.8,2.2,3.3,2.6,3.2z M2.6,6c0.5-0.1,0.9,0.2,1,0.7
		s-0.2,0.9-0.7,1C2.4,7.7,2,7.4,1.9,7C1.9,6.5,2.2,6,2.6,6z M2.6,8.7c0.5-0.1,0.9,0.2,1,0.7s-0.2,0.9-0.7,1s-0.9-0.2-1-0.7
		C1.9,9.2,2.2,8.7,2.6,8.7z M2.6,11.4c0.5-0.1,0.9,0.2,1,0.7s-0.2,0.9-0.7,1s-0.9-0.2-1-0.7C1.9,11.9,2.2,11.5,2.6,11.4z M1.9,15.1
		c-0.1-0.5,0.2-0.9,0.7-1s0.9,0.2,1,0.7s-0.2,0.9-0.7,1C2.4,15.9,2,15.6,1.9,15.1z M3.7,18.3c-0.5,0.1-0.9-0.2-1-0.7
		c-0.1-0.5,0.2-0.9,0.7-1s0.9,0.2,1,0.7C4.5,17.7,4.2,18.2,3.7,18.3z M5.6,20.2c-0.5,0.1-0.9-0.2-1-0.7s0.2-0.9,0.7-1s0.9,0.2,1,0.7
		C6.4,19.7,6,20.2,5.6,20.2z M8.2,21.1c-0.5,0.1-0.9-0.2-1-0.7s0.2-0.9,0.7-1s0.9,0.2,1,0.7S8.7,21,8.2,21.1z M10.5,21.1
		c-0.5-0.1-0.8-0.5-0.7-1s0.5-0.8,1-0.7c0.5,0.1,0.8,0.5,0.7,1C11.4,20.8,11,21.2,10.5,21.1z M13.2,20.2c-0.5-0.1-0.8-0.5-0.7-1
		s0.5-0.8,1-0.7c0.5,0.1,0.8,0.5,0.7,1C14.1,20,13.7,20.3,13.2,20.2z M15,18.3c-0.5-0.1-0.8-0.5-0.7-1s0.5-0.8,1-0.7
		c0.5,0.1,0.8,0.5,0.7,1S15.5,18.3,15,18.3z M15.8,15.8c-0.5-0.1-0.8-0.5-0.7-1s0.5-0.8,1-0.7s0.8,0.5,0.7,1
		C16.8,15.6,16.3,15.9,15.8,15.8z M15.8,13.1c-0.5-0.1-0.8-0.5-0.7-1s0.5-0.8,1-0.7s0.8,0.5,0.7,1C16.8,12.9,16.3,13.2,15.8,13.1z
		 M15.8,10.4c-0.5-0.1-0.8-0.5-0.7-1s0.5-0.8,1-0.7s0.8,0.5,0.7,1C16.8,10.1,16.3,10.5,15.8,10.4z M15.8,7.7c-0.5-0.1-0.8-0.5-0.7-1
		s0.5-0.8,1-0.7c0.5,0.1,0.8,0.5,0.7,1C16.8,7.4,16.3,7.7,15.8,7.7z M15.8,5c-0.5-0.1-0.8-0.5-0.7-1s0.5-0.8,1-0.7s0.8,0.5,0.7,1
		C16.8,4.7,16.3,5,15.8,5z"/>
	<path style="fill:#355F86;" d="M161.9,6.4c-2.3,0-3.8,1-4.7,2.6V8.5c0-1.1-0.6-1.7-1.7-1.7h-2.2c-1.1,0-1.7,0.6-1.7,1.7v12.8
		c0,1.1,0.6,1.7,1.7,1.7h2.2c1.1,0,1.7-0.6,1.7-1.7v-6.9c0-2.1,1-3.5,2.6-3.5s2.2,1.4,2.2,3.1v7.2c0,1.1,0.6,1.7,1.7,1.7h2.2
		c1.1,0,1.7-0.6,1.7-1.7v-7.7C167.6,10.3,166.5,6.4,161.9,6.4z M154.1,22.5c-0.5-0.1-0.8-0.5-0.7-1s0.5-0.8,1-0.7
		c0.5,0.1,0.8,0.5,0.7,1C155.1,22.3,154.6,22.6,154.1,22.5z M154.1,19.9c-0.5-0.1-0.8-0.5-0.7-1s0.5-0.8,1-0.7
		c0.5,0.1,0.8,0.5,0.7,1C155.1,19.7,154.6,20,154.1,19.9z M154.1,17.4c-0.5-0.1-0.8-0.5-0.7-1s0.5-0.8,1-0.7s0.8,0.5,0.7,1
		C155.1,17.1,154.6,17.4,154.1,17.4z M154.1,14.8c-0.5-0.1-0.8-0.5-0.7-1s0.5-0.8,1-0.7s0.8,0.5,0.7,1
		C155.1,14.5,154.6,14.9,154.1,14.8z M154.1,12.2c-0.5-0.1-0.8-0.5-0.7-1s0.5-0.8,1-0.7s0.8,0.5,0.7,1
		C155.1,12,154.6,12.3,154.1,12.2z M154.1,9.5c-0.5-0.1-0.8-0.5-0.7-1s0.5-0.8,1-0.7c0.5,0.1,0.8,0.5,0.7,1
		C155.1,9.2,154.6,9.6,154.1,9.5z M156.9,11.5c-0.5-0.1-0.8-0.5-0.7-1s0.5-0.8,1-0.7s0.8,0.5,0.7,1
		C157.8,11.2,157.4,11.6,156.9,11.5z M159.4,10.1c-0.5-0.1-0.8-0.5-0.7-1s0.5-0.8,1-0.7s0.8,0.5,0.7,1
		C160.3,9.9,159.9,10.2,159.4,10.1z M161.9,9.5c-0.5-0.1-0.8-0.5-0.7-1s0.5-0.8,1-0.7c0.5,0.1,0.8,0.5,0.7,1
		C162.9,9.2,162.4,9.6,161.9,9.5z M163.7,10.3c0.1-0.5,0.5-0.8,1-0.7s0.8,0.5,0.7,1s-0.5,0.8-1,0.7C164,11.2,163.6,10.7,163.7,10.3z
		 M164.8,21.7c-0.5-0.1-0.8-0.5-0.7-1s0.5-0.8,1-0.7c0.5,0.1,0.8,0.5,0.7,1C165.7,21.4,165.3,21.8,164.8,21.7z M164.8,19.1
		c-0.5-0.1-0.8-0.5-0.7-1s0.5-0.8,1-0.7c0.5,0.1,0.8,0.5,0.7,1C165.7,18.8,165.3,19.2,164.8,19.1z M164.8,16.3
		c-0.5-0.1-0.8-0.5-0.7-1s0.5-0.8,1-0.7s0.8,0.5,0.7,1C165.7,16,165.3,16.3,164.8,16.3z M164.8,13.7c-0.5-0.1-0.8-0.5-0.7-1
		s0.5-0.8,1-0.7s0.8,0.5,0.7,1S165.3,13.8,164.8,13.7z"/>
	<path style="fill:#355F86;" d="M187.4,0.5h-2.2c-1.1,0-1.7,0.6-1.7,1.7V9c-1-1.6-2.8-2.5-4.9-2.5c-4.4,0-7.7,3.6-7.7,8.4
		s3.3,8.4,7.7,8.4c2.1,0,3.8-0.9,4.9-2.5v0.5c0,1.1,0.6,1.7,1.7,1.7h2.2c1.1,0,1.7-0.6,1.7-1.7V2.2C189,1.1,188.5,0.5,187.4,0.5z
		 M181.8,8.8c0.5,0.1,0.8,0.5,0.7,1s-0.5,0.8-1,0.7s-0.8-0.5-0.7-1C180.9,9,181.4,8.7,181.8,8.8z M178.8,8.1c0.5,0.1,0.8,0.5,0.7,1
		s-0.5,0.8-1,0.7s-0.8-0.5-0.7-1C177.9,8.3,178.4,8,178.8,8.1z M176.3,8.8c0.5,0.1,0.8,0.5,0.7,1s-0.5,0.8-1,0.7s-0.8-0.5-0.7-1
		C175.3,9,175.8,8.7,176.3,8.8z M174.6,11.1c0.5,0.1,0.8,0.5,0.7,1s-0.5,0.8-1,0.7s-0.8-0.5-0.7-1C173.7,11.3,174.1,11,174.6,11.1z
		 M172.8,14.7c0.1-0.5,0.5-0.8,1-0.7s0.8,0.5,0.7,1s-0.5,0.8-1,0.7C173,15.6,172.7,15.2,172.8,14.7z M174.3,18.8
		c-0.5-0.1-0.8-0.5-0.7-1s0.5-0.8,1-0.7c0.5,0.1,0.8,0.5,0.7,1C175.3,18.5,174.8,18.8,174.3,18.8z M176,20.8c-0.5-0.1-0.8-0.5-0.7-1
		s0.5-0.8,1-0.7c0.5,0.1,0.8,0.5,0.7,1C176.9,20.6,176.5,20.9,176,20.8z M178.6,21.7c-0.5-0.1-0.8-0.5-0.7-1s0.5-0.8,1-0.7
		s0.8,0.5,0.7,1C179.5,21.4,179,21.7,178.6,21.7z M181.6,21c-0.5-0.1-0.8-0.5-0.7-1s0.5-0.8,1-0.7c0.5,0.1,0.8,0.5,0.7,1
		S182,21.1,181.6,21z M180,18.9c-2.2,0-3.5-1.8-3.5-4.1s1.3-4.1,3.5-4.1s3.5,1.8,3.6,4.1C183.5,17.1,182.2,18.9,180,18.9z
		 M183.9,19.7c-0.5-0.1-0.8-0.5-0.7-1s0.5-0.8,1-0.7c0.5,0.1,0.8,0.5,0.7,1C184.8,19.5,184.3,19.8,183.9,19.7z M183.9,12.2
		c-0.5-0.1-0.8-0.5-0.7-1s0.5-0.8,1-0.7s0.8,0.5,0.7,1C184.8,11.9,184.3,12.3,183.9,12.2z M186.1,21.9c-0.5-0.1-0.8-0.5-0.7-1
		s0.5-0.8,1-0.7c0.5,0.1,0.8,0.5,0.7,1S186.6,22,186.1,21.9z M186.1,19.2c-0.5-0.1-0.8-0.5-0.7-1s0.5-0.8,1-0.7
		c0.5,0.1,0.8,0.5,0.7,1C187.1,19,186.6,19.3,186.1,19.2z M186.1,16.6c-0.5-0.1-0.8-0.5-0.7-1s0.5-0.8,1-0.7s0.8,0.5,0.7,1
		C187.1,16.3,186.6,16.6,186.1,16.6z M186.1,13.9c-0.5-0.1-0.8-0.5-0.7-1s0.5-0.8,1-0.7s0.8,0.5,0.7,1S186.6,14,186.1,13.9z
		 M186.1,11.2c-0.5-0.1-0.8-0.5-0.7-1s0.5-0.8,1-0.7s0.8,0.5,0.7,1C187.1,11,186.6,11.3,186.1,11.2z M186.1,8.6
		c-0.5-0.1-0.8-0.5-0.7-1s0.5-0.8,1-0.7c0.5,0.1,0.8,0.5,0.7,1S186.6,8.6,186.1,8.6z M186.1,5.9c-0.5-0.1-0.8-0.5-0.7-1
		s0.5-0.8,1-0.7c0.5,0.1,0.8,0.5,0.7,1C187.1,5.7,186.6,6,186.1,5.9z M186.1,3.2c-0.5-0.1-0.8-0.5-0.7-1s0.5-0.8,1-0.7
		c0.5,0.1,0.8,0.5,0.7,1S186.6,3.3,186.1,3.2z"/>
</g>
</svg>
