<?xml version="1.0" encoding="utf-8"?>
<!-- Generator: Adobe Illustrator 26.0.1, SVG Export Plug-In . SVG Version: 6.00 Build 0)  -->
<svg version="1.1" id="Layer_1" xmlns="http://www.w3.org/2000/svg" xmlns:xlink="http://www.w3.org/1999/xlink" x="0px" y="0px"
	 viewBox="0 0 175 175" style="enable-background:new 0 0 175 175;" xml:space="preserve">
<style type="text/css">
	.st0{fill:#FF6D35;}
</style>
<path class="st0" d="M123,41.4l0.2-0.2c0.6-0.6,0.5-1.6-0.1-2.1s-1.5-0.5-2,0l-0.5,0.5c-9.3-6.4-20.3-10-31.5-10.3v-3.5
	c0-0.8-0.7-1.5-1.5-1.5S86,24.9,86,25.8v3.5c-11.3,0.3-22.3,3.9-31.6,10.3l-0.5-0.5c-0.6-0.6-1.6-0.5-2.1,0.1s-0.5,1.5,0,2l0.2,0.2
	C26.5,61,21.7,97.6,41.4,123.1s56.2,30.2,81.7,10.6s30.2-56.2,10.6-81.7C130.6,48,127,44.5,123,41.4L123,41.4z M87.5,142.8
	c-30.5,0-55.2-24.7-55.2-55.2c0-17.3,8.1-33.6,21.8-44l8.9,8.9c0.6,0.6,1.6,0.5,2.1-0.1s0.5-1.5,0-2l-8.5-8.5
	c8.7-5.9,18.9-9.2,29.4-9.5v9.3c0,0.8,0.7,1.5,1.5,1.5s1.5-0.7,1.5-1.5v-9.3c10.5,0.3,20.7,3.6,29.4,9.5l-8.5,8.5
	c-0.7,0.5-0.8,1.4-0.4,2.1c0.5,0.7,1.4,0.8,2.1,0.4c0.1-0.1,0.2-0.2,0.3-0.3l8.9-8.9c24.3,18.4,29,53.1,10.6,77.4
	C121,134.7,104.7,142.8,87.5,142.8L87.5,142.8z"/>
<path class="st0" d="M94.8,124.3c-0.7-0.5-1.6-0.4-2.1,0.3c0,0-2.1,2.8-5.3,2.8s-5.2-2.8-5.3-2.8c-0.5-0.7-1.4-0.8-2.1-0.3
	s-0.8,1.4-0.3,2.1l0,0c0.1,0.2,3,4,7.7,4s7.5-3.8,7.7-4C95.6,125.7,95.5,124.8,94.8,124.3z"/>
<path class="st0" d="M87.5,50C75,50,64.8,60.7,64.8,73.7c0,6.4,2.5,12.6,7,17.1l0,0c4.4,4.7,4.4,8.3,4.4,11.2v0.2
	c0,0.8,0.7,1.5,1.5,1.5s1.5-0.7,1.5-1.5V102c0-3.1,0-7.8-5.3-13.4l-0.1-0.1c-3.9-4-6.1-9.3-6.1-14.9c0-11.4,8.8-20.7,19.7-20.7
	s19.7,9.3,19.7,20.7c0.1,5.6-2.1,11-6.1,15l0,0l-0.1,0.1l0,0l0,0l-0.1,0.1c-4.7,5-5.2,9.2-5.2,12.3L77,105.7c-0.8,0.2-1.3,1-1.2,1.8
	c0.2,0.8,1,1.3,1.8,1.2h0.1l19.7-4.9c0.7-0.2,1.1-0.8,1.1-1.5v-0.2c0-2.9,0-6.5,4.4-11.2l0,0c4.5-4.5,7-10.7,7-17.1
	C110.2,60.7,100,50,87.5,50z"/>
<path class="st0" d="M96.8,114.4l-19.7,4.9c-0.8,0.2-1.3,1-1.2,1.8c0.2,0.8,1,1.3,1.8,1.2h0.1l19.7-4.9c0.8-0.2,1.3-1.1,1-1.9
	C98.4,114.7,97.6,114.3,96.8,114.4L96.8,114.4z"/>
<path class="st0" d="M96.8,107.6l-19.7,4.9c-0.8,0.2-1.3,1-1.2,1.8c0.2,0.8,1,1.3,1.8,1.2h0.1l19.7-4.9c0.8-0.2,1.3-1.1,1-1.9
	C98.4,107.9,97.6,107.5,96.8,107.6z"/>
<path class="st0" d="M136.6,73.3h-15.9c-0.8,0-1.5,0.7-1.5,1.5s0.7,1.5,1.5,1.5h15.9c0.8,0,1.5-0.7,1.5-1.5S137.4,73.3,136.6,73.3
	L136.6,73.3z"/>
<path class="st0" d="M55.8,74.8c0-0.8-0.7-1.5-1.5-1.5H38.4c-0.8,0-1.5,0.7-1.5,1.5s0.7,1.5,1.5,1.5h15.9
	C55.1,76.3,55.8,75.7,55.8,74.8z"/>
<path class="st0" d="M112,97.3c-0.6-0.6-1.5-0.6-2.1-0.1c-0.6,0.6-0.6,1.5-0.1,2.1c0,0,0,0.1,0.1,0.1l11.2,11.2
	c0.6,0.6,1.6,0.5,2.1-0.1s0.5-1.5,0-2L112,97.3z"/>
<path class="st0" d="M63,97.3l-11.3,11.2c-0.6,0.6-0.6,1.5-0.1,2.1c0.6,0.6,1.5,0.6,2.1,0.1c0,0,0.1,0,0.1-0.1L65,99.4
	c0.5-0.7,0.4-1.6-0.3-2.1C64.2,96.9,63.5,96.9,63,97.3z"/>
<path class="st0" d="M89.5,96.7c0.8,0,1.5-0.7,1.5-1.5c0-6.5,0.1-10.9,0.3-14c4.3-0.8,5.3-3.1,5.3-5c0.2-2-1.2-3.7-3.1-4.1
	c-1.7-0.2-3.7,0.8-4.4,3.7c-0.2,0.9-0.4,1.8-0.5,2.7c-0.7,0-1.4,0-2.1,0c-0.1-0.9-0.3-1.8-0.5-2.7c-0.8-2.8-2.8-3.9-4.4-3.7
	c-1.9,0.4-3.3,2.1-3.1,4.1c0,1.9,1,4.2,5.3,5c0.2,3.1,0.3,7.5,0.3,14c0,0.8,0.7,1.5,1.5,1.5S87,96,87,95.2c0-6.4-0.1-10.6-0.3-13.7
	c0.5,0,1,0,1.5,0c-0.2,3-0.2,7.3-0.2,13.7C88,96,88.7,96.7,89.5,96.7L89.5,96.7z M92,76.5c0.3-1.1,0.8-1.5,1.1-1.5l0,0
	c0.2,0,0.5,0.4,0.5,1.1c0,0.9-0.9,1.5-2,1.8C91.8,77.4,91.9,77,92,76.5z M81.3,76.1c0-0.7,0.3-1.1,0.5-1.1l0,0
	c0.3,0,0.8,0.4,1.1,1.5c0.1,0.4,0.2,0.9,0.3,1.4C82.2,77.6,81.3,77.1,81.3,76.1z"/>
</svg>
