<?xml version="1.0" encoding="utf-8"?>
<!-- Generator: Adobe Illustrator 26.0.1, SVG Export Plug-In . SVG Version: 6.00 Build 0)  -->
<svg version="1.1" id="Layer_1" xmlns="http://www.w3.org/2000/svg" xmlns:xlink="http://www.w3.org/1999/xlink" x="0px" y="0px"
	 viewBox="0 0 175 175" style="enable-background:new 0 0 175 175;" xml:space="preserve">
<style type="text/css">
	.st0{fill:#FF6D35;}
</style>
<path class="st0" d="M118.1,38c0.6-2.1,1.9-4,3.5-5.5c0.6-0.5,0.7-1.5,0.2-2.1c-0.2-0.2-0.5-0.4-0.7-0.5c-0.6-0.2-12-3.2-23.2,0.3
	c-31.7-5.7-61.9,15.3-67.7,47c-0.6,3.4-0.9,6.9-0.9,10.3c0,32.2,26.1,58.2,58.2,58.2c32.2,0,58.2-26.1,58.2-58.3
	C145.7,67.3,135.2,48.6,118.1,38z M117.7,32.3c-2.8,3.7-3.6,8.6-4.3,13.3c-0.8,5-1.6,10.2-4.7,14.2c-5.1,6.8-10.9,9.3-17.1,7.5
	c1.2-8.5,4.9-18.2,13.4-25.5c0.6-0.6,0.7-1.5,0.1-2.1s-1.5-0.7-2.1-0.1l0,0c-7.8,6.8-12.9,16.3-14.3,26.6c-0.7-0.3-1.4-0.7-2-1.1
	c-3.4-2.2-5.5-6-5.5-10.1C81,48.4,84.6,41.6,91,37c5.8-4.3,12.9-5.4,18.7-5.4C112.4,31.5,115.1,31.8,117.7,32.3L117.7,32.3z
	 M87.5,32.3c1.6,0,3.3,0.1,4.9,0.2c-1.1,0.6-2.2,1.3-3.2,2C82,39.7,77.9,47.4,78.2,55c0,5.1,2.6,9.8,6.9,12.6c1,0.6,2.1,1.2,3.2,1.7
	c-0.5,4.7-0.2,9.4,0.8,14C78.6,84,73,89.6,71.4,91.6c-2.5-0.1-5-0.1-7.5,0.1c-8,0.7-19.3,11.4-26.7,18.8c-3.3-7.2-5-15-5-22.9
	C32.3,57,57,32.3,87.5,32.3z M47.4,125.5c-3.5-3.7-6.4-7.8-8.8-12.2c6.8-6.7,18.5-18,25.6-18.6c9.1-0.8,23.2,1.3,28.6,3.6v3.9
	c-5.5,1.7-11.3,2.4-17.1,2.1c-0.8,0-1.5,0.6-1.6,1.4s0.6,1.5,1.4,1.6c6.5,0.4,13.1-0.5,19.3-2.7c0.6-0.2,0.9-0.8,0.9-1.4v-5.1
	c3.8-2.4,22.6-14.2,28.7-18.1c3.1-2,5.5-2,6.4-1.2c0.7,0.6,0.7,1.9,0,3.3c-2.1,4.3-18.8,22.2-27.6,30.6c-7.8,7.4-8.9,8.2-16.3,7.6
	c-7.9-0.7-26.8-2-27-2c-0.3,0-0.6,0-0.9,0.2L47.4,125.5z M94.2,95.6c-4-1.8-11.5-3.2-18.8-3.8c2.6-2.3,7.7-5.6,15.9-5.6
	c4.4-0.1,8.8,1.1,12.6,3.3L94.2,95.6z M87.5,142.8c-14.1,0-27.7-5.4-37.9-15.1l10.7-6.3c3,0.2,19.3,1.3,26.5,1.9
	c8.7,0.8,10.7-0.8,18.6-8.4s25.7-26.4,28.2-31.4c1.3-2.7,1.1-5.3-0.7-6.9c-2.2-2-6-1.7-10,0.9l-16,10.2c-4.3-2.9-9.4-4.4-14.6-4.5
	v-0.1c-1.1-4.2-1.4-8.5-1-12.8c1.4,0.4,2.7,0.5,4.1,0.5c5.7,0,11.1-3.1,15.7-9.2c3.5-4.6,4.4-10.2,5.2-15.5c0.3-1.8,0.6-3.5,0.9-5.1
	c25.7,16.4,33.2,50.6,16.8,76.3C123.9,133.2,106.4,142.8,87.5,142.8z"/>
<path class="st0" d="M50.5,62.7c2.2,0.7,3.5,2.9,5,5.5s3.2,5.3,6,7c2.1,1.3,4.5,2.1,6.9,2.2c3.2,0,6-1.6,8.3-4.6l0,0l0,0
	c1.7-2.4,2.1-5.5,1-8.3c-1.4-4.2-5.2-7.4-10.1-8.6c-8.9-2.2-17.2,4-17.5,4.3c-0.7,0.5-0.8,1.4-0.3,2.1C50,62.4,50.3,62.6,50.5,62.7z
	 M66.9,58.7c3.9,1,7,3.5,8.1,6.7c0.4,1.1,0.5,2.4,0.3,3.6c-4.1-4.4-10.8-6.4-11.1-6.5c-0.8-0.2-1.6,0.2-1.9,1
	c-0.2,0.8,0.2,1.6,1,1.9c0.1,0,7,2.1,10.4,6.4c-2.8,3.2-6.2,3.4-10.6,0.8c-2.2-1.3-3.6-3.7-5-6c-1.1-2-2.5-3.9-4.2-5.4
	C56.7,59.6,61.8,57.4,66.9,58.7L66.9,58.7z"/>
</svg>
