<svg id="Layer_1" data-name="Layer 1" xmlns="http://www.w3.org/2000/svg" viewBox="0 0 175 175"><defs><style>.cls-1{fill:#355e86;}</style></defs><title>Artboard 14</title><path class="cls-1" d="M140.71922,111.14116a57.63035,57.63035,0,0,0,5.02686-23.64563A58.22945,58.22945,0,0,0,50.488,42.54582H35.31639a1.50007,1.50007,0,0,0-1.5,1.5V64.8991a57.7195,57.7195,0,0,0-4.56055,22.59644,58.316,58.316,0,0,0,58.25,58.25,57.67468,57.67468,0,0,0,41.25391-17.1582,10.59782,10.59782,0,1,0,11.95947-17.44617ZM36.81639,45.54582H91.32615V84.77318a10.62662,10.62662,0,0,0-2.33154,3.97235H61.17527a10.631,10.631,0,0,0-20.25488,0h-4.104ZM99.122,81.34758a10.55485,10.55485,0,0,0-4.7959,1.15552V57.85588H106.5615l2.77539,11.64746a1.4995,1.4995,0,0,0,.52637.82715l7.44238,5.90918V88.74553h-8.05615A10.651,10.651,0,0,0,99.122,81.34758Zm0,3a7.63452,7.63452,0,1,1-7.63477,7.63428A7.64313,7.64313,0,0,1,99.122,84.34758ZM58.6826,91.98186a7.63477,7.63477,0,1,1-7.63477-7.63428A7.64324,7.64324,0,0,1,58.6826,91.98186Zm28.82324,50.76367a55.25657,55.25657,0,0,1-53.68945-68.296v15.796a1.50007,1.50007,0,0,0,1.5,1.5H40.425c-.00171.07935-.012.15656-.012.23633a10.63477,10.63477,0,1,0,21.26953,0c0-.07977-.01025-.157-.012-.23633H88.49925c-.00171.07935-.012.15656-.012.23633a10.63477,10.63477,0,0,0,21.26953,0c0-.07977-.01025-.157-.012-.23633h9.06079a1.50007,1.50007,0,0,0,1.5-1.5v-14.73a1.50049,1.50049,0,0,0-.56738-1.1748l-7.60352-6.03711-2.92969-12.29541a1.49989,1.49989,0,0,0-1.459-1.15234H94.32615V44.04582a1.50007,1.50007,0,0,0-1.5-1.5H55.40672a55.233,55.233,0,0,1,87.33936,44.94971,54.65383,54.65383,0,0,1-4.793,22.48608,10.24754,10.24754,0,0,0-5.25293-.01984l-3.30078-8.062h1.82715a1.5,1.5,0,1,0,0-3H127.164a1.4999,1.4999,0,0,0-1.3877,2.06836l1.77954,4.3457H114.18553v-1.15137h1.667a1.5,1.5,0,0,0,0-3h-6.18359a1.5,1.5,0,0,0,0,3h1.5166v2.28961l-1.92285,3.761a10.59838,10.59838,0,0,0-13.24561,14.07434H79.414a1.5,1.5,0,0,0,0,3H97.91111a10.585,10.585,0,0,0,18.40283-5.54785h4.5249l.00049-.00006.00049.00006.01514-.002a1.492,1.492,0,0,0,.36865-.04974c.03662-.0097.0708-.0296.10669-.04218a1.49664,1.49664,0,0,0,.25635-.11066c.00977-.00568.02075-.00726.03052-.01318a1.484,1.484,0,0,0,.46216-.4455c.00635-.00922.01514-.01581.02124-.02521l7.27075-11.30365.554,1.35248a10.56664,10.56664,0,0,0-3.24316,15.32233A54.7045,54.7045,0,0,1,87.50584,142.74553Zm33.36963-25.3352-5.52393-9.09644h11.375Zm-4.56152,1.32935a10.60763,10.60763,0,0,0-4.38086-7.159l.865-1.69171,5.375,8.85071Zm-13.48486,5.54785H99.38792a7.59217,7.59217,0,0,1,8.491-11.36792l-3.39355,6.63745a1.50024,1.50024,0,0,0,1.33594,2.18262h7.46143a7.60217,7.60217,0,0,1-10.35181,5.5376,1.49649,1.49649,0,0,0-.10181-2.98975Zm5.44336-5.54785,2.2771-4.45312a7.61359,7.61359,0,0,1,2.73315,4.45313Zm27.01562,9.11133a7.60758,7.60758,0,0,1-4.21338-13.94366l2.82568,6.9007a1.49958,1.49958,0,1,0,2.77539-1.13672l-2.82568-6.90143a7.60931,7.60931,0,1,1,1.438,15.08112Z"/><path class="cls-1" d="M79.414,109.48674h23.415a1.5,1.5,0,0,0,0-3H79.414a1.5,1.5,0,0,0,0,3Z"/><path class="cls-1" d="M92.622,116.88713a1.50039,1.50039,0,0,0-1.5-1.5H67.706a1.5,1.5,0,0,0,0,3H91.122A1.50039,1.50039,0,0,0,92.622,116.88713Z"/></svg>