<?xml version="1.0" encoding="utf-8"?>
<!-- Generator: Adobe Illustrator 21.1.0, SVG Export Plug-In . SVG Version: 6.00 Build 0)  -->
<svg version="1.1" id="Layer_1" xmlns="http://www.w3.org/2000/svg" xmlns:xlink="http://www.w3.org/1999/xlink" x="0px" y="0px"
	 viewBox="0 0 175 175" style="enable-background:new 0 0 175 175;" xml:space="preserve">
<g>
	<path style="fill:#355E86;" d="M129.9,127.3c11.8-12.5,17.4-29.4,15.5-46.4c-3.6-31.9-32.4-55-64.4-51.4c-7,0.8-13.8,2.8-20,6
		L55.3,35l-2.6-6.2c-0.2-0.6-0.8-0.9-1.4-0.9s-1.1,0.4-1.4,0.9L47.3,35l-6.7,0.6c-0.6,0.1-1.1,0.5-1.3,1c-0.2,0.6,0,1.2,0.4,1.6
		l5.1,4.4l-1.5,6.6c0,0.1,0,0.1,0,0.2c-0.4,0.5-0.8,0.9-1.2,1.4c-5.8,7.2-9.8,15.7-11.7,24.7c-1.3,6-1.5,12.2-0.8,18.4
		c0.2,1.8,0.5,3.6,0.8,5.3c0.9,4.6,2.4,9,4.4,13.3c1.3,2.8,2.9,5.5,4.6,8l0,0c2,2.9,4.3,5.7,6.9,8.3l0,0c0,0,0,0,0,0
		c11,11,25.7,17,41,17c2.2,0,4.4-0.1,6.6-0.4c3.8-0.4,7.6-1.2,11.3-2.4l12.1,2.9c0.1,0,0.2,0,0.3,0c0.2,0,0.4,0,0.5-0.1
		c0,0,0.1,0,0.1-0.1c0.1,0,0.2-0.1,0.3-0.2c0,0,0.1-0.1,0.1-0.1c0,0,0,0,0,0l10.6-10.6c0.3-0.3,0.4-0.7,0.4-1.1h0V127.3z M113.9,113
		l-3.1-2.7l4.1-0.3c0.6,0,1-0.4,1.3-0.9l1.6-3.8l1.6,3.8c0.2,0.5,0.7,0.9,1.3,0.9l4.1,0.3l-3.1,2.7c-0.4,0.4-0.6,0.9-0.5,1.5l0.9,4
		l-3.5-2.1c-0.5-0.3-1.1-0.3-1.6,0l-3.5,2.1l0.9-4C114.5,114,114.4,113.4,113.9,113z M46.7,50.2l3-1.8l5.5,1.3l1.9,1.2
		c0.2,0.1,0.5,0.2,0.8,0.2c0.3,0,0.6-0.1,0.9-0.3c0.1-0.1,0.1-0.1,0.2-0.2l62.5,14.8v41.1l-2.2-5.3V69.4c0-0.7-0.5-1.3-1.2-1.5
		L46,50.9C46.2,50.6,46.5,50.4,46.7,50.2z M126.9,60v38.7c0,0.1-0.1,0.2-0.1,0.4s0,0.3,0.1,0.4v8.2l-2.4-0.2V64.2
		c0-0.7-0.5-1.3-1.2-1.5L58.9,47.5L58,43.6L126.9,60z M119.3,120.3l2.2,1.3v16.7l-2.2,2.2V120.3z M124.5,123.1
		c0.2,0,0.5-0.1,0.7-0.3c0.5-0.4,0.7-1,0.6-1.6l-1.3-5.5v-1.3l2.4-2.1V133l-2.4,2.4V123.1z M81.4,32.5c30.3-3.4,57.6,18.5,61,48.7
		c1.7,15.1-2.9,30-12.5,41.6v-22.2h1v2.6c0,0.8,0.7,1.5,1.5,1.5s1.5-0.7,1.5-1.5v-2.6h2.6c0.8,0,1.5-0.7,1.5-1.5s-0.7-1.5-1.5-1.5
		h-2.6v-2.6c0-0.8-0.7-1.5-1.5-1.5s-1.5,0.7-1.5,1.5v2.6h-1V58.8c0-0.7-0.5-1.3-1.2-1.5L77.8,45.2c0-0.1,0.1-0.3,0.1-0.4v-1.6h1.6
		c0.8,0,1.5-0.7,1.5-1.5s-0.7-1.5-1.5-1.5h-1.6v-1.6c0-0.8-0.7-1.5-1.5-1.5s-1.5,0.7-1.5,1.5v1.6h-1.6c-0.8,0-1.5,0.7-1.5,1.5
		s0.7,1.5,1.5,1.5h1.6v1.3L59.7,41l3.2-2.7c0.2-0.1,0.3-0.3,0.4-0.5C68.9,34.9,75,33.2,81.4,32.5z M44.4,38.3l4.1-0.3
		c0.6,0,1-0.4,1.3-0.9l1.6-3.8l1.6,3.8c0.2,0.5,0.7,0.9,1.3,0.9l4.1,0.3L55.2,41c-0.4,0.4-0.6,0.9-0.5,1.5l0.9,4l-3.5-2.1
		c-0.5-0.3-1.1-0.3-1.6,0l-3.5,2.1l0.9-4c0.1-0.5-0.1-1.1-0.5-1.5L44.4,38.3z M40.8,119.5l1.2-0.9c-1.6-2.4-3.1-4.9-4.4-7.5
		c-1.9-4-3.3-8.2-4.2-12.6c-0.3-1.6-0.6-3.3-0.8-5c-0.7-5.8-0.4-11.7,0.8-17.4c1.7-8.2,5.3-16,10.5-22.7l72.3,17.1v30.6l-2.5,5.9
		l-6.7,0.6c-0.6,0.1-1.1,0.5-1.3,1c-0.2,0.6,0,1.2,0.4,1.6l5.1,4.4l-1.5,6.6c-0.1,0.6,0.1,1.2,0.6,1.6c0.5,0.4,1.1,0.4,1.7,0.1
		l4.3-2.6v22l-10.7-2.5l-57.3-13.6c-2.3-2.3-4.4-4.9-6.3-7.5L40.8,119.5z M93.7,142.3c-14.8,1.6-29.3-2.6-40.8-11.8l46.2,11
		C97.3,141.8,95.5,142.1,93.7,142.3z"/>
	<path style="fill:#355E86;" d="M49.8,64.3v2.6c0,0.8,0.7,1.5,1.5,1.5s1.5-0.7,1.5-1.5v-2.6h2.6c0.8,0,1.5-0.7,1.5-1.5
		s-0.7-1.5-1.5-1.5h-2.6v-2.6c0-0.8-0.7-1.5-1.5-1.5s-1.5,0.7-1.5,1.5v2.6h-2.6c-0.8,0-1.5,0.7-1.5,1.5s0.7,1.5,1.5,1.5H49.8z"/>
	<path style="fill:#355E86;" d="M102.2,134.3h1.6v1.6c0,0.8,0.7,1.5,1.5,1.5s1.5-0.7,1.5-1.5v-1.6h1.6c0.8,0,1.5-0.7,1.5-1.5
		s-0.7-1.5-1.5-1.5h-1.6v-1.6c0-0.8-0.7-1.5-1.5-1.5s-1.5,0.7-1.5,1.5v1.6h-1.6c-0.8,0-1.5,0.7-1.5,1.5S101.3,134.3,102.2,134.3z"/>
</g>
</svg>
