<?xml version="1.0" encoding="utf-8"?>
<!-- Generator: Adobe Illustrator 21.1.0, SVG Export Plug-In . SVG Version: 6.00 Build 0)  -->
<svg version="1.1" id="Layer_1" xmlns="http://www.w3.org/2000/svg" xmlns:xlink="http://www.w3.org/1999/xlink" x="0px" y="0px"
	 viewBox="0 0 175 175" style="enable-background:new 0 0 175 175;" xml:space="preserve">
<style type="text/css">
	.st0{fill:#355E86;}
</style>
<title>Artboard 12 copy</title>
<path class="st0" d="M91.8,29.4l-3-4.2c-0.5-0.7-1.5-0.8-2.2-0.2c-0.1,0.1-0.2,0.1-0.2,0.2l-3,4.2c-32.1,2.3-56.2,30.3-53.8,62.3
	s30.3,56.2,62.3,53.8c32.1-2.3,56.2-30.3,53.8-62.3C143.6,54.5,120.6,31.5,91.8,29.4L91.8,29.4z M87.5,28.7l27,37.1H102
	c-0.8,0-1.5,0.7-1.5,1.5v45.7h-26V67.3c0-0.8-0.7-1.5-1.5-1.5H60.5L87.5,28.7z M87.5,142.7c-30.5,0-55.2-24.7-55.2-55.1
	c0-3.1,0.3-6.3,0.8-9.4c0.5,0.1,1,0,1.3-0.4l2.5-2.5v12.2c0,0.8,0.7,1.5,1.5,1.5s1.5-0.7,1.5-1.5V75.3l2.5,2.5
	c0.6,0.6,1.6,0.5,2.1-0.1c0.5-0.6,0.5-1.5,0-2l-5-5c-0.6-0.6-1.5-0.6-2.1,0L33.9,74c5.6-22.2,24.3-38.6,47-41.4L56.3,66.4
	c-0.5,0.7-0.3,1.6,0.3,2.1c0.3,0.2,0.6,0.3,0.9,0.3h14v45.7c0,0.8,0.7,1.5,1.5,1.5h29c0.8,0,1.5-0.7,1.5-1.5V68.8h14
	c0.8,0,1.5-0.7,1.5-1.5c0-0.3-0.1-0.6-0.3-0.9L94.1,32.7c21.5,2.6,39.5,17.6,46.1,38.3h-4.7V65c0-0.8-0.7-1.5-1.5-1.5
	s-1.5,0.7-1.5,1.5v5.9h-5.9c-0.8,0-1.5,0.7-1.5,1.5s0.7,1.5,1.5,1.5h5.9v5.9c0,0.8,0.7,1.5,1.5,1.5s1.5-0.7,1.5-1.5v-6h5.5
	c7.5,29.6-10.4,59.6-40,67.1C96.6,142.2,92.1,142.7,87.5,142.7L87.5,142.7z"/>
<path class="st0" d="M122.2,106.7c-0.8,0-1.5,0.7-1.5,1.5v13.5H54.3v-13.5c0-0.8-0.7-1.5-1.5-1.5s-1.5,0.7-1.5,1.5v15
	c0,0.8,0.7,1.5,1.5,1.5h69.4c0.8,0,1.5-0.7,1.5-1.5v-15C123.7,107.4,123,106.7,122.2,106.7z"/>
<path class="st0" d="M52.9,94.3c0.8,0,1.5-0.7,1.5-1.5s-0.7-1.5-1.5-1.5h-2.8v-2.8c0-0.8-0.7-1.5-1.5-1.5s-1.5,0.7-1.5,1.5v2.8h-2.8
	c-0.8,0-1.5,0.7-1.5,1.5s0.7,1.5,1.5,1.5h2.8v2.8c0,0.8,0.7,1.5,1.5,1.5s1.5-0.7,1.5-1.5v-2.8H52.9z"/>
<path class="st0" d="M125,58.8h2.6c0.8,0,1.5-0.7,1.5-1.5s-0.7-1.5-1.5-1.5H125v-2.6c0-0.8-0.7-1.5-1.5-1.5s-1.5,0.7-1.5,1.5v2.6
	h-2.6c-0.8,0-1.5,0.7-1.5,1.5s0.7,1.5,1.5,1.5h2.6v2.6c0,0.8,0.7,1.5,1.5,1.5s1.5-0.7,1.5-1.5l0,0V58.8z"/>
</svg>
