<?xml version="1.0" encoding="utf-8"?>
<!-- Generator: Adobe Illustrator 21.1.0, SVG Export Plug-In . SVG Version: 6.00 Build 0)  -->
<svg version="1.1" id="Layer_1" xmlns="http://www.w3.org/2000/svg" xmlns:xlink="http://www.w3.org/1999/xlink" x="0px" y="0px"
	 viewBox="0 0 175 175" style="enable-background:new 0 0 175 175;" xml:space="preserve">
<style type="text/css">
	.st0{fill:#355E86;}
</style>
<title>Artboard 16</title>
<path class="st0" d="M87.5,29.2c-32.1,0-58.2,26-58.2,58.1c0,4.5,0.5,9,1.5,13.4l-9.1,9.1c-0.6,0.6-0.6,1.5,0,2.1l25.7,25.7
	c0.6,0.6,1.5,0.6,2.1,0l3.3-3.3c10,7.5,22.2,11.5,34.6,11.4c32.2,0,58.2-26.1,58.2-58.2S119.7,29.2,87.5,29.2z M48.5,134.4
	l-23.6-23.5l38.5-38.5L76.7,72l6.7,6.7c-0.2,0.5-0.4,1.1-0.7,1.6c-0.5,1.3-1.3,2.5-2.3,3.6c-0.7-3.4-4-5.6-7.5-5
	c-3.4,0.7-5.6,4-5,7.5c0.7,3.4,4,5.6,7.5,5c2-0.4,3.8-1.8,4.6-3.7c1.9-0.7,3.8-2.5,5.4-6.1c0.1-0.2,0.1-0.3,0.2-0.5l1.7,1.7L87,96
	L48.5,134.4z M89.1,61.8c0.6-7,5.1-12.3,9.4-13.9c0.8-0.3,1.6-0.4,2.4-0.5c1.6,0,3.1,0.7,4.1,2c1.5,1.8,1.9,3.6,1,5.4
	C103.9,59.3,96,61.5,89.1,61.8L89.1,61.8z M67.6,119.6L79.2,108v11.6L67.6,119.6z M82.2,105l7.3-7.3c0.3-0.3,0.4-0.6,0.4-1l0.4-14.5
	c0-0.4-0.1-0.9-0.4-1.2l-0.7-0.7h3.6v39.2H82.2V105z M92.8,77.4H87c1.2-3.8,1.9-7.8,2-11.8h3.8L92.8,77.4z M82.2,68.4
	c1.2-1,2.5-1.8,3.8-2.6c-0.1,3.3-0.7,6.5-1.6,9.7l-2.2-2.2V68.4z M95.8,80.4h20.7v39.2H95.8V80.4z M119.5,77.4H95.8V65.6h23.6V77.4z
	 M69,54.8c-0.8-1.8-0.5-3.6,1-5.4c1-1.2,2.5-2,4.1-2c0.8,0,1.7,0.2,2.4,0.5c4.3,1.5,8.8,6.8,9.4,13.9C79,61.5,71.1,59.3,69,54.8z
	 M79.2,67c-0.7,0.6-1.3,1.3-1.9,2l0,0l-14.5,0.4c-0.4,0-0.7,0.2-1,0.4l-6.2,6.2V65.6h23.6V67z M76,82.4c0.8,0.5,1.4,1.4,1.5,2.4
	C76.6,84.3,76,83.4,76,82.4z M73,82.1c-0.1,2.4,1.3,4.6,3.5,5.5c-1.3,1.3-3.4,1.2-4.7-0.1c-1.3-1.3-1.2-3.4,0.1-4.7
	C72.2,82.5,72.6,82.2,73,82.1z M87.5,142.7c-11.7,0-23.1-3.7-32.5-10.6l9.6-9.6h53.5c0.8,0,1.5-0.7,1.5-1.5V80.4h1.4
	c0.8,0,1.5-0.7,1.5-1.5V64.1c0-0.8-0.7-1.5-1.5-1.5h-20.4c3.9-1.5,6.8-3.8,8.1-6.5s0.8-5.9-1.4-8.6c-2.4-2.9-6-3.8-9.8-2.4
	c-4.8,1.7-8.1,6-9.9,10.6c-1.8-4.6-5.2-8.8-9.9-10.6c-3.8-1.4-7.4-0.5-9.8,2.4c-2.2,2.7-2.8,5.8-1.4,8.6s4.2,5,8.1,6.5H54
	c-0.8,0-1.5,0.7-1.5,1.5v14.8c0,0.1,0,0.1,0,0.2L33.3,98.3c-6-29.9,13.5-59,43.4-65s59,13.5,65,43.4s-13.5,59-43.4,65
	C94.7,142.4,91.1,142.7,87.5,142.7z"/>
<path class="st0" d="M43.9,117.1L46,115c0.4-0.3,0.4-0.8,0.1-1.1c0,0-0.1-0.1-0.1-0.1l-0.4-0.4c-0.3-0.4-0.8-0.4-1.1-0.1
	c0,0-0.1,0.1-0.1,0.1l-2.1,2.1l-1-1l2.5-2.4c0.4-0.3,0.4-0.8,0.1-1.1c0,0-0.1-0.1-0.1-0.1l-0.6-0.6c-0.3-0.4-0.8-0.4-1.1-0.1
	c0,0-0.1,0.1-0.1,0.1l-4.1,4.1c-0.4,0.3-0.4,0.8-0.1,1.1c0,0,0.1,0.1,0.1,0.1l6.2,6.2c0.3,0.4,0.8,0.4,1.1,0.1c0,0,0.1-0.1,0.1-0.1
	l1-1c0.4-0.3,0.4-0.8,0.1-1.1c0,0-0.1-0.1-0.1-0.1L43.9,117.1z"/>
<path class="st0" d="M56.6,108.1l-0.5-0.2c-0.5-0.2-0.7-0.2-1,0.3c-0.1,0.2-0.2,0.3-0.4,0.5c-0.4,0.4-1.1,0.4-1.9-0.2
	c0.7-1.2,0.4-2.8-0.7-3.7c-1.3-1.4-3.5-1.5-4.9-0.2c-0.1,0.1-0.2,0.2-0.3,0.3l-3,3c-0.4,0.3-0.4,0.8-0.1,1.1c0,0,0.1,0.1,0.1,0.1
	l6.2,6.2c0.3,0.4,0.8,0.4,1.1,0.1c0,0,0.1-0.1,0.1-0.1l1-1c0.4-0.3,0.4-0.8,0.1-1.1c0,0-0.1-0.1-0.1-0.1l-1.9-1.9l0.5-0.5
	c0.8,0.7,3.1,2.2,5,0.2c0.5-0.5,0.9-1.1,1.2-1.8C57.4,108.6,57.2,108.3,56.6,108.1z M50.2,108.5l-1.2,1.1l-1.5-1.5l1.2-1.2
	c0.4-0.4,1-0.3,1.4,0.1C50.5,107.5,50.5,108.1,50.2,108.5z"/>
<path class="st0" d="M62.5,101.7c-0.3-0.4-0.8-0.4-1.1-0.1c0,0-0.1,0.1-0.1,0.1l-2.4,2.4l-0.9-0.9l2-2c0.4-0.3,0.4-0.8,0.1-1.1
	c0,0-0.1-0.1-0.1-0.1l-0.4-0.4c-0.3-0.4-0.8-0.4-1.1-0.1c0,0-0.1,0.1-0.1,0.1l-2,2l-1-1l2.4-2.4c0.4-0.3,0.4-0.8,0.1-1.1
	c0,0-0.1-0.1-0.1-0.1L57,96.2c-0.3-0.4-0.8-0.4-1.1-0.1c0,0-0.1,0.1-0.1,0.1l-4,4c-0.4,0.3-0.4,0.8-0.1,1.1c0,0,0.1,0.1,0.1,0.1
	l6.2,6.2c0.3,0.4,0.8,0.4,1.1,0.1c0,0,0.1-0.1,0.1-0.1l4-4c0.4-0.3,0.4-0.8,0.1-1.1c0,0-0.1-0.1-0.1-0.1L62.5,101.7z"/>
<path class="st0" d="M68.9,95.2c-0.3-0.4-0.8-0.4-1.1-0.1c0,0-0.1,0.1-0.1,0.1l-2.4,2.4l-0.9-0.9l2-2c0.4-0.3,0.4-0.8,0.1-1.1
	c0,0-0.1-0.1-0.1-0.1L65.9,93c-0.3-0.4-0.8-0.4-1.1-0.1c0,0-0.1,0.1-0.1,0.1l-2,2l-1-1l2.4-2.4c0.4-0.3,0.4-0.8,0.1-1.1
	c0,0-0.1-0.1-0.1-0.1l-0.6-0.6c-0.3-0.4-0.8-0.4-1.1-0.1c0,0-0.1,0.1-0.1,0.1l-4,4c-0.4,0.3-0.4,0.8-0.1,1.1c0,0,0.1,0.1,0.1,0.1
	l6.1,6.2c0.3,0.4,0.8,0.4,1.1,0.1c0,0,0.1-0.1,0.1-0.1l4-4c0.4-0.3,0.4-0.8,0.1-1.1c0,0-0.1-0.1-0.1-0.1L68.9,95.2z"/>
</svg>
