<?xml version="1.0" encoding="utf-8"?>
<!-- Generator: Adobe Illustrator 22.0.1, SVG Export Plug-In . SVG Version: 6.00 Build 0)  -->
<svg version="1.1" id="Layer_1" xmlns="http://www.w3.org/2000/svg" xmlns:xlink="http://www.w3.org/1999/xlink" x="0px" y="0px"
	 viewBox="0 0 175 175" style="enable-background:new 0 0 175 175;" xml:space="preserve">
<title>Artboard 14</title>
<g>
	<path style="fill:#336497;" d="M129.9,47.3v-3.1c0-2.4-1.9-4.3-4.3-4.3h-4.3C111.5,33,100,29.3,88,29.3c-12,0-23.5,3.6-33.3,10.5
		h-4.3c-2.4,0-4.3,1.9-4.3,4.3v3.1c-10.3,10.8-16,25-16,40c0,31.9,26,57.9,57.9,57.9c31.9,0,57.9-26,57.9-57.9
		C145.9,72.3,140.2,58.1,129.9,47.3z M46.2,122.7c-8.1-9.6-13.1-22-13.1-35.5c0-13.1,4.6-25.6,13.1-35.5V122.7z M88,32.3
		c9.9,0,19.4,2.6,27.7,7.5H60.3C68.7,34.9,78.2,32.3,88,32.3z M121.2,131c0,0-13.2,11.2-33.2,11.2c-19.9,0-32.7-10.9-32.7-10.9
		c-2.2-1.6-4.2-3.4-6.2-5.3h0V44.1c0-0.7,0.6-1.3,1.3-1.3h75.1c0.7,0,1.3,0.6,1.3,1.3v81.8h0C125.1,127.8,123.2,129.4,121.2,131z
		 M129.9,51.7c8.4,9.9,13.1,22.4,13.1,35.5c0,13.5-4.9,25.9-13.1,35.5V51.7z"/>
	<g>
		<g>
			<path style="fill:#336497;" d="M86.3,69.5h27.5c1.2,0,2.1-1,2.1-2.1s-1-2.1-2.1-2.1H86.3c-1.2,0-2.1,1-2.1,2.1
				S85.1,69.5,86.3,69.5z"/>
			<path style="fill:#336497;" d="M86.3,93.1h27.5c1.2,0,2.1-1,2.1-2.1s-1-2.1-2.1-2.1H86.3c-1.2,0-2.1,1-2.1,2.1
				S85.1,93.1,86.3,93.1z"/>
			<path style="fill:#336497;" d="M86.3,116.7h27.5c1.2,0,2.1-1,2.1-2.1s-1-2.1-2.1-2.1H86.3c-1.2,0-2.1,1-2.1,2.1
				C84.1,115.7,85.1,116.7,86.3,116.7z"/>
			<path style="fill:#336497;" d="M66.5,71.9c0.4,0.4,1,0.7,1.6,0.7c0,0,0,0,0,0c0.6,0,1.2-0.3,1.6-0.7L81.4,59
				c0.8-0.9,0.7-2.2-0.1-3c-0.9-0.8-2.2-0.7-3,0.1L68,67.3L64.9,64c-0.8-0.9-2.2-0.9-3-0.1c-0.9,0.8-0.9,2.2-0.1,3L66.5,71.9z"/>
			<path style="fill:#336497;" d="M78.3,80.7L68,91.9l-3.2-3.4c-0.8-0.9-2.2-0.9-3-0.1c-0.9,0.8-0.9,2.2-0.1,3l4.8,5
				c0.4,0.4,1,0.7,1.6,0.7c0,0,0,0,0,0c0.6,0,1.2-0.3,1.6-0.7l11.8-12.9c0.8-0.9,0.7-2.2-0.1-3S79.1,79.8,78.3,80.7z"/>
			<path style="fill:#336497;" d="M78.3,105.3L68,116.5l-3.2-3.4c-0.8-0.9-2.2-0.9-3-0.1c-0.9,0.8-0.9,2.2-0.1,3l4.8,5
				c0.4,0.4,1,0.7,1.6,0.7c0,0,0,0,0,0c0.6,0,1.2-0.3,1.6-0.7l11.8-12.9c0.8-0.9,0.7-2.2-0.1-3C80.4,104.4,79.1,104.4,78.3,105.3z"
				/>
		</g>
	</g>
</g>
</svg>
