<?xml version="1.0" encoding="utf-8"?>
<!-- Generator: Adobe Illustrator 21.1.0, SVG Export Plug-In . SVG Version: 6.00 Build 0)  -->
<svg version="1.1" id="Layer_1" xmlns="http://www.w3.org/2000/svg" xmlns:xlink="http://www.w3.org/1999/xlink" x="0px" y="0px"
	 viewBox="0 0 175 175" style="enable-background:new 0 0 175 175;" xml:space="preserve">
<style type="text/css">
	.st0{fill:#355E86;}
</style>
<title>Artboard 22</title>
<path class="st0" d="M140.2,62.7l4-10.4c0.3-0.8-0.1-1.6-0.9-1.9c-0.1,0-0.2-0.1-0.2-0.1L130,47.6C107.9,24.2,71,23.1,47.6,45.2
	C33.8,58.2,27.2,77.2,30,96.1c-2.1,9.3,2.1,18.3,7.7,21.5c16.6,27.6,52.4,36.4,79.9,19.8c17.5-10.5,28.2-29.4,28.2-49.8
	C145.8,79,143.9,70.5,140.2,62.7z M137.2,62.2l-10.1,26.6l-1.6-3.8c-0.3-0.8-1.2-1.1-2-0.8c-0.4,0.2-0.7,0.4-0.8,0.8l-2.6,6.2
	l-6.7,0.6c-0.8,0.1-1.4,0.8-1.4,1.6c0,0.4,0.2,0.8,0.5,1l5.1,4.4l-1.5,6.6c-0.2,0.8,0.3,1.6,1.1,1.8c0.4,0.1,0.8,0,1.1-0.2l2.3-1.4
	c-8.7,20.5-17,23-22.5,23l0,0c-0.8,0-1.6-0.2-2.3-0.5c-5-2.2-8.9-10.7-6.7-19.1c0.2-0.8-0.3-1.6-1.1-1.8c0,0,0,0-0.1,0l-28.1-6.5
	L82.5,41l58.2,11.8L137.2,62.2z M127.4,98.7l0.9,4l-3.5-2.1c-0.5-0.3-1.1-0.3-1.6,0l-3.5,2.1l0.9-4c0.1-0.5-0.1-1.1-0.5-1.5
	l-3.1-2.7l4.1-0.3c0.6,0,1-0.4,1.3-0.9l1.6-3.8l1.6,3.8c0.2,0.5,0.7,0.9,1.3,0.9l4.1,0.3l-3.1,2.7C127.5,97.5,127.3,98.1,127.4,98.7
	L127.4,98.7z M87.5,32.3c13.7,0,26.8,5.1,37,14.3l-42.6-8.7c-0.7-0.1-1.4,0.3-1.7,0.9L56.9,100l-24.2-5.6
	c-3.8-30.3,17.6-57.9,47.8-61.7C82.8,32.4,85.2,32.3,87.5,32.3z M32.6,97.5l53.2,12.3c-1.2,5.9,0.1,12,3.7,16.9l-47.9-11h-0.1
	l-1.3-0.3C35.2,113.7,31.1,105.7,32.6,97.5z M87.5,142.7c-18.1-0.1-35.1-8.9-45.4-23.8l52.6,12c1.1,0.5,2.2,0.7,3.4,0.7l0,0
	c10.7,0,18.9-8.6,26.5-27.9l5.3,3.2c0.7,0.4,1.6,0.2,2.1-0.5c0.2-0.3,0.3-0.7,0.2-1.1l-1.5-6.6l5.1-4.4c0.6-0.5,0.7-1.5,0.2-2.1
	c-0.3-0.3-0.6-0.5-1-0.5l-5.5-0.5l9.4-24.6c2.7,6.6,4.1,13.7,4.1,20.8C142.7,118,118,142.7,87.5,142.7z"/>
<path class="st0" d="M47.3,62.6l4,3.5l-1.2,5.2c-0.2,0.8,0.3,1.6,1.1,1.8c0.4,0.1,0.8,0,1.1-0.2l4.7-2.8l4.6,2.8
	c0.7,0.4,1.6,0.2,2.1-0.5c0.2-0.3,0.3-0.7,0.2-1.1l-1.2-5.2l4-3.5c0.6-0.5,0.7-1.5,0.2-2.1c-0.3-0.3-0.6-0.5-1-0.5l-5.3-0.5
	l-2.1-4.9c-0.3-0.8-1.2-1.1-2-0.8c-0.4,0.2-0.7,0.4-0.8,0.8l-2.1,4.9l-5.3,0.5c-0.8,0.1-1.4,0.8-1.4,1.6C46.8,62,47,62.3,47.3,62.6
	L47.3,62.6z M54.7,62.4c0.6,0,1-0.4,1.3-0.9L57,59l1,2.5c0.2,0.5,0.7,0.9,1.3,0.9l2.7,0.2l-2,1.8c-0.4,0.4-0.6,0.9-0.5,1.5l0.5,2.6
	l-2.3-1.4c-0.5-0.3-1.1-0.3-1.5,0l-2.3,1.4l0.6-2.6c0.1-0.5,0-1.1-0.4-1.5l-2-1.8L54.7,62.4z"/>
<path class="st0" d="M61.5,47.1h2.6v2.6c0,0.8,0.7,1.5,1.5,1.5s1.5-0.7,1.5-1.5v-2.6h2.6c0.8,0,1.5-0.7,1.5-1.5s-0.7-1.5-1.5-1.5
	h-2.6v-2.6c0-0.8-0.7-1.5-1.5-1.5s-1.5,0.7-1.5,1.5v2.6h-2.6c-0.8,0-1.5,0.7-1.5,1.5S60.7,47.1,61.5,47.1z"/>
<path class="st0" d="M140.9,127h-2.6v-2.6c0-0.8-0.7-1.5-1.5-1.5s-1.5,0.7-1.5,1.5v2.6h-2.6c-0.8,0-1.5,0.7-1.5,1.5s0.7,1.5,1.5,1.5
	h2.6v2.6c0,0.8,0.7,1.5,1.5,1.5s1.5-0.7,1.5-1.5V130h2.6c0.8,0,1.5-0.7,1.5-1.5S141.7,127,140.9,127z"/>
<path class="st0" d="M37.4,43H40v2.6c0,0.8,0.7,1.5,1.5,1.5s1.5-0.7,1.5-1.5V43h2.6c0.8,0,1.5-0.7,1.5-1.5S46.4,40,45.6,40H43v-2.6
	c0-0.8-0.7-1.5-1.5-1.5S40,36.6,40,37.4V40h-2.6c-0.8,0-1.5,0.7-1.5,1.5S36.6,43,37.4,43L37.4,43z"/>
<path class="st0" d="M80.4,75.2c0-0.8-0.7-1.5-1.5-1.5s-1.5,0.7-1.5,1.5v2.6h-2.6c-0.8,0-1.5,0.7-1.5,1.5s0.7,1.5,1.5,1.5h2.6v2.6
	c0,0.8,0.7,1.5,1.5,1.5s1.5-0.7,1.5-1.5v-2.6H83c0.8,0,1.5-0.7,1.5-1.5s-0.7-1.5-1.5-1.5h-2.6L80.4,75.2z"/>
</svg>
