<?xml version="1.0" encoding="utf-8"?>
<!-- Generator: Adobe Illustrator 22.0.1, SVG Export Plug-In . SVG Version: 6.00 Build 0)  -->
<svg version="1.1" id="Layer_1" xmlns="http://www.w3.org/2000/svg" xmlns:xlink="http://www.w3.org/1999/xlink" x="0px" y="0px"
	 viewBox="0 0 175 175" style="enable-background:new 0 0 175 175;" xml:space="preserve">
<title>Artboard 14</title>
<g>
	<path style="fill:#336497;" d="M88,29.3c-31.9,0-57.9,26-57.9,57.9s26,57.9,57.9,57.9c31.9,0,57.9-26,57.9-57.9S120,29.3,88,29.3z
		 M88,142.2c-30.3,0-54.9-24.6-54.9-54.9S57.7,32.3,88,32.3c30.3,0,54.9,24.6,54.9,54.9S118.3,142.2,88,142.2z"/>
	<path style="fill:#336497;" d="M130.5,89l-7.6-6L120,70.8c-0.2-0.7-0.8-1.1-1.4-1.1h-13.3V58.9c0-0.8-0.7-1.5-1.5-1.5H46.5
		c-0.8,0-1.5,0.7-1.5,1.5v45.9c0,0.8,0.7,1.5,1.5,1.5h5.1v0.2c0,5.8,4.7,10.6,10.6,10.6c5.8,0,10.6-4.7,10.6-10.6v-0.2h26.6v0.2
		c0,5.8,4.7,10.6,10.6,10.6c5.8,0,10.6-4.7,10.6-10.6v-0.2h9c0.8,0,1.5-0.7,1.5-1.5V90.2C131,89.7,130.8,89.3,130.5,89z M128,103.3
		h-8c-1.4-4.3-5.4-7.4-10.1-7.4c-1.7,0-3.3,0.4-4.8,1.1V72.6h12.2l2.8,11.6c0.1,0.3,0.3,0.6,0.5,0.8l7.4,5.9V103.3z M117.5,106.5
		c0,4.2-3.4,7.6-7.6,7.6c-4.2,0-7.6-3.4-7.6-7.6c0-0.1,0-0.2,0-0.2c0-0.2,0-0.5,0.1-0.7c0-0.3,0.1-0.5,0.1-0.8
		c0.2-0.9,0.6-1.8,1.1-2.6c0.4-0.6,0.9-1.2,1.5-1.6c1.3-1.1,3-1.7,4.8-1.7c3,0,5.7,1.8,6.9,4.4c0.2,0.5,0.4,1,0.5,1.5
		c0.1,0.5,0.2,1,0.2,1.5C117.5,106.4,117.5,106.4,117.5,106.5z M69.8,106.5c0,4.2-3.4,7.6-7.6,7.6s-7.6-3.4-7.6-7.6
		c0-0.1,0-0.2,0-0.2c0-0.5,0.1-1,0.2-1.5c0.1-0.5,0.3-1,0.5-1.5c1.2-2.6,3.8-4.4,6.9-4.4c3,0,5.7,1.8,6.9,4.4c0.2,0.5,0.4,1,0.5,1.5
		c0.1,0.5,0.2,1,0.2,1.5C69.8,106.4,69.8,106.4,69.8,106.5z M62.2,96c-4.7,0-8.7,3.1-10.1,7.4H48V60.4h54.2v10.7v28.2
		c-1,1.1-1.8,2.5-2.3,4H72.3C70.9,99.1,66.9,96,62.2,96z"/>
</g>
<g>
	<path style="fill:#336497;" d="M704.3,48.3v-3c0-2.3-1.9-4.2-4.2-4.2h-4.2c-9.5-6.7-20.7-10.2-32.4-10.2
		c-11.7,0-22.9,3.5-32.4,10.2h-4.2c-2.3,0-4.2,1.9-4.2,4.2v3c-10.1,10.6-15.6,24.4-15.6,39c0,31.1,25.3,56.4,56.5,56.4
		c31.1,0,56.4-25.3,56.4-56.4C719.9,72.6,714.4,58.8,704.3,48.3z M622.7,121.8c-7.9-9.3-12.7-21.4-12.7-34.6
		c0-12.8,4.5-25,12.7-34.6V121.8z M663.5,33.7c9.6,0,18.9,2.5,27,7.3h-54.1C644.6,36.2,653.9,33.7,663.5,33.7z M695.8,129.9
		c0,0-12.9,10.9-32.4,10.9c-19.4,0-31.9-10.6-31.9-10.6c-2.1-1.6-4.1-3.3-6-5.2h0V45.2c0-0.7,0.6-1.3,1.3-1.3h73.2
		c0.7,0,1.3,0.6,1.3,1.3V125h0C699.7,126.7,697.8,128.4,695.8,129.9z M704.3,52.6c8.2,9.7,12.7,21.8,12.7,34.6
		c0,13.2-4.8,25.3-12.7,34.6V52.6z"/>
	<g>
		<g>
			<path style="fill:#336497;" d="M661.8,70h26.8c1.2,0,2.1-0.9,2.1-2.1s-0.9-2.1-2.1-2.1h-26.8c-1.2,0-2.1,0.9-2.1,2.1
				S660.7,70,661.8,70z"/>
			<path style="fill:#336497;" d="M661.8,92.9h26.8c1.2,0,2.1-0.9,2.1-2.1s-0.9-2.1-2.1-2.1h-26.8c-1.2,0-2.1,0.9-2.1,2.1
				S660.7,92.9,661.8,92.9z"/>
			<path style="fill:#336497;" d="M661.8,115.9h26.8c1.2,0,2.1-0.9,2.1-2.1s-0.9-2.1-2.1-2.1h-26.8c-1.2,0-2.1,0.9-2.1,2.1
				C659.7,115,660.7,115.9,661.8,115.9z"/>
			<path style="fill:#336497;" d="M642.5,72.3c0.4,0.4,0.9,0.7,1.5,0.7c0,0,0,0,0,0c0.6,0,1.1-0.3,1.5-0.7l11.5-12.6
				c0.8-0.9,0.7-2.2-0.1-3c-0.9-0.8-2.2-0.7-3,0.1l-10,10.9l-3.1-3.3c-0.8-0.8-2.1-0.9-3-0.1c-0.8,0.8-0.9,2.1-0.1,3L642.5,72.3z"/>
			<path style="fill:#336497;" d="M654,80.9l-10,10.9l-3.1-3.3c-0.8-0.8-2.1-0.9-3-0.1c-0.8,0.8-0.9,2.1-0.1,3l4.6,4.9
				c0.4,0.4,0.9,0.7,1.5,0.7c0,0,0,0,0,0c0.6,0,1.1-0.3,1.5-0.7l11.5-12.6c0.8-0.9,0.7-2.2-0.1-3C656.1,80,654.8,80,654,80.9z"/>
			<path style="fill:#336497;" d="M654,104.8l-10,10.9l-3.1-3.3c-0.8-0.8-2.1-0.9-3-0.1c-0.8,0.8-0.9,2.1-0.1,3l4.6,4.9
				c0.4,0.4,0.9,0.7,1.5,0.7c0,0,0,0,0,0c0.6,0,1.1-0.3,1.5-0.7l11.5-12.6c0.8-0.9,0.7-2.2-0.1-3C656.1,103.9,654.8,104,654,104.8z"
				/>
		</g>
	</g>
</g>
</svg>
