<?xml version="1.0" encoding="utf-8"?>
<!-- Generator: Adobe Illustrator 21.1.0, SVG Export Plug-In . SVG Version: 6.00 Build 0)  -->
<svg version="1.1" id="Layer_1" xmlns="http://www.w3.org/2000/svg" xmlns:xlink="http://www.w3.org/1999/xlink" x="0px" y="0px"
	 viewBox="0 0 150 149.9" style="enable-background:new 0 0 150 149.9;" xml:space="preserve">
<g>
	
		<rect x="63.5" y="52.4" style="fill:none;stroke:#336497;stroke-width:2;stroke-linejoin:round;stroke-miterlimit:10;" width="22.8" height="32.2"/>
	
		<rect x="52.1" y="88.5" style="fill:none;stroke:#336497;stroke-width:2;stroke-linejoin:round;stroke-miterlimit:10;" width="22.8" height="32.2"/>
	
		<rect x="74.9" y="88.5" style="fill:none;stroke:#336497;stroke-width:2;stroke-linejoin:round;stroke-miterlimit:10;" width="22.8" height="32.2"/>
	<path style="fill:none;" d="M96.2,62.5c-0.4,0-0.8-0.2-1.1-0.4c-0.3-0.2-0.4-0.7-0.4-1.1V39.5H42.5v80.8
		c9.4,6.8,20.6,10.4,32.4,10.4c0.1,0,0.3,0,0.4,0c14.9-0.1,28.8-6.1,39.2-16.6c1.1-1.1,2.1-2.2,3-3.4V62.5H96.2z"/>
	<polygon style="fill:none;" points="97.7,59.4 115.5,59.4 97.7,41.6 	"/>
	<path style="fill:none;" d="M130.7,74.5c-0.2-30.6-25.2-55.3-55.8-55.3c-0.1,0-0.3,0-0.4,0c-14.8,0.1-28.7,6.1-39.2,16.6
		s-16.1,24.6-16,39.4c0.1,14.8,6.1,28.8,16.6,39.2c1.2,1.2,2.4,2.3,3.7,3.3V38c0-0.8,0.7-1.5,1.5-1.5h55.2l0,0l0,0
		c0.2,0,0.4,0,0.5,0.1l0,0c0.2,0.1,0.3,0.2,0.5,0.3l0,0l23,23c0.2,0.1,0.3,0.3,0.4,0.5l0,0c0.1,0.2,0.1,0.4,0.1,0.6v45.7
		C127.2,97.4,130.8,86.2,130.7,74.5z"/>
	<path style="fill:#336497;" d="M74.9,16.2c-0.1,0-0.3,0-0.4,0C42.1,16.4,16,42.9,16.2,75.4c0.1,15.7,6.4,30.4,17.6,41.5
		c1.8,1.8,3.8,3.5,5.9,5c1,0.7,2,1.5,3,2.1c9.6,6.4,20.7,9.7,32.4,9.7c0.1,0,0.3,0,0.4,0c16.6-0.1,31.7-7.3,42.4-18.5
		c1-1.1,2-2.2,3-3.4c8.2-10.2,13.1-23.1,13-37.2C133.5,42.3,107.2,16.2,74.9,16.2z M114.6,114c-10.5,10.6-24.4,16.5-39.2,16.6
		c-0.1,0-0.3,0-0.4,0c-11.8,0-23-3.6-32.4-10.4V39.5h52.1V61c0,0.4,0.2,0.8,0.4,1.1s0.7,0.4,1.1,0.4h21.5v48.1
		C116.6,111.8,115.6,112.9,114.6,114z M97.7,59.4V41.6l17.9,17.9H97.7z M120.6,60.5L120.6,60.5c-0.1-0.2-0.2-0.4-0.4-0.5l-22.9-23
		l0,0c-0.1-0.1-0.3-0.2-0.5-0.3l0,0c-0.2-0.1-0.3-0.1-0.5-0.1l0,0l0,0H41c-0.8,0-1.5,0.7-1.5,1.5v79.9c-1.3-1-2.5-2.1-3.7-3.3
		c-10.5-10.5-16.4-24.4-16.5-39.3c-0.1-14.9,5.5-28.8,16-39.4s24.4-16.5,39.2-16.6c0.1,0,0.3,0,0.4,0c30.6,0,55.5,24.7,55.7,55.3
		c0.1,11.7-3.4,22.8-10,32.2V61C120.7,60.8,120.7,60.7,120.6,60.5z"/>
</g>
</svg>
