<?xml version="1.0" encoding="utf-8"?>
<!-- Generator: Adobe Illustrator 26.0.2, SVG Export Plug-In . SVG Version: 6.00 Build 0)  -->
<svg version="1.1" id="Layer_1" xmlns="http://www.w3.org/2000/svg" xmlns:xlink="http://www.w3.org/1999/xlink" x="0px" y="0px"
	 viewBox="0 0 175 175" style="enable-background:new 0 0 175 175;" xml:space="preserve">
<style type="text/css">
	.st0{fill:#FF6D35;}
</style>
<path class="st0" d="M145.4,81C141.8,49,113,26,81,29.6S26,62,29.6,94S62,149,94,145.4c0,0,0,0,0.1,0C126,141.8,148.9,113,145.4,81z
	 M93.7,142.4c-30.3,3.4-57.7-18.4-61-48.7S51,36,81.3,32.6s57.7,18.4,61,48.7l0,0C145.7,111.7,123.9,139,93.7,142.4z"/>
<path class="st0" d="M106.3,109.8c-0.5-0.7-1.4-0.8-2.1-0.4s-0.8,1.4-0.4,2.1c0,0,0,0.1,0.1,0.1l7.5,9.9c0.5,0.6,1.5,0.7,2.1,0.2
	s0.7-1.4,0.3-2L106.3,109.8z"/>
<path class="st0" d="M101.1,113.2c-0.4-0.7-1.3-1.1-2-0.7l0,0c-1.7,0.8-3.5,1.4-5.3,1.8c-0.8,0.2-1.3,0.9-1.2,1.8c0,0,0,0,0,0.1
	l2.8,12.2c0.2,0.7,0.8,1.2,1.5,1.2l0,0c3.2-0.2,6.2-1.3,8.9-3c0.6-0.4,0.9-1.2,0.6-1.9L101.1,113.2z M98,126.3l-2.2-9.4
	c1.1-0.3,2.1-0.7,3.2-1.1l4,8.7C101.4,125.4,99.7,126,98,126.3z"/>
<path class="st0" d="M87.5,115.1c-2.7,0-5.3-0.4-7.8-1.1c-0.8-0.2-1.6,0.2-1.9,1l-3.6,12c-0.2,0.8,0.2,1.6,1,1.9
	c4,1.2,8.1,1.8,12.3,1.8c0.8,0,1.5-0.7,1.5-1.5v-12.5C89,115.8,88.3,115.1,87.5,115.1z M86,127.5c-2.9-0.1-5.7-0.5-8.5-1.2l2.7-9.1
	c1.9,0.4,3.8,0.7,5.8,0.8V127.5z"/>
<path class="st0" d="M137.6,76.9l-8.1,0.9l-0.1-0.4c-0.1-0.3-0.1-0.5-0.2-0.8c0-0.1-0.1-0.3-0.1-0.4c0-0.2-0.1-0.4-0.2-0.7l-0.1-0.3
	l0,0v-0.1l-0.1-0.4c0-0.2-0.1-0.4-0.2-0.5s0-0.2-0.1-0.2l0,0v-0.1c-0.1-0.4-0.2-0.7-0.4-1.1l0,0v-0.1c-0.1-0.3-0.2-0.6-0.3-0.8
	s-0.2-0.5-0.3-0.7v-0.1l-0.1-0.2c-0.1-0.3-0.2-0.5-0.3-0.8s-0.3-0.7-0.5-1s-0.3-0.7-0.5-1V68l0,0l0,0c-0.2-0.4-0.4-0.7-0.5-1
	s-0.1-0.3-0.2-0.3s-0.2-0.3-0.2-0.4c-0.2-0.4-0.5-0.8-0.7-1.2s-0.5-0.8-0.8-1.2c0-0.1-0.1-0.1-0.1-0.2v-0.1
	c-0.1-0.1-0.2-0.2-0.2-0.4l-0.1-0.1c-0.2-0.3-0.4-0.6-0.6-0.9l0,0c-0.1-0.1-0.2-0.2-0.2-0.3c-0.2-0.3-0.5-0.7-0.8-1l-0.1-0.1
	c-0.3-0.4-0.6-0.8-0.9-1.1l-0.2-0.2c-0.3-0.3-0.5-0.6-0.8-0.9l-0.3-0.3l-0.1-0.1l-0.1-0.1c-0.7-0.8-1.4-1.5-2.3-2.2l-0.7-0.6
	l-0.1-0.1l-0.3-0.2l-0.2-0.2l-0.2-0.2l-0.4-0.4l-0.1-0.1c-0.1-0.1-0.2-0.2-0.3-0.2l-0.2-0.1l-0.3-0.3c-0.3-0.2-0.6-0.5-0.9-0.7
	l-0.2-0.2l-0.3-0.2l-0.3-0.2c-0.1-0.1-0.2-0.1-0.3-0.2c-0.3-0.2-0.6-0.4-0.8-0.5c-0.5-0.3-1-0.6-1.5-0.9l-0.5-0.3l-0.3-0.2
	c-0.4-0.2-0.8-0.4-1.2-0.6l-0.2-0.1c-0.4-0.2-0.9-0.5-1.3-0.7s-0.6-0.3-0.9-0.4l-0.5-0.2h-0.1l-0.2-0.1c-0.3-0.1-0.7-0.3-1-0.4
	l-0.4-0.2H103l-0.5-0.2l-0.2-0.1c-0.2-0.1-0.5-0.2-0.7-0.2c-1-0.4-2.1-0.7-3.1-0.9s-1.9-0.5-3-0.7h-0.2c-0.4-0.1-0.9-0.2-1.4-0.2
	h-0.1c-0.5-0.1-1-0.1-1.5-0.2s-1.1-0.1-1.6-0.1s-0.9,0-1.3-0.1h-0.7H86c-0.5,0-1,0-1.6,0.1s-1,0.1-1.5,0.1H83
	c-0.4,0-0.8,0.1-1.2,0.2l-0.6,0.1c-1.1,0.2-2.2,0.4-3.3,0.6c-5,1.2-9.8,3.3-14.1,6.2c-0.4,0.3-0.8,0.6-1.2,0.9s-0.5,0.4-0.8,0.6
	l-0.2,0.1L61,54.1l-0.3,0.2c-0.3,0.2-0.6,0.5-0.8,0.7l0,0l-0.1,0.1c-0.2,0.2-0.5,0.4-0.6,0.6s-0.4,0.3-0.6,0.5l-0.1,0.1l-0.1,0.1
	l-0.3,0.3c-0.2,0.2-0.5,0.5-0.7,0.7c-0.4,0.4-0.8,0.8-1.2,1.2s-0.6,0.6-0.9,1l-0.1,0.1L55,59.9l-0.2,0.2l-0.5,0.6
	c-0.1,0.1-0.2,0.3-0.3,0.4s-0.2,0.3-0.4,0.5l-0.2,0.3c-0.1,0.2-0.3,0.4-0.4,0.5l0,0.1l-0.2,0.3l-0.3,0.4l-0.4,0.6
	c-0.1,0.2-0.2,0.3-0.3,0.5c-0.2,0.3-0.4,0.6-0.6,0.9L51,65.5v0.1l-0.1,0.1c-0.1,0.2-0.3,0.5-0.4,0.7l-0.1,0.2
	c-0.1,0.1-0.1,0.2-0.2,0.3c-0.2,0.3-0.4,0.6-0.5,1V68c-0.1,0.2-0.2,0.5-0.4,0.7v0.1c-0.1,0.2-0.2,0.4-0.3,0.6s-0.1,0.3-0.2,0.4
	s-0.2,0.4-0.3,0.6s-0.2,0.4-0.2,0.6c-0.2,0.4-0.3,0.8-0.5,1.2v0.1c0,0.1-0.1,0.2-0.1,0.3l1.4,0.5l-1.5-0.4c-0.1,0.2-0.2,0.5-0.2,0.7
	s-0.2,0.5-0.2,0.6c-0.1,0.4-0.2,0.7-0.3,1c-0.1,0.2-0.1,0.4-0.2,0.6v0.1c-0.2,0.5-0.3,0.9-0.4,1.4c-0.2,0.9-0.5,1.9-0.7,3
	c0,0.1,0,0.2-0.1,0.3l0,0c-0.1,0.4-0.2,0.9-0.2,1.3v0.1c-0.1,0.5-0.1,1-0.2,1.5s-0.1,1-0.1,1.5c0,0.1,0,0.1,0,0.2l0,0
	c0,0.4,0,0.7-0.1,1.1v0.4c0,0.1,0,0.2,0,0.3c0,0.3,0,0.6,0,0.8c0,0.7,0,1.4,0,2.2c0,0.3,0,0.7,0.1,1.1V91v0.1c0,0.2,0,0.4,0.1,0.7
	s0,0.5,0.1,0.7l1-0.5l-1.5,0.3c0,0.4,0.1,0.8,0.1,1.1c0,0.1,0,0.1,0,0.2l0.1,0.9c0.1,0.5,0.2,1,0.3,1.6c0.1,0.3,0.1,0.7,0.2,1
	l0.1,0.6c0.1,0.5,0.3,1.1,0.4,1.6c0,0.2,0.1,0.4,0.2,0.6l0.1,0.2v0.1c0.3,0.9,0.5,1.6,0.8,2.3c0.1,0.3,0.2,0.6,0.3,0.8l0.1,0.2l0,0
	c0,0.1,0.1,0.3,0.2,0.4c0.1,0.2,0.1,0.3,0.2,0.5c0.4,0.9,0.8,1.9,1.3,2.7c0.5,1,1.1,2,1.6,2.9c0.1,0.2,0.2,0.3,0.3,0.5l0.7,1.1
	c0.2,0.4,0.5,0.7,0.7,1.1s0.4,0.6,0.7,0.9l0.5,0.7l0,0l0,0c0.2,0.3,0.5,0.6,0.7,0.9s0.2,0.3,0.4,0.4s0.4,0.5,0.6,0.7l0.2,0.2
	c0.5,0.5,1,1.1,1.5,1.6s0.8,0.8,1.2,1.2s0.8,0.8,1.3,1.1l0.1,0.1c0.3,0.3,0.6,0.5,0.9,0.8s0.4,0.3,0.6,0.5l0.5,0.4l0.1,0.1l0.1,0.1
	c0.2,0.2,0.5,0.3,0.7,0.5l0.6,0.4l0.7,0.5H64c0.3,0.2,0.5,0.3,0.7,0.5l0.3,0.2l0.2,0.1l0.1,0.1c0.3,0.2,0.5,0.3,0.8,0.5l0.2,0.1
	l0.3,0.2c0.3,0.2,0.6,0.4,1,0.5c0.2,0.1,0.4,0.2,0.7,0.2h0.2c0.5-0.1,0.9-0.4,1.2-0.8l5.8-11c0.4-0.7,0.1-1.7-0.7-2l0,0l-0.2-0.1
	c-0.4-0.2-0.7-0.4-1.1-0.6l-0.6-0.3l-0.4-0.2l-0.5-0.3c-0.2-0.2-0.5-0.3-0.7-0.5s-0.5-0.4-0.8-0.6h-0.1l0,0l-0.1-0.1l-0.1-0.1
	c-0.3-0.2-0.6-0.5-0.8-0.7l-0.1-0.1l-0.3-0.3l-0.2-0.2l-0.2-0.2l-0.1-0.1c-0.1-0.1-0.2-0.2-0.3-0.3v-0.1c-0.2-0.2-0.4-0.4-0.6-0.6
	l-0.2-0.3l-0.5-0.6l-0.1-0.1c-0.1-0.1-0.1-0.2-0.2-0.2l-0.5-0.6l-0.1-0.1l-0.1-0.2l-0.1-0.1l-0.5-0.7c-0.1-0.2-0.2-0.3-0.4-0.5v-0.1
	l-0.1-0.2l-1.2,0.9l1.2-1c-0.2-0.4-0.5-0.7-0.8-1.2c-0.1-0.2-0.2-0.4-0.3-0.6c-0.2-0.3-0.3-0.5-0.4-0.8s-0.2-0.4-0.3-0.7v-0.1
	L62.5,99l0,0c-0.1-0.2-0.2-0.5-0.3-0.7v-0.1V98c0-0.1-0.1-0.1-0.1-0.2l0,0L62,97.6c-0.1-0.2-0.2-0.4-0.2-0.6l-0.2-0.5
	c0-0.1-0.1-0.2-0.2-0.4V96l0,0c0-0.1-0.1-0.3-0.1-0.4l0,0v-0.1c0-0.1,0-0.1-0.1-0.2c0-0.1,0-0.1,0-0.2V95c0-0.1,0-0.2-0.1-0.3v-0.2
	v-0.2c0-0.2-0.1-0.3-0.1-0.5l0,0c0-0.1,0-0.2-0.1-0.3c0,0,0-0.1,0-0.2s0-0.2,0-0.3v-0.1l-0.2-0.8V92v0c-0.1-0.4-0.1-0.9-0.2-1.3
	v-0.1c0-0.4-0.1-0.8-0.1-1.2c0-0.1,0-0.1,0-0.2v-0.1c0-0.1,0-0.1,0-0.2c0-0.2,0-0.3,0-0.5s0-0.1,0-0.2s0-0.2,0-0.2s0-0.1,0-0.2v-0.1
	c0-0.4,0-0.9,0-1.4c0-0.2,0-0.4,0-0.6c0-0.1,0-0.2,0-0.3c0-0.1,0-0.1,0-0.2c0-0.2,0-0.3,0-0.5v-0.1c0-0.2,0-0.4,0.1-0.6
	c0-0.1,0-0.2,0-0.2s0-0.1,0-0.2s0-0.1,0-0.2c0-0.4,0.1-0.8,0.2-1.2c0-0.2,0.1-0.3,0.1-0.5s0.1-0.3,0.1-0.4s0-0.2,0-0.2
	s0-0.1,0.1-0.2s0.1-0.4,0.1-0.6v-0.1V80c0-0.1,0.1-0.3,0.1-0.4s0.1-0.2,0.1-0.2c0-0.1,0.1-0.1,0.1-0.2c0-0.2,0.1-0.4,0.2-0.6v-0.1
	c0-0.1,0-0.2,0.1-0.3v-0.1V78l0,0l0.1-0.1c0-0.1,0.1-0.3,0.2-0.5l0.2-0.5l0.1-0.2l0.1-0.2v-0.1l0.1-0.1c0-0.1,0.1-0.2,0.1-0.3
	l0.1-0.1l0.1-0.2c0.1-0.3,0.3-0.6,0.5-0.9s0.4-0.8,0.6-1.1l0,0v-0.1l0.7-1.1l0.2-0.2c0.2-0.3,0.4-0.6,0.6-0.9s0.5-0.7,0.8-1.1
	s0.6-0.7,0.9-1s0.4-0.4,0.6-0.7l0.2-0.3c0.1-0.1,0.2-0.2,0.3-0.3L68,68c0.2-0.2,0.4-0.4,0.6-0.6s0.6-0.6,0.9-0.8l0.2-0.2
	c0.2-0.2,0.4-0.3,0.7-0.5l0.2-0.2l0.6-0.4l0.1-0.1l0,0l0.4-0.3c0.3-0.2,0.7-0.5,1-0.7l0.1-0.1h0.1l0.2-0.1l0.8-0.5H74
	c0.3-0.2,0.6-0.3,0.9-0.5l0.1,0l0.2-0.1h0.1c0.1,0,0.2-0.1,0.3-0.1h0.1l0.2-0.1l0.3-0.1h0.1l0.3-0.1l0.2-0.1l0.8-0.3h0.2l0.5-0.2
	l0.2-0.1l0.3-0.1l0.3-0.1H79l0.9-0.3H80h0.2c0.4-0.1,0.9-0.2,1.3-0.3c0.9-0.2,1.8-0.3,2.8-0.5c0.8-0.1,1.7-0.2,2.7-0.2h0.4
	c0.4,0,0.8,0,1.2,0h0.1l1.3,0.1h0.1l1.2,0.1h0.1c0.4,0,0.8,0.1,1.2,0.2h0.1h0.1l0.3,0.1h0.2c0.3,0.1,0.7,0.1,1,0.2
	c0.3,0.1,0.7,0.2,1.1,0.3h0.1h0.1l0.2,0.1h0.1l0.7,0.2h0.2l1.4,0.5l1.1,0.5c0.3,0.1,0.6,0.3,1,0.5h0.1h0.1l1.2,0.7
	c1.9,1.1,3.7,2.5,5.2,4l0.1,0.1c0.3,0.3,0.6,0.6,0.9,0.9s0.6,0.6,0.8,0.9l0.8,0.9l0.1,0.2c0.3,0.3,0.5,0.7,0.8,1.1l0.1,0.1l0.1,0.2
	c0.1,0.1,0.2,0.3,0.3,0.4l0.1,0.1l0.1,0.2l0.1,0.1l0.1,0.2l0.1,0.1c0.2,0.3,0.3,0.6,0.5,0.9l0,0v0.1c0.2,0.3,0.3,0.6,0.5,1
	c0,0.1,0.1,0.2,0.1,0.2v0.1l0.2,0.3c0.1,0.2,0.2,0.4,0.3,0.6c0,0.1,0.1,0.1,0.1,0.2v-0.1l0,0c0,0.1,0.1,0.2,0.1,0.3L113,77l0.3,0.8
	c0,0.1,0.1,0.2,0.1,0.2l0.1,0.2l0.2,0.6l0.1,0.2c0,0.1,0.1,0.2,0.1,0.4v0.2l-8.6,1c-0.8,0.1-1.4,0.8-1.3,1.7c0,0.4,0.2,0.8,0.6,1
	l18,14.3c0.3,0.2,0.7,0.4,1.1,0.3c0.4,0,0.8-0.2,1-0.6l14.3-18c0.5-0.6,0.4-1.6-0.2-2.1C138.4,77,138,76.9,137.6,76.9L137.6,76.9z
	 M123.2,94.2l-14-11.1l6.7-0.8c0.8-0.1,1.4-0.8,1.3-1.7c0-0.1,0-0.1,0-0.2l-0.1-0.2c-0.1-0.2-0.1-0.5-0.2-0.7v-0.2
	c-0.1-0.2-0.1-0.4-0.2-0.6s0-0.2-0.1-0.2s-0.1-0.3-0.1-0.4s-0.1-0.2-0.1-0.3l-0.3-0.8l-0.1-0.1c0-0.1,0-0.1-0.1-0.2l-0.3-0.8
	l-0.1-0.3c-0.1-0.2-0.1-0.3-0.2-0.4l-0.1-0.1c-0.1-0.2-0.2-0.5-0.3-0.7s-0.1-0.3-0.2-0.4s-0.1-0.3-0.2-0.4c-0.2-0.3-0.4-0.7-0.6-1.1
	l0,0c-0.2-0.3-0.4-0.7-0.6-1l-0.2-0.3l-0.1-0.1l0,0l-0.2-0.4c-0.1-0.2-0.2-0.3-0.3-0.5s-0.1-0.2-0.2-0.3c-0.3-0.4-0.6-0.8-0.8-1.2
	c-0.1-0.1-0.1-0.2-0.2-0.3l-0.8-0.9c-0.3-0.3-0.6-0.7-0.9-1s-0.6-0.7-0.9-1c-0.1-0.1-0.2-0.2-0.2-0.2c-1.7-1.7-3.7-3.1-5.7-4.3
	l-1.2-0.7h-0.1l-0.1-0.1c-0.4-0.2-0.8-0.4-1.2-0.6L99,59.1l0,0.1l-0.1-0.1l-1.2-0.4h-0.1l-0.2-0.1l-0.7-0.2l-0.4-0.1l0,0h-0.1
	c-0.4-0.1-0.8-0.2-1.2-0.3c-0.4-0.1-0.8-0.2-1.2-0.3l-0.4-0.1c-0.1,0-0.2,0-0.3-0.1c-0.4-0.1-0.8-0.1-1.2-0.2h-0.1l0,0l-1.4-0.2
	h-0.1c-0.5,0-0.9-0.1-1.3-0.1h-0.1c-0.4,0-0.9,0-1.3,0H87c-1,0-2,0.1-2.9,0.2c-1,0.1-2.1,0.3-3.1,0.5c-0.5,0.1-1,0.2-1.5,0.4
	l-0.3,0.1l-1,0.3L78,58.6l-0.2,0.1l-0.5,0.2h-0.2l-0.6,0.2l-0.2,0.1c-0.3,0.1-0.6,0.2-0.8,0.3h-0.1L75,59.7l-0.5,0.2l-0.3,0.2
	l-0.4,0.2l-0.2,0.1c-0.3,0.2-0.7,0.4-1.1,0.5L72.4,61l-0.9,0.5l-0.2,0.2l-0.1,0.1c-0.4,0.2-0.8,0.5-1.3,0.8l-0.3,0.2L69.4,63
	l-0.6,0.5l-0.2,0.2c-0.3,0.2-0.5,0.4-0.8,0.6l-0.2,0.2c-0.4,0.3-0.7,0.6-1,0.9s-0.5,0.4-0.7,0.7s-0.3,0.3-0.5,0.5l-0.2,0.2
	c-0.2,0.2-0.4,0.5-0.6,0.7s-0.6,0.7-0.9,1.1s-0.6,0.8-0.9,1.2s-0.5,0.7-0.7,1L61.9,71l-0.7,1l0,0v0.1c-0.2,0.4-0.5,0.8-0.7,1.2
	S60.2,74,60,74.4l-0.1,0.2c-0.1,0.2-0.1,0.3-0.2,0.5l-0.1,0.2v0.1c-0.1,0.1-0.1,0.2-0.2,0.4l-0.2,0.4c-0.1,0.2-0.2,0.4-0.2,0.6v0.1
	c-0.1,0.1-0.1,0.3-0.1,0.4s-0.1,0.2-0.1,0.4s-0.2,0.5-0.2,0.8c0,0.1-0.1,0.2-0.1,0.4c-0.1,0.2-0.1,0.4-0.2,0.6s0,0.2-0.1,0.3
	l-0.1,0.6c0,0.2-0.1,0.3-0.1,0.4s0,0.2-0.1,0.3v0.1c-0.1,0.2-0.1,0.4-0.1,0.7c-0.1,0.4-0.2,0.9-0.2,1.3c0,0.2-0.1,0.4-0.1,0.5
	c0,0.3-0.1,0.6-0.1,0.8c0,0.2,0,0.4-0.1,0.6c0,0.1,0,0.3,0,0.4c0,0.2,0,0.5,0,0.8c0,0.5,0,1,0,1.5c0,0.1,0,0.2,0,0.3
	c0,0.2,0,0.3,0,0.5s0,0.4,0,0.6s0,0.1,0,0.1c0,0.1,0,0.2,0,0.4c0,0.4,0.1,0.9,0.1,1.3v0c0.1,0.5,0.1,1,0.2,1.4c0,0.1,0,0.2,0,0.2
	v0.2l0.1,0.7c0,0.1,0,0.2,0,0.3c0,0.1,0,0.2,0.1,0.4c0,0.1,0,0.1,0.1,0.2v0.1c0,0.2,0.1,0.4,0.1,0.6s0,0.2,0.1,0.3
	c0,0.1,0.1,0.2,0.1,0.4c0,0.1,0,0.2,0.1,0.3s0,0.2,0.1,0.3s0.1,0.4,0.2,0.6l0,0c0.1,0.2,0.1,0.4,0.2,0.5L59,98
	c0.1,0.3,0.2,0.5,0.3,0.8v0.1l0,0c0,0,0,0.1,0.1,0.2l0.1,0.2c0.1,0.3,0.2,0.6,0.4,0.9v0.1l0.1,0.2l0.1,0.2c0.1,0.3,0.2,0.5,0.4,0.8
	s0.3,0.6,0.5,0.9c0.1,0.3,0.3,0.5,0.4,0.7c0.3,0.5,0.5,0.9,0.8,1.4l0,0c0,0.1,0.1,0.2,0.2,0.2v0.1c0.1,0.2,0.3,0.4,0.4,0.6
	s0.3,0.5,0.5,0.7l0.1,0.2l0.1,0.2l0.1,0.2l0.5,0.7l0.1,0.1c0.1,0.1,0.2,0.2,0.2,0.3l0.5,0.6l0.1,0.1l0.1,0.2l0.1,0.1
	c0.2,0.2,0.4,0.5,0.7,0.7s0.3,0.3,0.5,0.5l0.2,0.2c0.1,0.1,0.2,0.2,0.3,0.3l0.4,0.3l0.1,0.1c0.3,0.2,0.6,0.5,0.9,0.8l0.1,0.1
	l0.2,0.1c0.3,0.2,0.6,0.4,0.8,0.6s0.6,0.4,0.8,0.6s0.4,0.3,0.6,0.4l0.3,0.2l0.6,0.4l0.2,0.1l-4.4,8.4l0,0c-0.2-0.1-0.4-0.2-0.6-0.3
	l-0.1-0.1l-0.3-0.2l-0.2-0.1c-0.2-0.2-0.5-0.3-0.8-0.5l-0.2-0.1l-0.6-0.4l-0.6-0.4c-0.2-0.1-0.4-0.3-0.6-0.4l-0.1-0.1l-0.6-0.5
	c-0.2-0.1-0.3-0.2-0.5-0.4s-0.6-0.5-0.9-0.7l-0.1-0.1c-0.4-0.3-0.8-0.7-1.2-1s-0.8-0.7-1.2-1.1s-0.9-1-1.4-1.4l-0.1-0.2l-1.1,1.1
	l1-1.1c-0.2-0.2-0.4-0.4-0.5-0.6l-0.1-0.1c-0.1-0.1-0.1-0.2-0.2-0.3s-0.5-0.6-0.7-0.8l0,0v-0.1l-0.5-0.6c-0.2-0.3-0.4-0.5-0.6-0.8
	s-0.5-0.7-0.7-1l-0.7-1.1c-0.1-0.1-0.1-0.2-0.2-0.4c-0.5-0.9-1-1.8-1.5-2.8c-0.4-0.8-0.8-1.7-1.2-2.5V103c0-0.1-0.1-0.2-0.2-0.3
	c0-0.1-0.1-0.1-0.1-0.2l-0.1-0.2l-0.1-0.2c-0.1-0.2-0.2-0.4-0.3-0.7c-0.2-0.6-0.4-1.2-0.7-2.1v-0.1l-0.1-0.3c0-0.2-0.1-0.3-0.2-0.5
	c-0.1-0.5-0.3-0.9-0.4-1.4l-0.1-0.6c-0.1-0.3-0.1-0.6-0.2-1s0.2-0.9,0.1-1.4l-0.1-0.8c0-0.1,0-0.1,0-0.2c0-0.3-0.1-0.7-0.1-1v-0.2
	c0-0.2,0-0.5-0.1-0.7V91c0-0.1,0-0.2,0-0.3c0-0.1,0-0.1,0-0.2v-0.2c0-0.3,0-0.6,0-0.9c0-0.7,0-1.4,0-2.1c0-0.2,0-0.5,0-0.8
	c0,0,0-0.1,0-0.2s0-0.1,0-0.1v-0.4c0-0.3,0-0.6,0-0.9c0-0.1,0-0.2,0-0.2l0,0c0-0.5,0.1-1,0.1-1.5s0.1-0.9,0.2-1.3v-0.1
	c0.1-0.4,0.1-0.9,0.2-1.3v-0.1v-0.1c0.2-1,0.4-2,0.6-2.8c0.1-0.4,0.2-0.9,0.3-1.2c0-0.1,0.1-0.2,0.1-0.3c0-0.1,0.1-0.2,0.1-0.4
	c0.1-0.3,0.2-0.6,0.3-1c0-0.2,0.1-0.3,0.2-0.5l0.2-0.5c0-0.1,0.1-0.2,0.1-0.3l0.1-0.3c0.1-0.3,0.3-0.7,0.5-1.1
	c0-0.1,0.1-0.2,0.2-0.4s0.1-0.3,0.2-0.5v-0.1l0.1-0.2l0.1-0.1c0.1-0.2,0.2-0.3,0.2-0.5l0.1-0.1c0.1-0.2,0.2-0.4,0.3-0.6l0,0L52,69
	l0.1-0.2c0.1-0.2,0.2-0.5,0.4-0.8l0.1-0.1c0.1-0.1,0.1-0.1,0.1-0.2l0.1-0.1c0.1-0.2,0.2-0.4,0.4-0.7l0.2-0.3l0.2-0.2
	c0.2-0.2,0.3-0.5,0.5-0.8l0.1-0.1l0.1-0.2l0.1-0.1l0.1-0.1l0.4-0.6l0.2-0.3l0.1-0.1l0.1-0.2l0.1-0.2l0.3-0.5l0.2-0.3l0.2-0.3
	l0.1-0.1l0.2-0.3l0.4-0.5l0.3-0.3l0.1-0.1l0.2-0.2c0.2-0.3,0.5-0.6,0.8-0.8s0.7-0.8,1.1-1.1c0.2-0.2,0.4-0.4,0.7-0.7l0.2-0.2
	l0.2-0.1l0.1-0.1c0.1-0.1,0.3-0.3,0.5-0.4s0.4-0.4,0.6-0.5l0.2-0.2c0.2-0.2,0.4-0.4,0.7-0.5l0.8-0.7l0.1-0.1
	c0.2-0.2,0.5-0.4,0.7-0.5l0.1-0.1c0.4-0.3,0.8-0.5,1.1-0.8c4-2.7,8.4-4.6,13.1-5.7c1-0.2,2-0.4,3.1-0.6l0.4-0.1H82
	c0.4-0.1,0.7-0.1,1.1-0.1h0.1l1.4-0.1c0.5,0,1-0.1,1.5-0.1h2.5h0.7c0.4,0,0.8,0,1.2,0.1s1,0.1,1.5,0.1l1.3,0.2h0.2
	c0.4,0.1,0.9,0.1,1.3,0.2h0.1H95c1,0.2,1.9,0.4,2.8,0.6s1.9,0.5,2.9,0.9l0.5,0.2l0.2,0.1l0.4,0.2l0.3,0.1l0.2,0.1h0.1
	c0.3,0.1,0.6,0.2,0.9,0.4l0.2,0.1l0.6,0.3c0.2,0.1,0.5,0.2,0.8,0.4s0.8,0.4,1.2,0.6L106,52l0.2,0.1l1.1,0.6l0.3,0.2l0.5,0.3
	c0.5,0.3,0.9,0.6,1.4,0.9c0.2,0.1,0.5,0.3,0.7,0.5l0.2,0.1l0.4,0.3l0.3,0.2l0.1,0.1c0.3,0.2,0.5,0.4,0.8,0.6l0.4,0.3l0.2,0.1l0,0
	l0.1,0.1l0.2,0.2l0.3,0.3l0.3,0.2l0.1,0.1l0.3,0.3l0.7,0.6c0.7,0.7,1.4,1.3,2.1,2.1l0.2,0.2l0.3,0.3c0.3,0.3,0.5,0.6,0.8,0.9l0,0
	l0,0c0.3,0.4,0.6,0.7,0.9,1.1l0.1,0.1c0.2,0.3,0.5,0.6,0.7,0.9l0.1,0.1l0.1,0.1L120,64c0.2,0.2,0.3,0.4,0.5,0.7l0.1,0.1l0.2,0.3
	l0.1,0.1v0.1l0.1,0.1c0.3,0.4,0.5,0.8,0.8,1.2s0.4,0.7,0.6,1l0.1,0.1c0.1,0.1,0.1,0.2,0.2,0.3l0.2,0.3c0.2,0.3,0.3,0.6,0.5,0.9l0,0
	l0,0v0.1c0.2,0.3,0.3,0.6,0.5,1s0.3,0.6,0.4,1s0.2,0.5,0.3,0.7l0.1,0.3c0.1,0.2,0.2,0.4,0.2,0.6s0.2,0.5,0.3,0.8v0.1
	c0.1,0.3,0.2,0.7,0.3,1v0.1c0,0.1,0.1,0.2,0.1,0.3v0.1c0,0.1,0.1,0.2,0.1,0.4l0.1,0.4v0.1l0,0l0.1,0.2v0.1c0,0.2,0.1,0.3,0.1,0.4
	s0,0.1,0.1,0.2c0,0.1,0,0.1,0,0.2s0,0.1,0,0.2c0.1,0.2,0.1,0.4,0.2,0.6l0.1,0.5c0,0.2,0.1,0.3,0.1,0.6c0,0.1,0,0.2,0.1,0.3l0.1,0.3
	c0.1,0.8,0.9,1.3,1.6,1.2l5.9-0.7L123.2,94.2z"/>
<path class="st0" d="M87.5,65.9c-0.8,0-1.5,0.7-1.5,1.5V87l-8.6,12.2c-0.5,0.7-0.4,1.6,0.3,2.1s1.6,0.4,2.1-0.3c0,0,0,0,0-0.1
	l8.9-12.5c0.2-0.3,0.3-0.6,0.3-0.9V67.4C89,66.6,88.3,65.9,87.5,65.9z"/>
</svg>
