<?xml version="1.0" encoding="utf-8"?>
<!-- Generator: Adobe Illustrator 26.0.2, SVG Export Plug-In . SVG Version: 6.00 Build 0)  -->
<svg version="1.1" id="Layer_1" xmlns="http://www.w3.org/2000/svg" xmlns:xlink="http://www.w3.org/1999/xlink" x="0px" y="0px"
	 viewBox="0 0 175 175" style="enable-background:new 0 0 175 175;" xml:space="preserve">
<style type="text/css">
	.st0{fill:#FF6D35;}
	.st1{fill:#336497;}
</style>
<g>
	<path class="st0" d="M88,29.5c-16.9,0-32.8,7.3-43.8,20.1H38c-0.8,0-1.5,0.7-1.5,1.5V61c-4.2,8.1-6.4,17.2-6.4,26.4
		c0,2.7,0.2,5.5,0.6,8.2l-4.3,4.3c-0.6,0.6-0.6,1.5,0,2.1l8.5,8.5c9.2,21.2,30,34.9,53.1,34.9c31.9,0,57.9-26,57.9-57.9
		C145.9,55.5,120,29.5,88,29.5z M89.7,52.6c-1.7,1.2-3.6,2.7-5.2,4.6l0,0l-15.2,0.5c-0.4,0-0.7,0.2-1,0.4L39.5,86.8V52.6H89.7z
		 M110.3,93.6c-2,0-4,0.5-5.6,1.4V66.5H119l3.2,13.4c0.1,0.3,0.3,0.6,0.5,0.8l8.5,6.8V102h-9.5C120.2,97.1,115.7,93.6,110.3,93.6z
		 M110.3,96.6c4.9,0,8.9,4,8.9,8.9s-4,8.9-8.9,8.9s-8.9-4-8.9-8.9C101.5,100.5,105.5,96.6,110.3,96.6z M101.7,65v32.3
		c-1.2,1.3-2.2,2.9-2.7,4.6H82.2l15-15c0.3-0.3,0.4-0.6,0.4-1l0.5-15.2c0-0.4-0.1-0.8-0.4-1.1l-3.3-3.3c2-6,2.3-11.3,2.3-13.8h5V65z
		 M92,64l-5.1-5.1c2.1-2.4,4.9-4.2,6.8-5.3C93.6,55.9,93.2,59.7,92,64z M33.1,87.4c0-6.5,1.2-12.9,3.4-19v21.3l-3.1,3.1
		C33.2,91.1,33.1,89.2,33.1,87.4z M69.9,60.5l13.9-0.4l7.1,7.1c-0.2,0.6-0.5,1.2-0.7,1.7c-0.8,1.9-1.7,3.1-2.5,3.8
		c-0.2-1.3-0.9-2.5-1.8-3.4c-2.6-2.5-6.7-2.5-9.3,0c-1.2,1.2-1.9,2.9-1.9,4.6s0.7,3.4,1.9,4.6c1.2,1.2,2.9,1.9,4.6,1.9
		c1.8,0,3.4-0.7,4.6-1.9c0.6-0.6,1.1-1.4,1.4-2.2c1.9-0.7,4-2.6,5.6-6.3c0.1-0.2,0.2-0.4,0.3-0.7l1.9,1.9l-0.4,13.9l-40.3,40.3
		l-24.7-24.7L69.9,60.5z M83,70.9c0.3,0.1,0.5,0.3,0.7,0.5c0.6,0.6,0.9,1.4,1,2.2C83.9,73.4,83.1,72.4,83,70.9z M80.1,70.6
		c0,2.7,1.4,5.1,3.7,5.9l0,0c-1.3,1.4-3.7,1.3-5.1,0c-0.7-0.7-1-1.6-1-2.5s0.4-1.9,1-2.5C79.1,71.1,79.6,70.8,80.1,70.6z M88,142.3
		c-18.6,0-35.7-9.4-45.7-24.5l11,11c0.3,0.3,0.7,0.4,1.1,0.4c0.4,0,0.8-0.2,1.1-0.4L79.2,105h19.3c0,0.2,0,0.3,0,0.5
		c0,6.5,5.3,11.8,11.8,11.8s11.9-5.3,11.9-11.8c0-0.2,0-0.3,0-0.5h10.5c0.8,0,1.5-0.7,1.5-1.5V86.7c0-0.5-0.2-0.9-0.6-1.2l-8.7-6.9
		l-3.3-14c-0.2-0.7-0.8-1.1-1.5-1.1h-15.4V51.1c0-0.8-0.7-1.5-1.5-1.5h-55C58.6,38.7,72.9,32.5,88,32.5c30.3,0,54.9,24.6,54.9,54.9
		S118.3,142.3,88,142.3z"/>
	<g>
		<path class="st0" d="M50.2,110.1c-0.7-0.3-0.8-0.9-0.4-1.5l0.5-0.9c0.3-0.5,0.8-0.6,1.4-0.4c0.8,0.2,1.6-0.1,2.4-0.9
			c0.8-0.8,1.1-1.7,0.5-2.3c-0.4-0.4-1-0.5-1.9,0l-1.6,0.8c-1.1,0.6-3.8,1.7-5.6-0.1c-1.9-1.9-1.5-4.6,0.6-6.7c1.5-1.5,3.3-2,5-1.4
			c0.7,0.2,0.9,0.8,0.5,1.4L51.1,99c-0.3,0.6-0.7,0.7-1.4,0.6c-0.5-0.1-1.1,0.1-1.6,0.6c-0.6,0.6-0.9,1.4-0.3,2
			c0.3,0.3,0.8,0.5,1.8,0l1.6-0.8c2.8-1.4,4.5-1.1,5.8,0.2c2,2,1.3,4.8-0.9,7C54.3,110.4,52.1,111,50.2,110.1z"/>
		<path class="st0" d="M59.6,103l-5.2-11.7c-0.2-0.6-0.1-1,0.3-1.5l1.1-1.1c0.4-0.4,0.9-0.5,1.5-0.3l11.8,5.1
			c0.7,0.3,0.9,0.9,0.3,1.5l-1.1,1.1c-0.4,0.4-0.9,0.5-1.5,0.3l-1.6-0.7l-3.4,3.4l0.7,1.6c0.3,0.6,0.2,1-0.3,1.5l-1.1,1.1
			C60.5,103.9,59.9,103.8,59.6,103z M62.6,94.2L58,92l2.1,4.7L62.6,94.2z"/>
		<path class="st0" d="M68.4,77.7l0.7,0.7c0.5,0.5,0.5,1,0,1.5L67,82l6.9,6.9c0.5,0.5,0.5,1,0,1.5l-1,1c-0.5,0.5-1,0.5-1.5,0
			l-6.9-6.9l-2,2c-0.5,0.5-1,0.5-1.5,0l-0.7-0.7c-0.5-0.5-0.5-1,0-1.5l6.7-6.7C67.4,77.2,67.9,77.2,68.4,77.7z"/>
	</g>
</g>
<g>
	<path class="st1" d="M527,30.8c-31.1,0-56.4,25.3-56.4,56.4s25.3,56.4,56.4,56.4s56.5-25.3,56.5-56.4S558.1,30.8,527,30.8z
		 M527,140.8c-29.5,0-53.5-24-53.5-53.5s24-53.5,53.5-53.5s53.5,24,53.5,53.5S556.5,140.8,527,140.8z"/>
	<path class="st1" d="M568.4,88.9L561,83l-2.8-11.9c-0.1-0.7-0.7-1.1-1.4-1.1h-13V59.6c0-0.8-0.7-1.5-1.5-1.5h-55.7
		c-0.8,0-1.5,0.7-1.5,1.5v44.8c0,0.8,0.7,1.5,1.5,1.5h4.9v0.2c0,5.7,4.6,10.3,10.3,10.3c5.7,0,10.3-4.6,10.3-10.3v-0.2h26v0.2
		c0,5.7,4.6,10.3,10.3,10.3s10.3-4.6,10.3-10.3v-0.2h8.8c0.8,0,1.5-0.7,1.5-1.5V90.1C568.9,89.6,568.7,89.2,568.4,88.9z M566,102.9
		h-7.8c-1.3-4.1-5.2-7.2-9.8-7.2c-1.7,0-3.2,0.4-4.6,1.1V73h11.8l2.7,11.3c0.1,0.3,0.2,0.6,0.5,0.8l7.2,5.7L566,102.9L566,102.9z
		 M555.8,106c0,4.1-3.3,7.4-7.4,7.4c-4.1,0-7.4-3.3-7.4-7.4c0-0.1,0-0.2,0-0.2c0-0.2,0-0.5,0.1-0.7c0-0.2,0.1-0.5,0.1-0.8
		c0.2-0.9,0.6-1.8,1.1-2.5c0.4-0.6,0.9-1.1,1.5-1.6c1.3-1,2.9-1.7,4.6-1.7c3,0,5.5,1.8,6.7,4.3c0.2,0.5,0.4,0.9,0.5,1.5
		c0.1,0.5,0.2,1,0.2,1.5C555.8,105.9,555.8,106,555.8,106z M509.2,106c0,4.1-3.3,7.4-7.4,7.4s-7.4-3.3-7.4-7.4c0-0.1,0-0.2,0-0.2
		c0-0.5,0.1-1,0.2-1.5s0.3-1,0.5-1.5c1.2-2.5,3.7-4.3,6.7-4.3s5.5,1.8,6.7,4.3c0.2,0.5,0.4,0.9,0.5,1.5c0.1,0.5,0.2,1,0.2,1.5
		C509.2,105.9,509.2,106,509.2,106z M501.8,95.7c-4.6,0-8.5,3-9.8,7.2h-4V61h52.8v10.5V99c-1,1.1-1.8,2.4-2.3,3.9h-26.9
		C510.3,98.8,506.4,95.7,501.8,95.7z"/>
</g>
<g>
	<path class="st1" d="M704.3,48.3v-3c0-2.3-1.9-4.2-4.2-4.2h-4.2c-9.5-6.7-20.7-10.2-32.4-10.2s-22.9,3.5-32.4,10.2h-4.2
		c-2.3,0-4.2,1.9-4.2,4.2v3c-10.1,10.6-15.6,24.4-15.6,39c0,31.1,25.3,56.4,56.5,56.4c31.1,0,56.4-25.3,56.4-56.4
		C719.9,72.6,714.4,58.8,704.3,48.3z M622.7,121.8c-7.9-9.3-12.7-21.4-12.7-34.6c0-12.8,4.5-25,12.7-34.6V121.8z M663.5,33.7
		c9.6,0,18.9,2.5,27,7.3h-54.1C644.6,36.2,653.9,33.7,663.5,33.7z M695.8,129.9c0,0-12.9,10.9-32.4,10.9
		c-19.4,0-31.9-10.6-31.9-10.6c-2.1-1.6-4.1-3.3-6-5.2l0,0V45.2c0-0.7,0.6-1.3,1.3-1.3H700c0.7,0,1.3,0.6,1.3,1.3V125l0,0
		C699.7,126.7,697.8,128.4,695.8,129.9z M704.3,52.6c8.2,9.7,12.7,21.8,12.7,34.6c0,13.2-4.8,25.3-12.7,34.6V52.6z"/>
	<g>
		<g>
			<path class="st1" d="M661.8,70h26.8c1.2,0,2.1-0.9,2.1-2.1s-0.9-2.1-2.1-2.1h-26.8c-1.2,0-2.1,0.9-2.1,2.1S660.7,70,661.8,70z"/>
			<path class="st1" d="M661.8,92.9h26.8c1.2,0,2.1-0.9,2.1-2.1s-0.9-2.1-2.1-2.1h-26.8c-1.2,0-2.1,0.9-2.1,2.1
				S660.7,92.9,661.8,92.9z"/>
			<path class="st1" d="M661.8,115.9h26.8c1.2,0,2.1-0.9,2.1-2.1s-0.9-2.1-2.1-2.1h-26.8c-1.2,0-2.1,0.9-2.1,2.1
				S660.7,115.9,661.8,115.9z"/>
			<path class="st1" d="M642.5,72.3c0.4,0.4,0.9,0.7,1.5,0.7l0,0c0.6,0,1.1-0.3,1.5-0.7L657,59.7c0.8-0.9,0.7-2.2-0.1-3
				c-0.9-0.8-2.2-0.7-3,0.1l-10,10.9l-3.1-3.3c-0.8-0.8-2.1-0.9-3-0.1c-0.8,0.8-0.9,2.1-0.1,3L642.5,72.3z"/>
			<path class="st1" d="M654,80.9l-10,10.9l-3.1-3.3c-0.8-0.8-2.1-0.9-3-0.1c-0.8,0.8-0.9,2.1-0.1,3l4.6,4.9
				c0.4,0.4,0.9,0.7,1.5,0.7l0,0c0.6,0,1.1-0.3,1.5-0.7l11.5-12.6c0.8-0.9,0.7-2.2-0.1-3C656.1,80,654.8,80,654,80.9z"/>
			<path class="st1" d="M654,104.8l-10,10.9l-3.1-3.3c-0.8-0.8-2.1-0.9-3-0.1c-0.8,0.8-0.9,2.1-0.1,3l4.6,4.9
				c0.4,0.4,0.9,0.7,1.5,0.7l0,0c0.6,0,1.1-0.3,1.5-0.7l11.5-12.6c0.8-0.9,0.7-2.2-0.1-3C656.1,103.9,654.8,104,654,104.8z"/>
		</g>
	</g>
</g>
</svg>
