<?xml version="1.0" encoding="utf-8"?>
<!-- Generator: Adobe Illustrator 26.0.1, SVG Export Plug-In . SVG Version: 6.00 Build 0)  -->
<svg version="1.1" id="Layer_1" xmlns="http://www.w3.org/2000/svg" xmlns:xlink="http://www.w3.org/1999/xlink" x="0px" y="0px"
	 viewBox="0 0 175 175" style="enable-background:new 0 0 175 175;" xml:space="preserve">
<style type="text/css">
	.st0{fill:#FF6D35;}
</style>
<path class="st0" d="M134.1,52.6L144.6,42c0.6-0.6,0.6-1.5,0-2.1L133.8,29c-0.6-0.6-1.5-0.6-2.1,0l-10.8,10.8
	c-26.4-18.4-62.7-12-81.1,14.3s-12,62.7,14.3,81.1s62.7,12,81.1-14.3C149.7,100.3,149.2,72.7,134.1,52.6z M132.7,32.2l8.7,8.7
	L97.6,84.8l-11.8,3l3-11.8l38.8-38.8l6.5,6.5c0.6,0.6,1.6,0.5,2.1-0.1s0.5-1.5,0-2l-6.5-6.5L132.7,32.2z M92.5,111.8
	c0.4,3.7,2.2,7,5,9.4h-20c2.8-2.4,4.6-5.8,5-9.4H92.5z M93.9,108.8H49.7c-0.7,0-1.3-0.6-1.3-1.3v-4.2h78.2v4.2
	c0,0.7-0.6,1.3-1.3,1.3H93.9z M126.6,60.2v40.1H48.4V92c3-0.9,5.4-3.1,6.6-5.9c1.7-3.9,6.3-5.6,10.1-3.9c1.8,0.8,3.2,2.2,3.9,3.9
	c1.7,3.9,5.5,6.4,9.8,6.4c1.6,0,3.2-0.3,4.6-1h0.3c0.1,0,0.3,0,0.4,0l14.7-3.8c0.3-0.1,0.5-0.2,0.7-0.4l27.2-27.2
	C126.6,60.1,126.6,60.1,126.6,60.2z M82.6,88.5c-1.1,0.6-2.4,0.9-3.7,0.9c-3,0-5.8-1.8-7-4.6c-2.4-5.4-8.7-7.8-14.1-5.5
	c-2.4,1.1-4.4,3-5.5,5.5c-0.8,1.7-2.1,3.1-3.9,3.9V60.2c0-0.7,0.6-1.3,1.3-1.3h52.1L86.4,74.2c-0.2,0.2-0.3,0.4-0.4,0.7L82.6,88.5z
	 M87.6,142.7c-30.5,0-55.2-24.7-55.2-55.2S57,32.3,87.5,32.3c11.2,0,22,3.4,31.2,9.7l-13.9,13.9H49.7c-2.4,0-4.3,1.9-4.3,4.3v29.3
	h-0.2c-3,0-5.8-1.8-7-4.6c-0.4-0.7-1.3-1-2-0.7s-1,1.1-0.7,1.9c1.7,3.9,5.5,6.4,9.8,6.4h0.2v15.1c0,2.4,1.9,4.3,4.3,4.3h29.7
	c-0.7,5.4-5.4,9.4-9.4,9.4c-0.8,0-1.5,0.7-1.5,1.5s0.7,1.5,1.5,1.5h34.8c0.8,0,1.5-0.7,1.5-1.5s-0.7-1.5-1.5-1.5c-4,0-8.6-4-9.4-9.4
	h29.7c2.4,0,4.3-1.9,4.3-4.3V60.2c0-0.9-0.2-1.7-0.7-2.4l3.1-3.1c7,9.5,10.8,21,10.8,32.8C142.7,118,118,142.7,87.6,142.7
	L87.6,142.7z"/>
<path class="st0" d="M128.4,47L93.8,81.5c-0.6,0.6-0.6,1.6,0,2.1s1.6,0.6,2.1,0l0,0l34.5-34.5c0.6-0.6,0.5-1.6-0.1-2.1
	C129.9,46.4,129,46.4,128.4,47L128.4,47z"/>
</svg>
