<?xml version="1.0" encoding="utf-8"?>
<!-- Generator: Adobe Illustrator 26.0.2, SVG Export Plug-In . SVG Version: 6.00 Build 0)  -->
<svg version="1.1" id="Layer_1" xmlns="http://www.w3.org/2000/svg" xmlns:xlink="http://www.w3.org/1999/xlink" x="0px" y="0px"
	 viewBox="0 0 175 175" style="enable-background:new 0 0 175 175;" xml:space="preserve">
<style type="text/css">
	.st0{fill:#FF6D35;}
</style>
<path class="st0" d="M145.7,87.5c0-32.2-26.1-58.2-58.2-58.2c-14.9,0-29.3,5.7-40.1,16l-10.2,2.1l0,0c-0.5,0.1-1,0.5-1.1,1
	l-6.8,21.1c-0.3,0.8,0.1,1.6,0.9,1.9c0.2,0.1,0.3,0.1,0.5,0.1h0.8c-8.9,30.9,8.9,63.2,39.8,72.1c14,4,29,2.7,42-3.8l0.7,1.9
	c0.3,0.8,1.2,1.2,1.9,0.9l9.9-3.7c0.8-0.3,1.2-1.2,0.9-1.9l-1.8-4.7C138.2,121.1,145.8,104.7,145.7,87.5z M99.2,78.5
	c-0.6-0.6-1.5-0.6-2.1,0c-0.3,0.3-0.4,0.6-0.4,1l-1.5,22.1l-15.7,3.2V50.9l5.7,19.4c0.2,0.6,0.8,1.1,1.4,1.1h30.2v25L99.2,78.5z
	 M76.4,104.8L39,97.2V71.4h30.3c0.7,0,1.2-0.4,1.4-1.1L76.5,51L76.4,104.8z M87.8,68.4l-7.7-25.8l37.1,7.5l5.9,18.3H87.8z
	 M38.7,50.1l37.1-7.5l-7.7,25.8H32.8L38.7,50.1z M87.5,142.7c-30.5,0-55.2-24.8-55.2-55.3c0-5.4,0.8-10.8,2.4-16.1H36v27
	c0,0.7,0.5,1.3,1.2,1.5l40.4,8.2c0.2,0,0.4,0,0.6,0l16.7-3.4l-1.5,22.9c-0.1,0.8,0.6,1.5,1.4,1.6c0.2,0,0.4,0,0.6-0.1l12.2-4.6
	l4.6,12.3C104.5,140.7,96.1,142.7,87.5,142.7L87.5,142.7z M116.3,139.1l-6.3-17c-0.3-0.8-1.2-1.2-1.9-0.9l-11.5,4.3L99.4,83l30,30.3
	l-11.5,4.3c-0.8,0.3-1.2,1.2-0.9,1.9l6.3,17L116.3,139.1z M123.8,129.1l-3.4-9.2l12.3-4.6c0.8-0.3,1.2-1.2,0.9-1.9
	c-0.1-0.2-0.2-0.4-0.3-0.5l-13.5-13.7c0.1-0.2,0.2-0.5,0.2-0.7v-27h5.3c0.8,0,1.5-0.7,1.5-1.5c0-0.2,0-0.4-0.1-0.5l-6.8-21.1
	c-0.2-0.5-0.6-0.9-1.1-1l0,0l-35.5-7.2l-4.9-1h-0.1H78h-0.4L53.4,44c24.1-18.6,58.8-14.2,77.5,10C148.6,77,145.5,109.8,123.8,129.1
	L123.8,129.1z"/>
</svg>
