<?xml version="1.0" encoding="utf-8"?>
<!-- Generator: Adobe Illustrator 21.1.0, SVG Export Plug-In . SVG Version: 6.00 Build 0)  -->
<svg version="1.1" id="Layer_1" xmlns="http://www.w3.org/2000/svg" xmlns:xlink="http://www.w3.org/1999/xlink" x="0px" y="0px"
	 viewBox="0 0 175 175" style="enable-background:new 0 0 175 175;" xml:space="preserve">
<style type="text/css">
	.st0{fill:#355E86;}
</style>
<title>Artboard 14</title>
<path class="st0" d="M140.7,111.1c3.3-7.4,5-15.5,5-23.7c0-32.2-26.1-58.2-58.3-58.2c-13.5,0-26.6,4.7-37,13.3H35.3
	c-0.8,0-1.5,0.7-1.5,1.5v20.9c-3,7.2-4.6,14.8-4.6,22.6c0,32.2,26.1,58.2,58.2,58.2c15.5,0.1,30.4-6.1,41.3-17.2
	c4.7,3.5,11.3,2.6,14.8-2.1c3.5-4.7,2.6-11.3-2.1-14.8C141.3,111.5,141,111.3,140.7,111.1L140.7,111.1z M36.8,45.5h54.5v39.2
	c-1.1,1.1-1.9,2.5-2.3,4H61.2c-1.8-5.6-7.8-8.7-13.4-6.9c-3.3,1-5.8,3.6-6.9,6.9h-4.1L36.8,45.5z M99.1,81.3c-1.7,0-3.3,0.4-4.8,1.2
	V57.9h12.2l2.8,11.7c0.1,0.3,0.3,0.6,0.5,0.8l7.4,5.9v12.5h-8.1C107.8,84.3,103.7,81.4,99.1,81.3L99.1,81.3z M99.1,84.3
	c4.2,0,7.6,3.4,7.6,7.6c0,4.2-3.4,7.6-7.6,7.6c-4.2,0-7.6-3.4-7.6-7.6C91.5,87.8,94.9,84.4,99.1,84.3C99.1,84.3,99.1,84.3,99.1,84.3
	L99.1,84.3z M58.7,92c0,4.2-3.4,7.6-7.7,7.6s-7.6-3.4-7.6-7.7c0-4.2,3.4-7.6,7.6-7.6C55.2,84.3,58.7,87.7,58.7,92
	C58.7,92,58.7,92,58.7,92z M87.5,142.8c-30.5,0-55.3-24.8-55.3-55.3c0-4.4,0.5-8.8,1.6-13v15.8c0,0.8,0.7,1.5,1.5,1.5h5.1
	c0,0.1,0,0.2,0,0.2c0,5.9,4.8,10.6,10.6,10.6S61.7,97.9,61.7,92c0-0.1,0-0.2,0-0.2h26.8c0,0.1,0,0.2,0,0.2c0,5.9,4.8,10.6,10.6,10.6
	s10.6-4.8,10.6-10.6c0-0.1,0-0.2,0-0.2h9.1c0.8,0,1.5-0.7,1.5-1.5V75.5c0-0.5-0.2-0.9-0.6-1.2l-7.6-6l-3-12.3
	c-0.2-0.7-0.8-1.2-1.5-1.2H94.3V44c0-0.8-0.7-1.5-1.5-1.5H55.4c24.8-17.7,59.3-12,77,12.8c6.7,9.4,10.3,20.6,10.3,32.2
	c0,7.8-1.6,15.4-4.8,22.5c-1.7-0.5-3.5-0.5-5.2,0l-3.3-8.1h1.8c0.8,0,1.5-0.7,1.5-1.5s-0.7-1.5-1.5-1.5h-4.1c-0.8,0-1.5,0.7-1.5,1.5
	c0,0.2,0,0.4,0.1,0.6l1.8,4.3h-13.4v-1.2h1.7c0.8,0,1.5-0.7,1.5-1.5s-0.7-1.5-1.5-1.5h-6.2c-0.8,0-1.5,0.7-1.5,1.5s0.7,1.5,1.5,1.5
	h1.5v2.3l-1.9,3.8c-5.5-1.9-11.6,1-13.5,6.5c-0.8,2.4-0.8,5.1,0.2,7.5H79.4c-0.8,0-1.5,0.7-1.5,1.5s0.7,1.5,1.5,1.5h18.5
	c3.9,4.4,10.6,4.8,15,0.9c1.9-1.7,3.1-3.9,3.4-6.4h4.5c0.1,0,0.2,0,0.4,0h0.1c0.1,0,0.2-0.1,0.3-0.1l0,0c0.2-0.1,0.3-0.3,0.5-0.4
	l0,0l7.3-11.3l0.6,1.3c-5,2.9-6.7,9.4-3.8,14.5c0.2,0.3,0.4,0.6,0.6,0.9C116.3,137,102.2,142.8,87.5,142.8L87.5,142.8z M120.9,117.4
	l-5.5-9.1h11.4L120.9,117.4z M116.3,118.8c-0.4-2.9-2-5.5-4.4-7.2l0.9-1.7l5.4,8.8L116.3,118.8z M102.8,124.3h-3.4
	c-2.2-3.5-1.2-8.2,2.3-10.5c1.8-1.2,4.1-1.5,6.2-0.9l-3.4,6.6c-0.4,0.7-0.1,1.6,0.7,2c0.2,0.1,0.4,0.2,0.7,0.2h7.5
	c-0.8,4.1-4.8,6.8-8.9,6c-0.5-0.1-1-0.2-1.4-0.4c0.8,0,1.5-0.7,1.4-1.5C104.4,124.9,103.7,124.3,102.8,124.3L102.8,124.3
	L102.8,124.3z M108.3,118.8l2.3-4.4c1.4,1.1,2.4,2.7,2.7,4.4H108.3z M135.3,127.9c-4.2,0-7.6-3.4-7.6-7.6c0-2.5,1.3-4.9,3.4-6.3
	l2.8,6.9c0.3,0.8,1.2,1.1,2,0.8c0.8-0.3,1.1-1.2,0.8-2l-2.8-6.9c4.1-0.8,8.1,1.9,8.9,6s-1.9,8.1-6,8.9
	C136.3,127.8,135.8,127.9,135.3,127.9L135.3,127.9z"/>
<path class="st0" d="M79.4,109.5h23.4c0.8,0,1.5-0.7,1.5-1.5s-0.7-1.5-1.5-1.5H79.4c-0.8,0-1.5,0.7-1.5,1.5S78.6,109.5,79.4,109.5z"
	/>
<path class="st0" d="M92.6,116.9c0-0.8-0.7-1.5-1.5-1.5l0,0H67.7c-0.8,0-1.5,0.7-1.5,1.5s0.7,1.5,1.5,1.5h23.4
	C91.9,118.4,92.6,117.7,92.6,116.9z"/>
</svg>
