<?xml version="1.0" encoding="utf-8"?>
<!-- Generator: Adobe Illustrator 26.0.2, SVG Export Plug-In . SVG Version: 6.00 Build 0)  -->
<svg version="1.1" id="Layer_1" xmlns="http://www.w3.org/2000/svg" xmlns:xlink="http://www.w3.org/1999/xlink" x="0px" y="0px"
	 viewBox="0 0 175 175" style="enable-background:new 0 0 175 175;" xml:space="preserve">
<style type="text/css">
	.st0{fill:#FF6D35;}
</style>
<path class="st0" d="M87.5,29.2c-16.9,0-33,7.4-44.1,20.2h-6.3c-0.8,0-1.5,0.7-1.5,1.5v10c-4.2,8.2-6.4,17.3-6.4,26.5
	c0,2.7,0.2,5.5,0.6,8.2l-4.3,4.2c-0.6,0.6-0.6,1.5,0,2.1l8.5,8.5c12.8,29.5,47.1,43.1,76.6,30.3s43.1-47.1,30.3-76.6
	C131.7,43.1,110.7,29.3,87.5,29.2z M89.2,52.5c-1.9,1.3-3.7,2.8-5.3,4.5l0,0l-15.3,0.5c-0.4,0-0.7,0.2-1,0.4l-29,29V52.5H89.2z
	 M110,93.7c-2,0-3.9,0.5-5.7,1.4V66.5h14.3l3.2,13.5c0.1,0.3,0.3,0.6,0.5,0.8l8.6,6.8v14.6h-9.6C119.8,97.2,115.2,93.8,110,93.7z
	 M110,96.7c4.9,0,8.9,4,8.9,8.9s-4,8.9-8.9,8.9s-8.9-4-8.9-8.9l0,0C101.1,100.7,105.1,96.7,110,96.7z M101.3,65v32.5
	c-1.3,1.3-2.2,2.9-2.7,4.7h-17l15.1-15.1c0.3-0.3,0.4-0.6,0.4-1l0.5-15.2c0-0.4-0.1-0.8-0.4-1.1l-3.3-3.3c1.5-4.5,2.3-9.2,2.3-13.9
	h5.1C101.3,52.6,101.3,65,101.3,65z M91.5,64l-5.1-5.1c2-2.1,4.3-3.9,6.8-5.4C93,57.1,92.4,60.6,91.5,64z M32.2,87.5
	c0-6.5,1.2-13,3.4-19.1v21.5L32.5,93C32.4,91.2,32.2,89.3,32.2,87.5z M69.2,60.5l14-0.4l7.1,7.1c-0.2,0.6-0.5,1.2-0.7,1.8
	c-0.6,1.5-1.4,2.8-2.6,3.9c-0.2-1.3-0.9-2.5-1.8-3.4c-2.6-2.6-6.7-2.6-9.3,0c-2.6,2.6-2.6,6.8,0,9.3c2.6,2.6,6.8,2.6,9.3,0
	c0.6-0.6,1.1-1.4,1.5-2.2c2-0.7,4-2.6,5.7-6.4c0.1-0.2,0.2-0.4,0.3-0.7l1.9,1.9l-0.4,14L53.6,126l-24.9-24.9L69.2,60.5z M82.5,70.9
	c1,0.6,1.7,1.6,1.7,2.8C83.1,73.2,82.4,72.1,82.5,70.9z M79.5,70.6c-0.1,2.6,1.4,4.9,3.8,5.9l0,0c-1.4,1.4-3.7,1.4-5.1,0
	s-1.4-3.6,0-5C78.5,71.1,79,70.8,79.5,70.6L79.5,70.6z M87.5,142.7c-18.5,0-35.8-9.2-46-24.6l11,11c0.6,0.6,1.5,0.6,2.1,0l24-24
	h19.5c0,0.2,0,0.3,0,0.5c0,6.6,5.3,11.9,11.9,11.9s11.9-5.3,11.9-11.9c0-0.2,0-0.3,0-0.5h10.6c0.8,0,1.5-0.7,1.5-1.5V86.8
	c0-0.5-0.2-0.9-0.6-1.2l-8.7-6.9l-3.3-14.1c-0.2-0.7-0.8-1.2-1.5-1.2h-15.6V51c0-0.8-0.7-1.5-1.5-1.5H47.5c21-22.1,56-23.1,78.1-2.1
	s23.1,56,2.1,78.1C117.2,136.5,102.7,142.8,87.5,142.7L87.5,142.7z"/>
<path class="st0" d="M48.8,107.6l2.2-2.2c0.4-0.3,0.4-0.8,0.1-1.2c0-0.1-0.1-0.1-0.1-0.1l-0.5-0.4c-0.3-0.4-0.8-0.4-1.2-0.1
	c-0.1,0-0.1,0.1-0.1,0.1l-2.2,2.2l-1-1l2.6-2.6c0.4-0.3,0.4-0.8,0.1-1.2c0-0.1-0.1-0.1-0.1-0.1l-0.7-0.7c-0.3-0.4-0.8-0.4-1.2-0.1
	c-0.1,0-0.1,0.1-0.1,0.1l-4.3,4.3c-0.4,0.3-0.4,0.8-0.1,1.2c0,0.1,0.1,0.1,0.1,0.1l6.5,6.5c0.3,0.4,0.8,0.4,1.2,0.1
	c0.1,0,0.1-0.1,0.1-0.1l1-1c0.4-0.3,0.4-0.8,0.1-1.2c0-0.1-0.1-0.1-0.1-0.1L48.8,107.6z"/>
<path class="st0" d="M55.4,105.7c0.3,0.4,0.8,0.4,1.2,0.1c0.1,0,0.1-0.1,0.1-0.1l1-1c0.4-0.3,0.4-0.8,0.1-1.2c0-0.1-0.1-0.1-0.1-0.1
	l-2-2l0.6-0.6c0.9,0.7,3.2,2.3,5.3,0.3c0.5-0.5,0.9-1.1,1.2-1.8c0.2-0.5-0.1-0.9-0.6-1.1L61.7,98c-0.6-0.2-0.8-0.2-1,0.3
	c-0.1,0.2-0.2,0.4-0.4,0.5c-0.5,0.5-1.2,0.5-2-0.2c0.7-1.3,0.4-2.9-0.7-3.9c-1.4-1.5-3.7-1.6-5.2-0.3c-0.1,0.1-0.2,0.2-0.3,0.3
	L49,97.8c-0.4,0.3-0.4,0.8-0.1,1.2c0,0.1,0.1,0.1,0.1,0.1L55.4,105.7z M53.8,97c0.4-0.4,1.1-0.3,1.5,0.1s0.5,1,0.1,1.4l0,0l-1.2,1.2
	l-1.5-1.6L53.8,97z"/>
<path class="st0" d="M63.4,97.6c0.3,0.4,0.8,0.4,1.2,0.1c0.1,0,0.1-0.1,0.1-0.1l4.2-4.2c0.4-0.3,0.4-0.8,0.1-1.2
	c0-0.1-0.1-0.1-0.1-0.1l-0.7-0.7C68,91,67.5,91,67.1,91.2c-0.1,0-0.1,0.1-0.1,0.1L64.4,94l-1-1l2.1-2.1c0.4-0.3,0.4-0.8,0.1-1.2
	c0-0.1-0.1-0.1-0.1-0.1L65.1,89c-0.3-0.4-0.8-0.4-1.2-0.1c-0.1,0-0.1,0.1-0.1,0.1l-2.1,2.1l-1-1l2.5-2.5c0.4-0.3,0.4-0.8,0.1-1.2
	c0-0.1-0.1-0.1-0.1-0.1l-0.7-0.7c-0.3-0.4-0.8-0.4-1.2-0.1c-0.1,0-0.1,0.1-0.1,0.1L57,89.8c-0.4,0.3-0.4,0.8-0.1,1.2
	c0,0.1,0.1,0.1,0.1,0.1L63.4,97.6z"/>
<path class="st0" d="M70.2,90.8c0.3,0.4,0.8,0.4,1.2,0.1c0.1,0,0.1-0.1,0.1-0.1l4.2-4.2c0.4-0.3,0.4-0.8,0.1-1.2
	c0-0.1-0.1-0.1-0.1-0.1L75,84.6c-0.3-0.4-0.8-0.4-1.2-0.1c-0.1,0-0.1,0.1-0.1,0.1l-2.6,2.6l-1-1l2.1-2.2c0.4-0.3,0.4-0.8,0.1-1.2
	c0-0.1-0.1-0.1-0.1-0.1l-0.4-0.4c-0.3-0.4-0.8-0.4-1.2-0.1c-0.1,0-0.1,0.1-0.1,0.1l-2.1,2.1l-1-1l2.5-2.6c0.4-0.3,0.4-0.8,0.1-1.2
	c0-0.1-0.1-0.1-0.1-0.1l-0.7-0.7c-0.3-0.4-0.8-0.4-1.2-0.1c-0.1,0-0.1,0.1-0.1,0.1L63.8,83c-0.4,0.3-0.4,0.8-0.1,1.2
	c0,0.1,0.1,0.1,0.1,0.1L70.2,90.8z"/>
</svg>
