<?xml version="1.0" encoding="utf-8"?>
<!-- Generator: Adobe Illustrator 21.1.0, SVG Export Plug-In . SVG Version: 6.00 Build 0)  -->
<svg version="1.1" id="Layer_1" xmlns="http://www.w3.org/2000/svg" xmlns:xlink="http://www.w3.org/1999/xlink" x="0px" y="0px"
	 viewBox="0 0 150 149.9" style="enable-background:new 0 0 150 149.9;" xml:space="preserve">
<g>
	
		<path style="fill:none;stroke:#336497;stroke-width:2;stroke-linecap:round;stroke-linejoin:round;stroke-miterlimit:10;stroke-dasharray:5,5,5,5,5,5;" d="
		M116,36H94.9H79.6H42.1c-1.8,0-3.3,1.5-3.3,3.3v6.9v72.1"/>
	<g>
		<g>
			<path style="fill:#336497;" d="M75.1,133.7c-9.1,0-17.8-2-25.9-6c-20.3-9.9-33-30.1-33-52.8c0-32.4,26.4-58.8,58.8-58.8
				c20.9,0,40.3,11.2,50.9,29.3c0.1,0.1,0.2,0.2,0.2,0.3c5.1,8.8,7.8,18.9,7.8,29.2C133.9,107.3,107.5,133.7,75.1,133.7z M75,19.1
				c-30.8,0-55.8,25-55.8,55.8c0,21.5,12,40.7,31.3,50.1c7.7,3.8,16,5.7,24.6,5.7c30.8,0,55.8-25,55.8-55.8c0-9.7-2.5-19.2-7.2-27.4
				c-0.1-0.1-0.2-0.2-0.2-0.3C113.5,29.9,94.9,19.1,75,19.1z"/>
		</g>
		<path style="fill:none;stroke:#336497;stroke-width:3;stroke-linejoin:round;stroke-miterlimit:10;" d="M100.8,126.2
			c-2.1,1.1-4.3,2-6.6,2.8"/>
		<g>
			<path style="fill:#336497;" d="M75.1,133.7c-9.1,0-17.8-2-25.9-6c-0.5-0.2-0.8-0.8-0.8-1.3V49.7c0-2.6,2.1-4.7,4.7-4.7h71.7
				c0.5,0,1,0.3,1.3,0.7c1.9,3.2,3.4,6.7,4.7,10.3c0.2,0.4,0.1,0.9-0.2,1.3c-0.3,0.4-0.7,0.6-1.2,0.6H63.2v26.9h68.2
				c0.4,0,0.9,0.2,1.1,0.5s0.4,0.8,0.3,1.2c-0.9,4.5-2.4,9-4.5,13.5c-0.1,0.2-0.2,0.3-0.3,0.4c-1.9,3.8-3.8,7-5.9,9.7
				c-5.3,7.2-12.4,13.2-20.7,17.4c-0.5,0.2-1,0.2-1.4-0.1c-0.4-0.3-0.7-0.7-0.7-1.2v-25.4H63.2v26.6h31.1c0.7,0,1.3,0.5,1.4,1.2
				c0.1,0.7-0.3,1.4-1,1.6C88.3,132.5,81.7,133.7,75.1,133.7z M51.3,125.4c2.9,1.4,5.9,2.5,9,3.3V99.4c0-0.8,0.7-1.5,1.5-1.5h39
				c0.8,0,1.5,0.7,1.5,1.5v24.4c6.1-3.4,11.5-7.9,15.8-13.1h-3.6c-0.8,0-1.5-0.7-1.5-1.5s0.7-1.5,1.5-1.5h5.8c1.5-2,2.9-4.3,4.3-7
				h-10.1c-0.8,0-1.5-0.7-1.5-1.5s0.7-1.5,1.5-1.5h11.6c1.5-3.4,2.7-6.8,3.5-10.2H61.8c-0.8,0-1.5-0.7-1.5-1.5V56.4
				c0-0.8,0.7-1.5,1.5-1.5h65.5c-0.9-2.5-2.1-4.8-3.3-7.1H53.1c-1,0-1.8,0.8-1.8,1.8V125.4z"/>
		</g>
	</g>
</g>
</svg>
