<?xml version="1.0" encoding="utf-8"?>
<!-- Generator: Adobe Illustrator 21.1.0, SVG Export Plug-In . SVG Version: 6.00 Build 0)  -->
<svg version="1.1" id="Layer_1" xmlns="http://www.w3.org/2000/svg" xmlns:xlink="http://www.w3.org/1999/xlink" x="0px" y="0px"
	 viewBox="0 0 175 175" style="enable-background:new 0 0 175 175;" xml:space="preserve">
<g>
	<path style="fill:#355E86;" d="M139.8,62V48.2c0-0.8-0.7-1.5-1.5-1.5h-9.3C118.7,36.2,104.9,30,90.2,29.3c-1.9-2.6-3.2-4.1-3.2-4.1
		c-0.6-0.7-1.7-0.7-2.3,0c0,0-1.4,1.6-3.4,4.4c-0.1,0-0.2,0-0.3,0c-13.3,1.5-25.7,7.6-35.1,17.1h-9.3c-0.8,0-1.5,0.7-1.5,1.5V62
		c-4.9,9.9-6.8,21-5.5,32c1.7,15.5,9.4,29.3,21.5,39c10.4,8.3,23.1,12.7,36.2,12.7c2.2,0,4.4-0.1,6.6-0.4c15.5-1.7,29.3-9.4,39-21.5
		s14.1-27.4,12.4-42.8C144.6,74.3,142.8,67.9,139.8,62z M117.5,103.3h12.7c0.8,0,1.5-0.7,1.5-1.5s-0.7-1.5-1.5-1.5h-12.3
		c0.1-0.9,0.1-1.7,0.1-2.6c0-0.3,0-0.6,0-1h12.2c0.8,0,1.5-0.7,1.5-1.5s-0.7-1.5-1.5-1.5h-12.4c-0.1-1.2-0.2-2.4-0.3-3.6h12.7
		c0.8,0,1.5-0.7,1.5-1.5s-0.7-1.5-1.5-1.5h-13.1c-0.2-1.2-0.4-2.4-0.6-3.5h13.7c0.8,0,1.5-0.7,1.5-1.5s-0.7-1.5-1.5-1.5h-14.4
		C113,69,108,58.1,103.4,49.7h33.4v58.8h-20.8C116.7,106.8,117.1,105.1,117.5,103.3z M124.7,46.7h-23c-3.3-5.7-6.6-10.6-9.2-14.2
		C104.6,33.6,115.8,38.5,124.7,46.7z M85.9,28.6c5.4,6.9,28.2,37.7,29,67.5c0,0,0,0,0,0c0,0.5,0,1,0,1.5c0,16-13,29.1-29.1,29.1
		s-29.1-13-29.1-29.1c0-0.5,0-1,0-1.6C57.6,66.3,80.4,35.5,85.9,28.6z M61.9,62.9H45.4v-5.3h18.9C63.5,59.3,62.7,61.1,61.9,62.9z
		 M78.9,32.9c-2.6,3.6-5.7,8.3-8.8,13.8H50.3C58.2,39.4,68.2,34.6,78.9,32.9z M38.1,49.7h30.2c-0.9,1.5-1.7,3.2-2.6,4.9H43.9
		c-0.8,0-1.5,0.7-1.5,1.5v8.3c0,0.8,0.7,1.5,1.5,1.5h16.7c-0.7,1.7-1.3,3.5-2,5.3H43.9c-0.8,0-1.5,0.7-1.5,1.5s0.7,1.5,1.5,1.5h13.8
		c-2.2,7-3.7,14.4-3.9,21.8c0,0.6,0,1.1,0,1.7c0,3.8,0.7,7.4,1.9,10.8H38.1V49.7z M35.1,69.9v35.3c-1.2-3.7-2.1-7.5-2.5-11.5
		C31.7,85.6,32.6,77.5,35.1,69.9z M130.7,122c-9.2,11.5-22.4,18.8-37,20.4C79,144,64.6,139.9,53,130.7c-6.6-5.3-11.8-11.8-15.3-19.2
		h19.2c5.2,10.8,16.2,18.3,28.9,18.3s23.8-7.5,28.9-18.3h22.4C135.5,115.2,133.3,118.7,130.7,122z M139.8,105.2V69.8
		c1.2,3.7,2.1,7.6,2.5,11.5C143.3,89.5,142.4,97.6,139.8,105.2z"/>
	<path style="fill:#355E86;" d="M85.9,120.9c12.8,0,23.2-10.4,23.2-23.2c0-0.8-0.7-1.5-1.5-1.5s-1.5,0.7-1.5,1.5
		c0,11.1-9.1,20.2-20.2,20.2c-0.8,0-1.5,0.7-1.5,1.5S85,120.9,85.9,120.9z"/>
</g>
</svg>
