<?xml version="1.0" encoding="utf-8"?>
<!-- Generator: Adobe Illustrator 21.1.0, SVG Export Plug-In . SVG Version: 6.00 Build 0)  -->
<svg version="1.1" id="Layer_1" xmlns="http://www.w3.org/2000/svg" xmlns:xlink="http://www.w3.org/1999/xlink" x="0px" y="0px"
	 viewBox="0 0 175 175" style="enable-background:new 0 0 175 175;" xml:space="preserve">
<style type="text/css">
	.st0{fill:#355E86;}
</style>
<title>Artboard 20</title>
<path class="st0" d="M102.3,78c8.5,2.8,15.3,9.4,18.2,17.9c0.2,0.6,0.8,1,1.4,1c0.2,0,0.3,0,0.5-0.1c0.8-0.3,1.2-1.1,0.9-1.9
	c0,0,0,0,0,0c-3.2-9.4-10.7-16.7-20.1-19.8c-0.8-0.3-1.6,0.2-1.9,1S101.5,77.7,102.3,78L102.3,78z"/>
<path class="st0" d="M131.6,125.4c21-24.3,18.3-61-6-82c-0.6-0.6-1.3-1.1-2-1.6c-0.2-0.6-0.7-1-1.3-1c-9.7-7.2-21.3-11.3-33.4-11.5
	V28c0-0.8-0.7-1.5-1.5-1.5S86,27.2,86,28v1.3c-12,0.3-23.7,4.3-33.3,11.6c-0.6,0-1.1,0.4-1.3,1c-25.2,19.9-29.5,56.4-9.7,81.6
	c0.5,0.7,1,1.3,1.6,1.9c0.1,0.2,0.3,0.4,0.5,0.5c21.1,24.2,57.9,26.6,82,5.5c1.9-1.7,3.8-3.5,5.5-5.5
	C131.4,125.8,131.6,125.6,131.6,125.4z M52.9,44.5L63,54.6c0.6,0.6,1.6,0.5,2.1-0.1c0.5-0.6,0.5-1.5,0-2l-9.8-9.8
	c9-6.5,19.6-10.1,30.7-10.4v11.5c0,0.8,0.7,1.5,1.5,1.5s1.5-0.7,1.5-1.5V32.3c11.1,0.3,21.8,3.9,30.7,10.4l-9.8,9.8
	c-0.7,0.5-0.8,1.4-0.4,2.1c0.5,0.7,1.4,0.8,2.1,0.4c0.1-0.1,0.2-0.2,0.3-0.3l10.1-10.1c23.5,18.9,27.5,53.3,8.8,77l-1.5-4.8
	c-0.2-0.6-0.8-1.1-1.4-1.1h-27.7v-4.3h26.3c3.3-0.1,6-2.8,5.9-6.1c0-2.2-1.3-4.2-3.2-5.2c-0.5-17.1-14.4-30.6-31.5-30.7H89v-5.6h7
	c0.8,0,1.5-0.7,1.5-1.5s-0.7-1.5-1.5-1.5H79c-0.8,0-1.5,0.7-1.5,1.5s0.7,1.5,1.5,1.5h7v5.6h-8.8c-17.1,0-31,13.6-31.5,30.7
	c-3,1.5-4.2,5-2.8,8c1,2.1,3.1,3.4,5.4,3.4h26.4v4.3H47c-0.7,0-1.2,0.4-1.4,1.1l-1.5,4.8C25.3,97.8,29.3,63.5,52.9,44.5L52.9,44.5z
	 M48.3,102.3h36.4c0.8,0,1.5-0.7,1.5-1.5s-0.7-1.5-1.5-1.5H48.7c0.8-15.1,13.3-27,28.5-27h20.7c15.1,0,27.6,11.9,28.5,27
	c-0.8,0.1-1.4,0.8-1.3,1.7c0.1,0.8,0.8,1.4,1.7,1.3c1.7,0,3,1.3,3,3s-1.3,3-3,3l0,0H48.3c-1.7,0-3-1.3-3-3S46.7,102.3,48.3,102.3
	L48.3,102.3z M97.3,111.3v4.3H77.7v-4.3H97.3z M87.5,142.7c-15.7,0-30.7-6.7-41.2-18.4l1.7-5.6h78.9l1.7,5.6
	C118.2,136,103.2,142.8,87.5,142.7L87.5,142.7z"/>
</svg>
