<svg id="Layer_1" data-name="Layer 1" xmlns="http://www.w3.org/2000/svg" viewBox="0 0 175 175"><defs><style>.cls-1{fill:#336497;}.cls-2{fill:none;stroke:#326498;stroke-miterlimit:10;stroke-width:3px;}</style></defs><title>Artboard 7</title><path class="cls-1" d="M135.19072,88.38466c-2.249-2.0249-5.99707-1.69775-10.02832.87109-3.20435,2.03918-9.874,6.26135-16.04541,10.165a27.03894,27.03894,0,0,0-14.58081-4.46887l-.00537-.02838c-.11035.00623-.218.0163-.33228.0163-.11279,0-.21436-.01685-.32227-.024-.15991.01337-.32153.024-.49023.024-.147,0-.28711-.01074-.42725-.02094-.08765.00568-.1687.02094-.26025.02094-.0481,0-.09155-.00732-.13892-.00854-.05859.00171-.11377.00854-.17358.00854l-.00439-.00043a5.63911,5.63911,0,0,1-.80811.06293c-.04346,0-.0835-.00525-.12646-.00616l.00488.02081c-10.499.71045-16.05859,6.34369-17.68408,8.3017a59.50316,59.50316,0,0,0-7.50684.129c-7.9707.72974-19.27344,11.426-26.73828,18.76849l-.01221-.02863a4.30914,4.30914,0,0,1-.81274.5705,4.34482,4.34482,0,0,1-1.8252.87067c.27563.60785.5481,1.21692.85034,1.81653a57.86079,57.86079,0,0,0,10.623,14.78125c.24731.25049.50635.48486.75732.73029a4.63806,4.63806,0,0,1,1.01611-.52582,9.25347,9.25347,0,0,0,.88867-.31256c.02441-.01758.05273-.03119.07764-.04828a4.31511,4.31511,0,0,1,.84521-.55676c-.01831-.01648-.03687-.03253-.05493-.0495l10.73267-6.32428c2.958.20068,19.2793,1.31543,26.47852,1.936,8.6875.76172,10.67578-.81738,18.64355-8.39648,7.92578-7.53027,25.668-26.4043,28.16895-31.42773C137.22295,92.601,136.95049,89.96962,135.19072,88.38466ZM93.64384,97.93251a24.54055,24.54055,0,0,1,12.65527,3.27063c-4.4502,2.81421-8.26294,5.224-9.772,6.17767-3.957-1.76868-11.50952-3.22168-18.82129-3.82324C80.26518,101.25722,85.38261,97.93251,93.64384,97.93251ZM133.21513,93.913c-2.15039,4.31982-18.75586,22.23535-27.55176,30.5918-7.81543,7.436-8.9209,8.23145-16.31641,7.582-7.92187-.68311-26.80859-1.959-26.999-1.97168a1.475,1.475,0,0,0-.8623.2041l-11.80713,6.95691a54.815,54.815,0,0,1-8.76782-12.21637c6.77686-6.683,18.45166-17.9679,25.6228-18.62482,9.126-.82861,23.18164,1.26709,28.59375,3.603v3.91895a49.726,49.726,0,0,1-17.10059,2.13623,1.50014,1.50014,0,0,0-.13867,2.99707,50.01409,50.01409,0,0,0,19.2959-2.67578,1.50043,1.50043,0,0,0,.94336-1.39307v-5.10345c3.82617-2.41791,22.53442-14.24139,28.64746-18.13141,3.12012-1.98877,5.46777-2.021,6.4082-1.17236C133.89775,91.25722,133.90947,92.52089,133.21513,93.913Z"/><circle class="cls-2" cx="89.57353" cy="99.37734" r="57.125"/><path class="cls-1" d="M143.915,49.47548,109.08549,84.30493c-1.81913,1.81913-2.82028,3.76977-2.23437,4.35569s2.53656-.41524,4.35569-2.23437L146.03627,51.5968c1.81913-1.81913,2.82028-3.76977,2.23437-4.35569S145.73408,47.65635,143.915,49.47548Z"/><path class="cls-1" d="M88.35256,26.83272V77.00845c0,2.62066.67139,4.74685,1.5,4.74685s1.5-2.1262,1.5-4.74686V26.83271c0-2.62066-.67139-4.74685-1.5-4.74685S88.35256,24.21206,88.35256,26.83272Z"/><path class="cls-1" d="M35.98171,49.33371l34.959,34.959c1.82589,1.82589,2.83254,3.782,2.24662,4.36794s-2.542-.42073-4.36794-2.24662l-34.959-34.959c-1.82589-1.82589-2.83254-3.782-2.24662-4.36794S34.15582,47.50782,35.98171,49.33371Z"/><path class="cls-1" d="M108.36155,65.44366l-8.24993,13.54011a1.5,1.5,0,0,0,2.56191,1.561l8.24993-13.54011a1.5,1.5,0,0,0-2.56191-1.561Z"/><path class="cls-1" d="M73.00687,65.777,81.2568,79.31711a1.5,1.5,0,1,1-2.56191,1.561L70.445,67.338a1.5,1.5,0,1,1,2.56191-1.561Z"/></svg>